<?xml version="1.0" encoding="utf-8"?>
<!-- Generator: Adobe Illustrator 24.3.0, SVG Export Plug-In . SVG Version: 6.00 Build 0)  -->
<svg version="1.1" id="Capa_1" xmlns="http://www.w3.org/2000/svg" xmlns:xlink="http://www.w3.org/1999/xlink" x="0px" y="0px"
	 viewBox="0 0 291 78" style="enable-background:new 0 0 291 78;" xml:space="preserve">
<style type="text/css">
	.st0{enable-background:new    ;}
	.st1{fill:#F7E15B;}
	.st2{fill:#FFFFFF;}
	.st3{fill:none;}
	.st4{fill:none;stroke:#F7E15B;stroke-width:4;}
</style>
<g id="_239_rya" transform="translate(0.386)">
	<g id="Grupo_1820" transform="translate(20.768 5.192)">
		<g class="st0">
			<path class="st1" d="M18.2,46.3c-0.6,1-1.5,1.9-2.7,2.5c-1.2,0.7-2.5,1.1-4.1,1.2v2.8H9.3V50c-2.3-0.2-4.1-0.9-5.5-2.1
				c-1.4-1.2-2.1-2.7-2.1-4.7h5.1c0.1,1.6,1,2.6,2.5,3v-6.5c-1.6-0.4-2.9-0.8-3.9-1.2c-1-0.4-1.9-1.1-2.6-2
				c-0.7-0.9-1.1-2.1-1.1-3.7c0-2,0.7-3.6,2.1-4.8c1.4-1.2,3.2-2,5.5-2.1V23h2.2v2.8c2.2,0.2,3.9,0.8,5.2,2c1.3,1.1,2,2.7,2.2,4.7
				h-5.1c-0.1-0.7-0.3-1.2-0.7-1.7s-0.9-0.8-1.6-1v6.4c1.7,0.4,3,0.8,4,1.2s1.8,1,2.6,1.9c0.7,0.9,1.1,2.1,1.1,3.7
				C19.1,44.2,18.8,45.3,18.2,46.3z M7.3,34.3c0.5,0.5,1.1,0.8,2,1.1v-5.9c-0.8,0.1-1.5,0.4-1.9,0.9c-0.5,0.5-0.7,1.2-0.7,2
				C6.6,33.3,6.8,33.9,7.3,34.3z M13.5,45.1c0.5-0.5,0.7-1.2,0.7-2c0-0.7-0.2-1.3-0.7-1.8c-0.5-0.5-1.2-0.8-2-1.1v6
				C12.3,46,13,45.7,13.5,45.1z"/>
		</g>
		<g class="st0">
			<path class="st1" d="M26.7,42.2c3.1-2.6,5.5-4.7,7.3-6.4c1.8-1.7,3.3-3.5,4.6-5.4c1.2-1.9,1.8-3.7,1.8-5.5c0-1.6-0.4-2.9-1.2-3.8
				c-0.8-0.9-2-1.4-3.6-1.4c-1.6,0-2.8,0.5-3.7,1.6c-0.9,1.1-1.3,2.5-1.3,4.4h-6.5c0.1-3.8,1.3-6.8,3.4-8.7c2.2-2,4.9-3,8.2-3
				c3.6,0,6.4,1,8.4,2.9c2,1.9,2.9,4.5,2.9,7.7c0,2.5-0.7,4.9-2,7.2c-1.3,2.3-2.9,4.2-4.6,5.9s-4,3.7-6.8,6.1H48v5.6H24.2v-5
				L26.7,42.2z"/>
			<path class="st1" d="M55.7,16.6c2.1-1.7,4.9-2.6,8.3-2.6c2.3,0,4.3,0.4,6,1.2c1.7,0.8,2.9,1.9,3.8,3.3c0.8,1.4,1.3,3,1.3,4.7
				c0,2-0.5,3.7-1.6,5.1c-1,1.4-2.3,2.3-3.7,2.8v0.2C71.6,32,73,33,74,34.4c1,1.5,1.6,3.4,1.6,5.7c0,1.9-0.4,3.6-1.3,5.1
				c-0.9,1.5-2.2,2.7-3.9,3.5c-1.7,0.8-3.8,1.3-6.2,1.3c-3.6,0-6.6-0.9-8.8-2.7c-2.3-1.8-3.5-4.5-3.6-8.1h6.5
				c0.1,1.6,0.6,2.8,1.6,3.8c1,0.9,2.4,1.4,4.2,1.4c1.6,0,2.9-0.5,3.8-1.4c0.9-0.9,1.3-2.1,1.3-3.5c0-1.9-0.6-3.3-1.8-4.1
				c-1.2-0.8-3.1-1.2-5.7-1.2h-1.4v-5.5h1.4c4.5,0,6.8-1.5,6.8-4.6c0-1.4-0.4-2.4-1.2-3.2c-0.8-0.8-2-1.2-3.5-1.2
				c-1.5,0-2.7,0.4-3.5,1.2c-0.8,0.8-1.3,1.8-1.4,3.1h-6.6C52.4,20.8,53.6,18.4,55.7,16.6z"/>
			<path class="st1" d="M90.5,43.2c0.9,0.8,2.1,1.1,3.7,1.1c2,0,3.4-0.8,4.3-2.5c0.9-1.6,1.3-4.4,1.3-8.3c-0.7,1-1.8,1.8-3.1,2.4
				c-1.3,0.6-2.8,0.9-4.3,0.9c-2,0-3.9-0.4-5.5-1.3c-1.6-0.8-3-2.1-3.9-3.8c-1-1.7-1.4-3.7-1.4-6.1c0-3.6,1.1-6.4,3.2-8.5
				c2.1-2.1,5-3.1,8.6-3.1c4.5,0,7.8,1.5,9.6,4.4c1.9,2.9,2.8,7.3,2.8,13.2c0,4.2-0.4,7.6-1.1,10.2c-0.7,2.7-2,4.7-3.7,6
				c-1.7,1.4-4.1,2.1-7.1,2.1c-2.4,0-4.4-0.5-6-1.4c-1.7-0.9-2.9-2.1-3.8-3.6c-0.9-1.5-1.4-3.1-1.5-4.9h6.2
				C89,41.4,89.5,42.5,90.5,43.2z M97.7,29.8c1-1,1.4-2.4,1.4-4.1c0-1.9-0.5-3.4-1.5-4.4c-1-1-2.4-1.6-4.1-1.6s-3.1,0.5-4.1,1.6
				c-1,1.1-1.5,2.5-1.5,4.2c0,1.7,0.5,3.1,1.5,4.2c1,1.1,2.4,1.6,4.4,1.6C95.5,31.3,96.8,30.8,97.7,29.8z"/>
		</g>
		<g class="st0">
			<path class="st2" d="M122.1,24.9c0.7,0.4,1.2,0.8,1.5,1.5c0.4,0.6,0.5,1.4,0.5,2.2c0,0.8-0.2,1.6-0.5,2.2
				c-0.4,0.6-0.9,1.1-1.5,1.5c-0.7,0.4-1.4,0.5-2.3,0.5h-3.2v-8.4h3.2C120.6,24.4,121.4,24.6,122.1,24.9z M121.4,30.4
				c0.4-0.4,0.6-1,0.6-1.8s-0.2-1.4-0.6-1.8c-0.4-0.4-1-0.6-1.8-0.6h-1V31h1C120.4,31,121,30.8,121.4,30.4z"/>
			<path class="st2" d="M127.4,26v1.7h2.7v1.6h-2.7v1.8h3.1v1.6h-5.2v-8.4h5.2V26H127.4z"/>
			<path class="st2" d="M140.6,29.2c0.3,0.4,0.4,0.8,0.4,1.3c0,0.7-0.2,1.3-0.7,1.7c-0.5,0.4-1.2,0.6-2.1,0.6h-3.9v-8.4h3.8
				c0.9,0,1.5,0.2,2,0.6s0.7,0.9,0.7,1.6c0,0.5-0.1,0.9-0.4,1.2c-0.3,0.3-0.6,0.6-1,0.7C139.9,28.6,140.3,28.8,140.6,29.2z
				 M136.4,27.8h1.3c0.3,0,0.6-0.1,0.8-0.2c0.2-0.1,0.3-0.4,0.3-0.7s-0.1-0.5-0.3-0.7c-0.2-0.2-0.4-0.2-0.8-0.2h-1.3V27.8z
				 M138.7,30.9c0.2-0.2,0.3-0.4,0.3-0.7c0-0.3-0.1-0.5-0.3-0.7c-0.2-0.2-0.5-0.3-0.8-0.3h-1.5v1.9h1.5
				C138.3,31.2,138.5,31.1,138.7,30.9z"/>
			<path class="st2" d="M144.1,32.3c-0.7-0.4-1.2-0.9-1.6-1.5s-0.6-1.4-0.6-2.2c0-0.8,0.2-1.6,0.6-2.2s0.9-1.2,1.6-1.5
				c0.7-0.4,1.4-0.6,2.2-0.6s1.5,0.2,2.2,0.6c0.7,0.4,1.2,0.9,1.6,1.5c0.4,0.7,0.6,1.4,0.6,2.2c0,0.8-0.2,1.6-0.6,2.2
				c-0.4,0.7-0.9,1.2-1.6,1.5c-0.7,0.4-1.4,0.6-2.2,0.6S144.7,32.7,144.1,32.3z M147.9,30.3c0.4-0.4,0.6-1,0.6-1.8
				c0-0.7-0.2-1.3-0.6-1.8c-0.4-0.4-0.9-0.7-1.6-0.7c-0.7,0-1.2,0.2-1.6,0.7c-0.4,0.4-0.6,1-0.6,1.8c0,0.7,0.2,1.3,0.6,1.8
				s0.9,0.7,1.6,0.7C146.9,31,147.5,30.8,147.9,30.3z"/>
			<path class="st2" d="M159.2,32.8h-2.1l-3.4-5.2v5.2h-2.1v-8.4h2.1l3.4,5.2v-5.2h2.1V32.8z"/>
			<path class="st2" d="M162.8,24.4v8.4h-2.1v-8.4H162.8z"/>
			<path class="st2" d="M169.7,24.4V26h-3.4v1.8h2.6v1.6h-2.6v3.4h-2.1v-8.4H169.7z"/>
			<path class="st2" d="M172.9,24.4v8.4h-2.1v-8.4H172.9z"/>
			<path class="st2" d="M174.5,26.4c0.4-0.7,0.9-1.2,1.5-1.5c0.6-0.4,1.4-0.5,2.2-0.5c1,0,1.9,0.3,2.6,0.8c0.7,0.5,1.2,1.2,1.4,2.2
				H180c-0.2-0.4-0.4-0.6-0.7-0.8c-0.3-0.2-0.7-0.3-1.1-0.3c-0.6,0-1.1,0.2-1.5,0.7c-0.4,0.4-0.6,1-0.6,1.8c0,0.7,0.2,1.3,0.6,1.8
				c0.4,0.4,0.9,0.7,1.5,0.7c0.4,0,0.7-0.1,1.1-0.3c0.3-0.2,0.5-0.5,0.7-0.8h2.3c-0.2,0.9-0.7,1.6-1.4,2.2c-0.7,0.5-1.6,0.8-2.6,0.8
				c-0.8,0-1.5-0.2-2.2-0.5c-0.6-0.4-1.1-0.9-1.5-1.5c-0.4-0.6-0.5-1.4-0.5-2.2S174.2,27,174.5,26.4z"/>
			<path class="st2" d="M188.7,31.3h-3.1l-0.5,1.5h-2.1l3-8.4h2.4l3,8.4h-2.2L188.7,31.3z M188.2,29.7l-1-3.1l-1,3.1H188.2z"/>
			<path class="st2" d="M192.5,26.4c0.4-0.7,0.9-1.2,1.5-1.5c0.6-0.4,1.4-0.5,2.2-0.5c1,0,1.9,0.3,2.6,0.8c0.7,0.5,1.2,1.2,1.4,2.2
				H198c-0.2-0.4-0.4-0.6-0.7-0.8c-0.3-0.2-0.7-0.3-1.1-0.3c-0.6,0-1.1,0.2-1.5,0.7c-0.4,0.4-0.6,1-0.6,1.8c0,0.7,0.2,1.3,0.6,1.8
				c0.4,0.4,0.9,0.7,1.5,0.7c0.4,0,0.7-0.1,1.1-0.3c0.3-0.2,0.5-0.5,0.7-0.8h2.3c-0.2,0.9-0.7,1.6-1.4,2.2c-0.7,0.5-1.6,0.8-2.6,0.8
				c-0.8,0-1.5-0.2-2.2-0.5c-0.6-0.4-1.1-0.9-1.5-1.5c-0.4-0.6-0.5-1.4-0.5-2.2S192.2,27,192.5,26.4z"/>
			<path class="st2" d="M203.5,24.4v8.4h-2.1v-8.4H203.5z"/>
			<path class="st2" d="M206.8,32.3c-0.7-0.4-1.2-0.9-1.6-1.5c-0.4-0.7-0.6-1.4-0.6-2.2c0-0.8,0.2-1.6,0.6-2.2
				c0.4-0.7,0.9-1.2,1.6-1.5c0.7-0.4,1.4-0.6,2.2-0.6c0.8,0,1.5,0.2,2.2,0.6s1.2,0.9,1.6,1.5s0.6,1.4,0.6,2.2c0,0.8-0.2,1.6-0.6,2.2
				s-0.9,1.2-1.6,1.5c-0.7,0.4-1.4,0.6-2.2,0.6C208.2,32.9,207.5,32.7,206.8,32.3z M210.6,30.3c0.4-0.4,0.6-1,0.6-1.8
				c0-0.7-0.2-1.3-0.6-1.8c-0.4-0.4-0.9-0.7-1.6-0.7c-0.7,0-1.2,0.2-1.6,0.7c-0.4,0.4-0.6,1-0.6,1.8c0,0.7,0.2,1.3,0.6,1.8
				s0.9,0.7,1.6,0.7C209.7,31,210.2,30.8,210.6,30.3z M210.4,22.7l-2.9,1.2v-1.4l2.9-1.4V22.7z"/>
			<path class="st2" d="M222,32.8h-2.1l-3.4-5.2v5.2h-2.1v-8.4h2.1l3.4,5.2v-5.2h2.1V32.8z"/>
			<path class="st2" d="M228.1,26v1.7h2.7v1.6h-2.7v1.8h3.1v1.6H226v-8.4h5.2V26H228.1z"/>
			<path class="st2" d="M240.1,32.8H238l-3.4-5.2v5.2h-2.1v-8.4h2.1l3.4,5.2v-5.2h2.1V32.8z"/>
			<path class="st2" d="M250.1,24.4V26h-2.2v6.8h-2.1V26h-2.2v-1.6H250.1z"/>
			<path class="st2" d="M253.2,24.4v5c0,0.5,0.1,0.9,0.4,1.2c0.2,0.3,0.6,0.4,1.1,0.4c0.5,0,0.8-0.1,1.1-0.4
				c0.3-0.3,0.4-0.7,0.4-1.2v-5h2.1v5c0,0.8-0.2,1.4-0.5,1.9c-0.3,0.5-0.8,0.9-1.3,1.2c-0.5,0.3-1.1,0.4-1.8,0.4s-1.3-0.1-1.8-0.4
				c-0.5-0.3-0.9-0.7-1.2-1.2c-0.3-0.5-0.5-1.2-0.5-1.9v-5H253.2z"/>
		</g>
		<g class="st0">
			<path class="st2" d="M126.1,35.4v8.4h-2.1v-5.1l-1.9,5.1h-1.7l-1.9-5.1v5.1h-2.1v-8.4h2.4l2.4,5.8l2.3-5.8H126.1z"/>
			<path class="st2" d="M129.7,37v1.7h2.7v1.6h-2.7v1.8h3.1v1.6h-5.2v-8.4h5.2V37H129.7z"/>
			<path class="st2" d="M141.6,43.8h-2.1l-3.4-5.2v5.2h-2.1v-8.4h2.1l3.4,5.2v-5.2h2.1V43.8z"/>
			<path class="st2" d="M144.5,43.6c-0.5-0.2-0.9-0.5-1.2-0.9c-0.3-0.4-0.4-0.9-0.5-1.4h2.2c0,0.3,0.1,0.5,0.3,0.7
				c0.2,0.2,0.4,0.2,0.7,0.2c0.3,0,0.5-0.1,0.7-0.2c0.2-0.1,0.3-0.3,0.3-0.6c0-0.2-0.1-0.4-0.2-0.5c-0.1-0.1-0.3-0.2-0.5-0.3
				c-0.2-0.1-0.5-0.2-0.9-0.3c-0.5-0.2-1-0.3-1.3-0.5c-0.3-0.2-0.6-0.4-0.9-0.7s-0.4-0.8-0.4-1.3c0-0.8,0.3-1.4,0.9-1.8
				c0.6-0.4,1.3-0.7,2.2-0.7c0.9,0,1.7,0.2,2.2,0.7c0.6,0.4,0.9,1.1,0.9,1.9h-2.2c0-0.3-0.1-0.5-0.3-0.6s-0.4-0.2-0.7-0.2
				c-0.2,0-0.4,0.1-0.6,0.2c-0.2,0.1-0.2,0.3-0.2,0.6c0,0.3,0.1,0.5,0.4,0.6c0.3,0.2,0.7,0.3,1.2,0.5c0.5,0.2,1,0.4,1.3,0.5
				s0.6,0.4,0.9,0.7c0.2,0.3,0.4,0.7,0.4,1.2c0,0.5-0.1,0.9-0.4,1.3c-0.2,0.4-0.6,0.7-1.1,0.9c-0.5,0.2-1,0.3-1.6,0.3
				C145.6,43.9,145,43.8,144.5,43.6z"/>
			<path class="st2" d="M152.5,35.4v5c0,0.5,0.1,0.9,0.4,1.2c0.2,0.3,0.6,0.4,1.1,0.4s0.8-0.1,1.1-0.4c0.3-0.3,0.4-0.7,0.4-1.2v-5
				h2.1v5c0,0.8-0.2,1.4-0.5,1.9c-0.3,0.5-0.8,0.9-1.3,1.2c-0.5,0.3-1.1,0.4-1.8,0.4s-1.3-0.1-1.8-0.4s-0.9-0.7-1.2-1.2
				c-0.3-0.5-0.5-1.2-0.5-1.9v-5H152.5z"/>
			<path class="st2" d="M164.2,42.3h-3.1l-0.5,1.5h-2.1l3-8.4h2.4l3,8.4h-2.2L164.2,42.3z M163.7,40.7l-1-3.1l-1,3.1H163.7z"/>
			<path class="st2" d="M169.9,42.2h2.7v1.6h-4.7v-8.4h2.1V42.2z"/>
			<path class="st2" d="M175.6,35.4v8.4h-2.1v-8.4H175.6z"/>
			<path class="st2" d="M182.6,35.9c0.7,0.4,1.2,0.8,1.5,1.5c0.4,0.6,0.5,1.4,0.5,2.2c0,0.8-0.2,1.6-0.5,2.2
				c-0.4,0.6-0.9,1.1-1.5,1.5c-0.7,0.4-1.4,0.5-2.3,0.5h-3.2v-8.4h3.2C181.1,35.4,181.9,35.6,182.6,35.9z M181.9,41.4
				c0.4-0.4,0.6-1,0.6-1.8s-0.2-1.4-0.6-1.8c-0.4-0.4-1-0.6-1.8-0.6h-1V42h1C180.9,42,181.5,41.8,181.9,41.4z"/>
			<path class="st2" d="M191,42.3h-3.1l-0.5,1.5h-2.1l3-8.4h2.4l3,8.4h-2.2L191,42.3z M190.5,40.7l-1-3.1l-1,3.1H190.5z"/>
			<path class="st2" d="M200.1,35.9c0.7,0.4,1.2,0.8,1.5,1.5s0.5,1.4,0.5,2.2c0,0.8-0.2,1.6-0.5,2.2c-0.4,0.6-0.9,1.1-1.5,1.5
				c-0.7,0.4-1.4,0.5-2.3,0.5h-3.2v-8.4h3.2C198.7,35.4,199.5,35.6,200.1,35.9z M199.5,41.4c0.4-0.4,0.6-1,0.6-1.8s-0.2-1.4-0.6-1.8
				c-0.4-0.4-1-0.6-1.8-0.6h-1V42h1C198.4,42,199,41.8,199.5,41.4z"/>
			<path class="st2" d="M211.4,35.9c0.7,0.4,1.2,0.8,1.5,1.5s0.5,1.4,0.5,2.2c0,0.8-0.2,1.6-0.5,2.2c-0.4,0.6-0.9,1.1-1.5,1.5
				c-0.7,0.4-1.4,0.5-2.3,0.5h-3.2v-8.4h3.2C209.9,35.4,210.7,35.6,211.4,35.9z M210.7,41.4c0.4-0.4,0.6-1,0.6-1.8s-0.2-1.4-0.6-1.8
				c-0.4-0.4-1-0.6-1.8-0.6h-1V42h1C209.7,42,210.3,41.8,210.7,41.4z"/>
			<path class="st2" d="M216.7,35.4v8.4h-2.1v-8.4H216.7z"/>
			<path class="st2" d="M219.6,43.6c-0.5-0.2-0.9-0.5-1.2-0.9c-0.3-0.4-0.4-0.9-0.5-1.4h2.2c0,0.3,0.1,0.5,0.3,0.7
				c0.2,0.2,0.4,0.2,0.7,0.2c0.3,0,0.5-0.1,0.7-0.2c0.2-0.1,0.3-0.3,0.3-0.6c0-0.2-0.1-0.4-0.2-0.5c-0.1-0.1-0.3-0.2-0.5-0.3
				s-0.5-0.2-0.9-0.3c-0.5-0.2-1-0.3-1.3-0.5s-0.6-0.4-0.9-0.7s-0.4-0.8-0.4-1.3c0-0.8,0.3-1.4,0.9-1.8s1.3-0.7,2.2-0.7
				c0.9,0,1.7,0.2,2.2,0.7c0.6,0.4,0.9,1.1,0.9,1.9H222c0-0.3-0.1-0.5-0.3-0.6c-0.2-0.2-0.4-0.2-0.7-0.2c-0.2,0-0.4,0.1-0.6,0.2
				c-0.2,0.1-0.2,0.3-0.2,0.6c0,0.3,0.1,0.5,0.4,0.6c0.3,0.2,0.7,0.3,1.2,0.5c0.5,0.2,1,0.4,1.3,0.5s0.6,0.4,0.9,0.7
				c0.2,0.3,0.4,0.7,0.4,1.2c0,0.5-0.1,0.9-0.4,1.3c-0.2,0.4-0.6,0.7-1.1,0.9c-0.5,0.2-1,0.3-1.6,0.3
				C220.6,43.9,220,43.8,219.6,43.6z"/>
			<path class="st2" d="M232.8,35.4v8.4h-2.1v-3.5h-3.2v3.5h-2.1v-8.4h2.1v3.3h3.2v-3.3H232.8z"/>
		</g>
	</g>
	<g id="Rectángulo_160" transform="translate(-0.386)">
		<path class="st3" d="M39,0h213c21.5,0,39,17.5,39,39l0,0c0,21.5-17.5,39-39,39H39C17.5,78,0,60.5,0,39l0,0C0,17.5,17.5,0,39,0z"/>
		<path class="st4" d="M39,2h213c20.4,0,37,16.6,37,37l0,0c0,20.4-16.6,37-37,37H39C18.6,76,2,59.4,2,39l0,0C2,18.6,18.6,2,39,2z"/>
	</g>
</g>
</svg>
