<?xml version="1.0" encoding="utf-8"?>
<!-- Generator: Adobe Illustrator 24.3.0, SVG Export Plug-In . SVG Version: 6.00 Build 0)  -->
<svg version="1.1" id="_30días_rya" xmlns="http://www.w3.org/2000/svg" xmlns:xlink="http://www.w3.org/1999/xlink" x="0px"
	 y="0px" viewBox="0 0 291 78" style="enable-background:new 0 0 291 78;" xml:space="preserve">
<style type="text/css">
	.st0{fill:#FFFFFF;}
	.st1{fill-rule:evenodd;clip-rule:evenodd;fill:#FFFFFF;}
	.st2{enable-background:new    ;}
	.st3{fill:#F7E15B;}
	.st4{fill:none;}
	.st5{fill:none;stroke:#F7E15B;stroke-width:4;}
</style>
<g id="Grupo_1821" transform="translate(51.92 7.788)">
	<g id="Grupo_1729" transform="translate(0 26.825)">
		<g id="Grupo_65" transform="translate(13.461)">
			<g id="Grupo_63" transform="translate(89.502)">
				<g id="Grupo_62">
					<path id="Trazado_150" class="st0" d="M0.8,30.5c-0.2,0-0.4,0-0.6-0.2C0,30.2,0,30,0,29.7V8.3c0-0.2,0-0.5,0.2-0.6
						c0.2-0.1,0.4-0.2,0.6-0.2h2.3c0.4,0,0.8,0.3,0.9,0.7l0.2,0.8c0.7-0.6,1.5-1.1,2.3-1.5c0.9-0.4,1.8-0.5,2.8-0.5
						c1.9-0.1,3.7,0.8,4.9,2.3c1.3,1.8,1.9,4,1.8,6.2c0,1.6-0.3,3.2-0.9,4.6c-0.5,1.2-1.4,2.3-2.4,3.1c-1,0.7-2.3,1.1-3.5,1.1
						c-0.9,0-1.7-0.1-2.5-0.4c-0.7-0.2-1.4-0.6-2-1.2v7c0.1,0.4-0.1,0.7-0.5,0.8c-0.1,0-0.2,0-0.3,0L0.8,30.5z M7.8,20.7
						c1,0.1,2-0.4,2.6-1.2c0.7-1.2,0.9-2.5,0.8-3.8c0.1-1.3-0.2-2.7-0.8-3.9c-0.6-0.8-1.6-1.3-2.7-1.2c-1.1,0-2.2,0.3-3.1,0.9v8.4
						C5.6,20.5,6.7,20.8,7.8,20.7L7.8,20.7z"/>
					<path id="Trazado_151" class="st0" d="M20,23.9c-0.4,0.1-0.7-0.2-0.8-0.6c0-0.1,0-0.2,0-0.2V8.3c0-0.2,0-0.5,0.2-0.6
						c0.2-0.1,0.4-0.2,0.6-0.2h2.3c0.4,0,0.8,0.3,0.9,0.7l0.4,1.7c0.7-0.8,1.5-1.5,2.4-2c0.7-0.4,1.6-0.6,2.4-0.6h0.5
						c0.2,0,0.5,0,0.6,0.2c0.1,0.2,0.2,0.4,0.2,0.6v2.7c0,0.2,0,0.4-0.2,0.6c-0.2,0.1-0.4,0.2-0.6,0.2c-0.2,0-0.3,0-0.6,0
						s-0.5,0-0.9,0c-0.6,0-1.2,0.1-1.8,0.2c-0.6,0.1-1.2,0.3-1.8,0.5v10.8c0,0.2,0,0.4-0.2,0.6c-0.2,0.1-0.4,0.2-0.6,0.2H20z"/>
					<path id="Trazado_152" class="st0" d="M34.4,5c-0.7,0-1.4-0.2-2-0.7c-1-1-1-2.6,0-3.7c1.1-0.9,2.8-0.9,3.9,0c1,1,1,2.6,0,3.7
						C35.8,4.8,35.1,5,34.4,5z M32.8,23.9c-0.2,0-0.4,0-0.6-0.2c-0.1-0.2-0.2-0.4-0.2-0.6V8.3c0-0.2,0-0.5,0.2-0.6
						c0.2-0.1,0.4-0.2,0.6-0.2h3.1c0.2,0,0.4,0,0.6,0.2c0.1,0.2,0.2,0.4,0.2,0.6v14.8c0,0.2,0,0.4-0.2,0.6c-0.2,0.1-0.4,0.2-0.6,0.2
						H32.8z"/>
					<path id="Trazado_153" class="st0" d="M41.5,23.9c-0.2,0-0.4,0-0.6-0.2c-0.1-0.2-0.2-0.4-0.2-0.6V8.3c0-0.2,0-0.5,0.2-0.6
						c0.2-0.1,0.4-0.2,0.6-0.2h2.3c0.4,0,0.8,0.3,0.9,0.7l0.3,0.9c1-0.7,2-1.2,3.1-1.6C48.9,7.2,49.9,7,50.8,7
						c1.6-0.1,3.2,0.6,4.1,2.1c1-0.7,2-1.2,3.1-1.6c1-0.3,2-0.5,3-0.5c1.3-0.1,2.5,0.4,3.5,1.3c0.9,1,1.3,2.2,1.2,3.5v11.3
						c0,0.2,0,0.4-0.2,0.6c-0.2,0.1-0.4,0.2-0.6,0.2h-3.1c-0.2,0-0.4,0-0.6-0.2C61,23.6,61,23.3,61,23.1V12.8c0-1.5-0.7-2.2-2-2.2
						c-1.2,0-2.4,0.3-3.5,0.8v11.6c0,0.2,0,0.4-0.2,0.6c-0.2,0.1-0.4,0.2-0.6,0.2h-3.1c-0.4,0.1-0.7-0.2-0.8-0.6c0-0.1,0-0.2,0-0.2
						V12.8c0-1.5-0.7-2.2-2-2.2c-1.2,0-2.4,0.3-3.5,0.9v11.6c0,0.2,0,0.4-0.2,0.6c-0.2,0.1-0.4,0.2-0.6,0.2L41.5,23.9z"/>
					<path id="Trazado_154" class="st0" d="M76.8,24.4c-2.3,0.1-4.5-0.6-6.1-2.2c-1.5-1.7-2.3-4-2.1-6.3c-0.1-2.4,0.6-4.7,2.2-6.5
						c1.6-1.6,3.8-2.5,6.1-2.4c1.7-0.1,3.3,0.4,4.7,1.4c1.1,1,1.7,2.4,1.7,3.8c0.1,1.4-0.6,2.8-1.8,3.6c-1.6,0.9-3.5,1.4-5.3,1.2
						c-1.1,0-2.1-0.1-3.2-0.4c0,1.2,0.5,2.3,1.3,3.1c1,0.7,2.2,1,3.4,0.9c0.6,0,1.2,0,1.7-0.1c0.8-0.1,1.6-0.3,2.4-0.5
						c0.1,0,0.1,0,0.2,0c0.1,0,0.1,0,0.2,0c0.4,0,0.5,0.2,0.5,0.7v1.5c0,0.2,0,0.5-0.1,0.7c-0.1,0.2-0.3,0.3-0.6,0.4
						C80.2,24.1,78.5,24.4,76.8,24.4z M75.7,14.3c0.8,0.1,1.6-0.1,2.4-0.5c0.5-0.3,0.8-0.9,0.7-1.5c0-1.3-0.8-2-2.4-2
						c-2.1,0-3.2,1.3-3.6,3.8C73.8,14.3,74.8,14.3,75.7,14.3L75.7,14.3z"/>
				</g>
			</g>
			<g id="Grupo_64" transform="translate(0 24.627)">
				<path id="Trazado_155" class="st1" d="M45.9,5.2c-5.6,4.1-13.6,6.3-20.6,6.3c-9.3,0-18.2-3.4-25.1-9.6c-0.5-0.5-0.1-1.1,0.6-0.7
					c7.7,4.4,16.3,6.7,25.1,6.7c6.6,0,13.1-1.4,19.2-3.9C46,3.5,46.8,4.5,45.9,5.2L45.9,5.2z"/>
				<path id="Trazado_156" class="st1" d="M48.2,2.5c-0.7-0.9-4.7-0.4-6.5-0.2c-0.5,0.1-0.6-0.4-0.1-0.8c3.2-2.2,8.4-1.6,9-0.8
					s-0.2,6-3.1,8.5c-0.5,0.4-0.9,0.2-0.7-0.3C47.4,7.2,48.9,3.4,48.2,2.5L48.2,2.5z"/>
			</g>
		</g>
		<g id="Grupo_66" transform="translate(0 7.231)">
			<path id="Trazado_157" class="st1" d="M55.3,3.1V1c0-0.3,0.2-0.5,0.5-0.5c0,0,0,0,0,0h9.7c0.3,0,0.5,0.2,0.6,0.5c0,0,0,0,0,0v1.9
				c-0.1,0.5-0.4,1-0.7,1.4l-5,7.2c1.9-0.1,3.8,0.3,5.6,1.2c0.3,0.2,0.5,0.5,0.5,0.8v2.3c0,0.3-0.3,0.7-0.7,0.5
				c-3.2-1.7-7.1-1.7-10.3,0c-0.3,0.2-0.7-0.2-0.7-0.5v-2.2c0-0.5,0.1-1,0.4-1.5L61,3.7h-5.1C55.6,3.7,55.3,3.5,55.3,3.1
				C55.3,3.2,55.3,3.2,55.3,3.1L55.3,3.1z"/>
			<path id="Trazado_158" class="st1" d="M74.6,3.2c-2.2,0-2.3,3-2.3,4.8s0,5.8,2.3,5.8c2.3,0,2.4-3.2,2.4-5.1c0-1.4-0.1-2.7-0.4-4
				C76.3,3.8,75.5,3.2,74.6,3.2L74.6,3.2z M74.5,0.1c4.4,0,6.8,3.8,6.8,8.6c0,4.6-2.6,8.3-6.8,8.3c-4.3,0-6.7-3.8-6.7-8.5
				C67.9,3.8,70.2,0.1,74.5,0.1z"/>
			<path id="Trazado_159" class="st1" d="M50.5,16.7c-0.2,0.2-0.5,0.2-0.7,0.1c-0.7-0.6-1.3-1.2-1.7-2c-1.2,1.5-3,2.3-4.9,2.2
				c-2.5,0-4.4-1.5-4.4-4.6C38.7,10.2,40,8.3,42,7.5c1.8-0.6,3.7-0.9,5.6-1c0.1-0.9,0-1.7-0.4-2.5c-0.4-0.5-1-0.8-1.7-0.8
				c-1.1-0.1-2.1,0.7-2.4,1.7c-0.1,0.3-0.3,0.6-0.6,0.6l-2.8-0.3c-0.3,0-0.5-0.3-0.4-0.6c0,0,0,0,0,0C40,1.1,43.1,0,45.9,0
				c1.6-0.1,3.2,0.5,4.5,1.5c1.4,1.3,1.3,3.1,1.3,5.1v4.6c0,1,0.4,2,1.1,2.7c0.2,0.2,0.2,0.6,0,0.8c0,0,0,0,0,0
				C52.2,15.2,50.5,16.7,50.5,16.7L50.5,16.7z M47.5,9.5c0.1,1.1-0.1,2.2-0.6,3.1c-0.4,0.8-1.2,1.3-2,1.3c-1.1,0-1.8-0.9-1.8-2.1
				c0-2.5,2.3-3,4.4-3L47.5,9.5L47.5,9.5z"/>
			<path id="Trazado_160" class="st1" d="M11.7,16.7c-0.2,0.2-0.5,0.2-0.7,0.1c-0.7-0.6-1.3-1.2-1.7-2c-1.2,1.5-3,2.3-4.9,2.2
				c-2.5,0-4.4-1.5-4.4-4.6c-0.1-2.1,1.2-4.1,3.2-4.8c1.8-0.6,3.7-0.9,5.6-1c0.1-0.9,0-1.7-0.4-2.5C8,3.4,7.3,3.1,6.7,3.1
				C5.6,3.1,4.6,3.8,4.3,4.9C4.3,5.2,4,5.5,3.8,5.5L0.9,5.2c-0.3,0-0.5-0.3-0.4-0.6c0,0,0,0,0,0C1.2,1.1,4.3,0,7.1,0
				c1.6-0.1,3.2,0.5,4.5,1.5c1.4,1.3,1.3,3.1,1.3,5.1v4.6c0,1,0.4,2,1.1,2.7c0.2,0.2,0.2,0.6,0,0.8c0,0,0,0,0,0
				C13.4,15.2,11.7,16.7,11.7,16.7L11.7,16.7z M8.7,9.5c0.1,1.1-0.1,2.2-0.6,3.1c-0.4,0.8-1.2,1.3-2,1.3c-1.1,0-1.8-0.9-1.8-2.1
				c0-2.5,2.3-3,4.4-3L8.7,9.5L8.7,9.5z"/>
			<path id="Trazado_161" class="st1" d="M20.4,8.1c0-1.8-0.1-4.2,2-4.2c2.1,0,1.8,2.5,1.8,4.2v8.1c0,0.3,0.2,0.5,0.5,0.5h3
				c0.3,0,0.6-0.2,0.6-0.5c0,0,0,0,0,0V8.1c-0.1-1,0-2,0.3-2.9c0.3-0.7,1-1.2,1.8-1.2c0.8-0.1,1.6,0.5,1.7,1.3
				c0.1,0.9,0.1,1.9,0.1,2.8v8.1c0,0.3,0.2,0.5,0.5,0.5h3c0.3,0,0.6-0.2,0.6-0.5V6.6c0-1.6,0.2-3.5-0.7-4.8
				c-1.5-1.9-4.3-2.2-6.1-0.7C28.7,1.6,28.2,2.2,28,3c-0.8-1.9-2-2.8-3.8-2.8c-1.8-0.1-3.4,1.1-3.9,2.8h-0.1V1
				c0-0.3-0.2-0.6-0.6-0.6h-2.8c-0.3,0-0.6,0.2-0.6,0.6l0,0v15.1c0,0.3,0.2,0.6,0.6,0.6c0,0,0,0,0,0h3c0.3,0,0.6-0.2,0.6-0.6
				c0,0,0,0,0,0V8.1L20.4,8.1z"/>
			<path id="Trazado_162" class="st1" d="M87.6,16.2c0,0.3-0.2,0.6-0.5,0.6c0,0,0,0,0,0h-3c-0.3,0-0.6-0.2-0.6-0.6l0,0V1
				c0-0.3,0.2-0.6,0.6-0.6c0,0,0,0,0,0h2.7c0.3,0,0.5,0.2,0.6,0.4v2.3h0.1c0.8-2.1,2-3.1,4-3.1c1.4-0.1,2.7,0.6,3.5,1.8
				c0.8,1.2,0.8,3.3,0.8,4.7v9.6c0,0.3-0.3,0.5-0.6,0.5h-3c-0.3,0-0.5-0.2-0.5-0.5V7c0-3.1-1.2-3.2-1.9-3.2
				c-0.7,0.1-1.4,0.5-1.7,1.2C87.7,6,87.5,7,87.6,8L87.6,16.2L87.6,16.2z"/>
		</g>
	</g>
	<g class="st2">
		<path class="st3" d="M11,6.2c0.7-0.6,1.7-0.9,2.9-0.9c0.8,0,1.5,0.1,2.1,0.4c0.6,0.3,1,0.7,1.3,1.1c0.3,0.5,0.4,1,0.4,1.6
			c0,0.7-0.2,1.3-0.5,1.7c-0.4,0.4-0.8,0.7-1.2,0.9v0.1c0.6,0.2,1.1,0.5,1.4,1s0.5,1.1,0.5,1.8c0,0.7-0.2,1.2-0.5,1.8
			c-0.3,0.5-0.7,0.9-1.3,1.2c-0.6,0.3-1.3,0.4-2.1,0.4c-1.3,0-2.3-0.3-3.1-0.9c-0.8-0.6-1.2-1.6-1.2-2.8h2.7c0,0.5,0.1,0.8,0.4,1.1
			s0.6,0.4,1.1,0.4c0.4,0,0.7-0.1,1-0.4s0.3-0.6,0.3-1c0-0.5-0.2-0.9-0.5-1.1s-0.8-0.3-1.6-0.3h-0.5V10h0.5c0.5,0,1-0.1,1.3-0.3
			s0.5-0.5,0.5-1c0-0.4-0.1-0.7-0.3-0.9c-0.2-0.2-0.5-0.3-0.9-0.3c-0.4,0-0.7,0.1-0.9,0.4c-0.2,0.2-0.3,0.5-0.3,0.9H9.9
			C9.9,7.7,10.3,6.8,11,6.2z"/>
		<path class="st3" d="M20.5,6.9c0.7-1.1,1.9-1.6,3.4-1.6s2.7,0.5,3.4,1.6s1.1,2.5,1.1,4.3c0,1.9-0.4,3.3-1.1,4.4
			c-0.7,1.1-1.9,1.6-3.4,1.6s-2.7-0.5-3.4-1.6c-0.7-1.1-1.1-2.5-1.1-4.4C19.5,9.4,19.8,7.9,20.5,6.9z M25.4,8.7
			c-0.2-0.6-0.7-0.9-1.5-0.9c-0.7,0-1.2,0.3-1.5,0.9c-0.2,0.6-0.4,1.4-0.4,2.5c0,0.7,0,1.3,0.1,1.8c0.1,0.5,0.3,0.9,0.5,1.2
			c0.3,0.3,0.6,0.4,1.2,0.4c0.5,0,0.9-0.1,1.2-0.4c0.3-0.3,0.4-0.7,0.5-1.2s0.1-1.1,0.1-1.8C25.8,10.1,25.7,9.3,25.4,8.7z"/>
		<path class="st3" d="M40.9,6.7c0.9,0.5,1.6,1.1,2.1,2c0.5,0.8,0.7,1.8,0.7,2.9c0,1.1-0.2,2.1-0.7,2.9c-0.5,0.9-1.2,1.5-2.1,2
			C40,17,39,17.2,37.8,17.2h-4.2V6h4.2C39,6,40,6.2,40.9,6.7z M40,14c0.6-0.6,0.9-1.4,0.9-2.4c0-1-0.3-1.8-0.9-2.4s-1.4-0.9-2.4-0.9
			h-1.3v6.5h1.3C38.6,14.8,39.4,14.6,40,14z"/>
		<path class="st3" d="M48.4,3.7l-3.9,1.6V3.5l3.9-1.9V3.7z M47.9,6v11.2h-2.7V6H47.9z"/>
		<path class="st3" d="M56.9,15.2h-4.2l-0.7,2h-2.9L53.3,6h3.2l4.1,11.2h-2.9L56.9,15.2z M56.2,13.1L54.8,9l-1.4,4.1H56.2z"/>
		<path class="st3" d="M63.6,16.9c-0.7-0.3-1.2-0.7-1.6-1.2c-0.4-0.5-0.6-1.2-0.6-1.9h2.9c0,0.4,0.2,0.7,0.4,1
			c0.2,0.2,0.6,0.3,1,0.3c0.4,0,0.7-0.1,1-0.3c0.2-0.2,0.4-0.4,0.4-0.8c0-0.3-0.1-0.5-0.3-0.7c-0.2-0.2-0.4-0.3-0.7-0.4
			c-0.3-0.1-0.7-0.2-1.2-0.4c-0.7-0.2-1.3-0.4-1.8-0.7c-0.5-0.2-0.9-0.6-1.2-1c-0.3-0.4-0.5-1-0.5-1.7c0-1,0.4-1.9,1.1-2.5
			s1.7-0.9,3-0.9c1.2,0,2.2,0.3,3,0.9s1.2,1.4,1.2,2.5h-3c0-0.4-0.2-0.6-0.4-0.9C66.1,8.1,65.8,8,65.4,8c-0.3,0-0.6,0.1-0.8,0.3
			c-0.2,0.2-0.3,0.4-0.3,0.8c0,0.4,0.2,0.6,0.5,0.8c0.3,0.2,0.9,0.4,1.6,0.7c0.7,0.2,1.3,0.5,1.8,0.7c0.5,0.2,0.8,0.5,1.2,1
			s0.5,1,0.5,1.6c0,0.6-0.2,1.2-0.5,1.7c-0.3,0.5-0.8,0.9-1.4,1.2c-0.6,0.3-1.3,0.5-2.2,0.5C65,17.3,64.2,17.2,63.6,16.9z"/>
		<path class="st3" d="M82.3,6.7c0.9,0.5,1.6,1.1,2.1,2c0.5,0.8,0.7,1.8,0.7,2.9c0,1.1-0.2,2.1-0.7,2.9c-0.5,0.9-1.2,1.5-2.1,2
			c-0.9,0.5-1.9,0.7-3.1,0.7H75V6h4.2C80.3,6,81.4,6.2,82.3,6.7z M81.4,14c0.6-0.6,0.9-1.4,0.9-2.4c0-1-0.3-1.8-0.9-2.4
			S80,8.3,79,8.3h-1.3v6.5H79C80,14.8,80.8,14.6,81.4,14z"/>
		<path class="st3" d="M89.3,8.2v2.3H93v2.1h-3.7V15h4.1v2.2h-6.9V6h6.9v2.2H89.3z"/>
		<path class="st3" d="M98.9,8.6c0.5-0.9,1.1-1.5,2-2s1.8-0.7,2.9-0.7c1.3,0,2.5,0.4,3.4,1.1s1.6,1.7,1.9,2.9h-3
			c-0.2-0.5-0.5-0.8-1-1.1s-0.9-0.4-1.4-0.4c-0.8,0-1.5,0.3-2,0.9c-0.5,0.6-0.8,1.4-0.8,2.4s0.3,1.8,0.8,2.4c0.5,0.6,1.2,0.9,2,0.9
			c0.5,0,1-0.1,1.4-0.4c0.4-0.2,0.7-0.6,1-1.1h3c-0.3,1.2-1,2.2-1.9,2.9s-2.1,1-3.4,1c-1.1,0-2.1-0.2-2.9-0.7c-0.9-0.5-1.5-1.2-2-2
			s-0.7-1.9-0.7-3S98.4,9.5,98.9,8.6z"/>
		<path class="st3" d="M113.2,16.6c-0.9-0.5-1.6-1.2-2.1-2.1s-0.8-1.9-0.8-3c0-1.1,0.3-2.1,0.8-3c0.5-0.9,1.2-1.6,2.1-2
			c0.9-0.5,1.8-0.7,2.9-0.7c1.1,0,2,0.2,2.9,0.7c0.9,0.5,1.6,1.2,2.1,2c0.5,0.9,0.8,1.9,0.8,3c0,1.1-0.3,2.1-0.8,3
			c-0.5,0.9-1.2,1.6-2.1,2.1c-0.9,0.5-1.8,0.7-2.9,0.7C115.1,17.3,114.1,17.1,113.2,16.6z M118.3,13.9c0.5-0.6,0.8-1.4,0.8-2.4
			c0-1-0.3-1.8-0.8-2.4c-0.5-0.6-1.3-0.9-2.2-0.9c-0.9,0-1.6,0.3-2.2,0.9c-0.5,0.6-0.8,1.4-0.8,2.4c0,1,0.3,1.8,0.8,2.4
			c0.5,0.6,1.3,0.9,2.2,0.9C117,14.8,117.7,14.5,118.3,13.9z"/>
		<path class="st3" d="M129.1,17.2l-2.3-4.2h-0.7v4.2h-2.7V6h4.6c0.9,0,1.6,0.2,2.3,0.5c0.6,0.3,1.1,0.7,1.4,1.3
			c0.3,0.5,0.5,1.1,0.5,1.8c0,0.7-0.2,1.4-0.6,2c-0.4,0.6-1,1-1.9,1.2l2.6,4.4H129.1z M126.1,11h1.7c0.5,0,0.9-0.1,1.1-0.4
			s0.4-0.6,0.4-1c0-0.4-0.1-0.8-0.4-1s-0.6-0.4-1.1-0.4h-1.7V11z"/>
		<path class="st3" d="M141.9,6v2.2h-3v9h-2.7v-9h-3V6H141.9z"/>
		<path class="st3" d="M146,8.2v2.3h3.7v2.1H146V15h4.1v2.2h-6.9V6h6.9v2.2H146z"/>
		<path class="st3" d="M153.8,16.9c-0.7-0.3-1.2-0.7-1.6-1.2c-0.4-0.5-0.6-1.2-0.6-1.9h2.9c0,0.4,0.2,0.7,0.4,1
			c0.2,0.2,0.6,0.3,1,0.3c0.4,0,0.7-0.1,1-0.3c0.2-0.2,0.4-0.4,0.4-0.8c0-0.3-0.1-0.5-0.3-0.7c-0.2-0.2-0.4-0.3-0.7-0.4
			c-0.3-0.1-0.7-0.2-1.2-0.4c-0.7-0.2-1.3-0.4-1.8-0.7c-0.5-0.2-0.9-0.6-1.2-1c-0.3-0.4-0.5-1-0.5-1.7c0-1,0.4-1.9,1.1-2.5
			s1.7-0.9,3-0.9c1.2,0,2.2,0.3,3,0.9s1.2,1.4,1.2,2.5h-3c0-0.4-0.2-0.6-0.4-0.9C156.4,8.1,156,8,155.7,8c-0.3,0-0.6,0.1-0.8,0.3
			c-0.2,0.2-0.3,0.4-0.3,0.8c0,0.4,0.2,0.6,0.5,0.8c0.3,0.2,0.9,0.4,1.6,0.7c0.7,0.2,1.3,0.5,1.8,0.7c0.5,0.2,0.8,0.5,1.2,1
			c0.3,0.4,0.5,1,0.5,1.6c0,0.6-0.2,1.2-0.5,1.7s-0.8,0.9-1.4,1.2c-0.6,0.3-1.3,0.5-2.2,0.5C155.2,17.3,154.4,17.2,153.8,16.9z"/>
		<path class="st3" d="M165,3.7l-3.9,1.6V3.5l3.9-1.9V3.7z M164.5,6v11.2h-2.7V6H164.5z"/>
		<path class="st3" d="M173.5,15.2h-4.2l-0.7,2h-2.9L169.8,6h3.2l4.1,11.2h-2.9L173.5,15.2z M172.8,13.1L171.4,9l-1.4,4.1H172.8z"/>
	</g>
</g>
<g id="Rectángulo_161">
	<path class="st4" d="M39,0h213c21.5,0,39,17.5,39,39l0,0c0,21.5-17.5,39-39,39H39C17.5,78,0,60.5,0,39l0,0C0,17.5,17.5,0,39,0z"/>
	<path class="st5" d="M39,2h213c20.4,0,37,16.6,37,37l0,0c0,20.4-16.6,37-37,37H39C18.6,76,2,59.4,2,39l0,0C2,18.6,18.6,2,39,2z"/>
</g>
</svg>
