<svg xmlns="http://www.w3.org/2000/svg" width="291" height="78" viewBox="0 0 291 78"><defs><style>.a,.b{fill:#fff;}.b{fill-rule:evenodd;}.c{fill:#f7e15b;font-size:16px;font-family:Poppins-Bold, Poppins;font-weight:700;}.d,.f{fill:none;}.d{stroke:#f7e15b;stroke-width:4px;}.e{stroke:none;}</style></defs><g transform="translate(51.92 7.788)"><g transform="translate(0 26.825)"><g transform="translate(13.461)"><g transform="translate(89.502)"><path class="a" d="M89.341,1383.43a.882.882,0,0,1-.607-.178.822.822,0,0,1-.193-.626v-21.389a.821.821,0,0,1,.193-.626.882.882,0,0,1,.607-.177h2.309a.83.83,0,0,1,.9.7l.224.834A7.13,7.13,0,0,1,95.1,1360.5a7.453,7.453,0,0,1,2.775-.546,5.957,5.957,0,0,1,4.922,2.278,9.617,9.617,0,0,1,1.812,6.158,11.16,11.16,0,0,1-.9,4.649,7.26,7.26,0,0,1-2.435,3.063,6.01,6.01,0,0,1-3.53,1.073,7.439,7.439,0,0,1-2.5-.417,5.976,5.976,0,0,1-2.021-1.153v7.022a.668.668,0,0,1-.8.8Zm7.022-9.783a3,3,0,0,0,2.646-1.217,6.84,6.84,0,0,0,.849-3.849,7.034,7.034,0,0,0-.831-3.882,3,3,0,0,0-2.665-1.217,6.107,6.107,0,0,0-3.14.864v8.437A5.887,5.887,0,0,0,96.364,1373.647Z" transform="translate(-88.541 -1352.898)"/><path class="a" d="M95.6,1376.6a.69.69,0,0,1-.8-.8V1361.02a.82.82,0,0,1,.193-.625.881.881,0,0,1,.607-.178h2.309a.83.83,0,0,1,.9.7l.417,1.733a9.122,9.122,0,0,1,2.423-2,5.154,5.154,0,0,1,2.42-.595h.451a.931.931,0,0,1,.641.178.817.817,0,0,1,.193.623v2.7a.89.89,0,0,1-.178.61.821.821,0,0,1-.626.19c-.15,0-.34-.009-.577-.031s-.537-.03-.9-.03a9.431,9.431,0,0,0-1.8.208,8.7,8.7,0,0,0-1.794.527V1375.8a.889.889,0,0,1-.178.61.832.832,0,0,1-.626.19Z" transform="translate(-75.598 -1352.682)"/><path class="a" d="M101.56,1362.653a2.773,2.773,0,0,1-1.953-.675,2.63,2.63,0,0,1,0-3.656,3.182,3.182,0,0,1,3.91,0,2.63,2.63,0,0,1,0,3.656A2.78,2.78,0,0,1,101.56,1362.653Zm-1.539,18.921a.842.842,0,0,1-.607-.19.833.833,0,0,1-.193-.61V1365.99a.821.821,0,0,1,.193-.626.888.888,0,0,1,.607-.177H103.1a.878.878,0,0,1,.626.177.862.862,0,0,1,.178.626v14.784a.875.875,0,0,1-.178.61.833.833,0,0,1-.626.19Z" transform="translate(-67.199 -1357.652)"/><path class="a" d="M102.607,1376.821a.846.846,0,0,1-.61-.19.833.833,0,0,1-.193-.61v-14.784a.821.821,0,0,1,.193-.626.891.891,0,0,1,.61-.177h2.309a.831.831,0,0,1,.9.7l.255.868a13.9,13.9,0,0,1,3.063-1.589,8.642,8.642,0,0,1,2.806-.466,4.314,4.314,0,0,1,4.072,2.055,13.26,13.26,0,0,1,3.079-1.573,9.425,9.425,0,0,1,2.984-.482,4.675,4.675,0,0,1,3.481,1.251,4.767,4.767,0,0,1,1.233,3.5v11.322a.89.89,0,0,1-.175.61.843.843,0,0,1-.626.19h-3.079a.846.846,0,0,1-.61-.19.833.833,0,0,1-.193-.61v-10.295q0-2.18-1.956-2.18a8.107,8.107,0,0,0-3.5.834v11.641a.89.89,0,0,1-.175.61.833.833,0,0,1-.626.19h-3.079a.688.688,0,0,1-.8-.8v-10.295q0-2.18-1.956-2.18a7.828,7.828,0,0,0-3.53.865v11.61a.891.891,0,0,1-.175.61.843.843,0,0,1-.626.19Z" transform="translate(-61.132 -1352.898)"/><path class="a" d="M119.135,1377.3a8.154,8.154,0,0,1-6.109-2.18,8.572,8.572,0,0,1-2.134-6.253,9.311,9.311,0,0,1,2.18-6.544,7.825,7.825,0,0,1,6.063-2.374,6.941,6.941,0,0,1,4.667,1.444,4.816,4.816,0,0,1,1.684,3.848,4.118,4.118,0,0,1-1.812,3.64,9.48,9.48,0,0,1-5.339,1.236,12.729,12.729,0,0,1-3.177-.352,4.358,4.358,0,0,0,1.3,3.079,5.118,5.118,0,0,0,3.352.929,13.064,13.064,0,0,0,1.748-.114,21.066,21.066,0,0,0,2.355-.5,1.575,1.575,0,0,1,.193-.049,1.145,1.145,0,0,1,.159-.016c.365,0,.546.245.546.739v1.476a1.336,1.336,0,0,1-.144.72,1.143,1.143,0,0,1-.561.368A13.714,13.714,0,0,1,119.135,1377.3Zm-1.058-10.071a4.371,4.371,0,0,0,2.374-.5,1.707,1.707,0,0,0,.736-1.521q0-2.024-2.4-2.021-3.077,0-3.56,3.784A14.563,14.563,0,0,0,118.077,1367.232Z" transform="translate(-42.351 -1352.898)"/></g><g transform="translate(0 24.627)"><path class="b" d="M105.25,1370.161c-5.56,4.1-13.619,6.283-20.558,6.283a37.211,37.211,0,0,1-25.112-9.58c-.521-.469-.055-1.113.57-.748a50.539,50.539,0,0,0,25.128,6.667,50,50,0,0,0,19.166-3.922c.938-.4,1.727.62.807,1.3Z" transform="translate(-59.355 -1365.009)"/><path class="b" d="M79.762,1368.192c-.711-.908-4.7-.429-6.492-.214-.543.065-.629-.411-.138-.754,3.18-2.235,8.4-1.589,9-.84s-.159,5.983-3.14,8.476c-.46.383-.9.181-.693-.328.672-1.675,2.174-5.428,1.463-6.339Z" transform="translate(-31.551 -1365.683)"/></g></g><g transform="translate(0 7.231)"><path class="b" d="M73.374,1362.872V1360.7a.537.537,0,0,1,.549-.549h9.733a.541.541,0,0,1,.561.546v1.865a3.031,3.031,0,0,1-.733,1.367l-5.041,7.2A10.8,10.8,0,0,1,84,1372.317a.991.991,0,0,1,.515.846v2.319c0,.319-.35.69-.718.5a11.2,11.2,0,0,0-10.282.018c-.34.181-.693-.184-.693-.5v-2.2a2.62,2.62,0,0,1,.362-1.494l5.842-8.381H73.935a.539.539,0,0,1-.561-.546Z" transform="translate(-18.068 -1359.723)"/><path class="b" d="M83.787,1363.158c-2.183,0-2.321,2.974-2.321,4.83s-.028,5.82,2.294,5.82c2.294,0,2.4-3.2,2.4-5.149a14.078,14.078,0,0,0-.442-4.03,1.856,1.856,0,0,0-1.935-1.472Zm-.028-3.1c4.394,0,6.771,3.772,6.771,8.572,0,4.636-2.625,8.313-6.771,8.313-4.312,0-6.664-3.775-6.664-8.476,0-4.732,2.38-8.409,6.664-8.409Z" transform="translate(-9.23 -1359.911)"/><path class="b" d="M79.335,1376.683a.627.627,0,0,1-.7.07,7.667,7.667,0,0,1-1.7-1.974,5.871,5.871,0,0,1-4.882,2.152c-2.493,0-4.434-1.536-4.434-4.615a5.03,5.03,0,0,1,3.159-4.839,20.508,20.508,0,0,1,5.569-1.027,5.2,5.2,0,0,0-.362-2.53,2.073,2.073,0,0,0-1.659-.77,2.249,2.249,0,0,0-2.37,1.742c-.061.328-.3.6-.561.577l-2.834-.307a.524.524,0,0,1-.445-.619c.662-3.481,3.806-4.533,6.624-4.533a6.718,6.718,0,0,1,4.459,1.472c1.441,1.346,1.3,3.143,1.3,5.1v4.612a4.057,4.057,0,0,0,1.116,2.745.554.554,0,0,1-.009.785c-.6.509-2.278,1.96-2.278,1.96Zm-2.984-7.219a5.8,5.8,0,0,1-.555,3.14,2.4,2.4,0,0,1-2.048,1.347c-1.138,0-1.8-.865-1.8-2.147,0-2.52,2.26-2.98,4.4-2.98v.641Z" transform="translate(-28.804 -1360.01)"/><path class="b" d="M66.676,1376.683a.627.627,0,0,1-.7.07,7.667,7.667,0,0,1-1.7-1.974,5.871,5.871,0,0,1-4.882,2.152c-2.493,0-4.434-1.536-4.434-4.615a5.03,5.03,0,0,1,3.159-4.839,20.508,20.508,0,0,1,5.569-1.027,5.2,5.2,0,0,0-.362-2.53,2.074,2.074,0,0,0-1.662-.77,2.248,2.248,0,0,0-2.367,1.742c-.061.328-.3.6-.561.577l-2.834-.307a.524.524,0,0,1-.445-.619c.662-3.481,3.806-4.533,6.624-4.533a6.718,6.718,0,0,1,4.459,1.472c1.441,1.346,1.3,3.143,1.3,5.1v4.612a4.058,4.058,0,0,0,1.116,2.745.554.554,0,0,1-.009.785c-.6.509-2.278,1.96-2.278,1.96Zm-2.984-7.219a5.8,5.8,0,0,1-.555,3.14,2.4,2.4,0,0,1-2.048,1.347c-1.138,0-1.8-.865-1.8-2.147,0-2.52,2.26-2.98,4.4-2.98v.641Z" transform="translate(-54.965 -1360.01)"/><path class="b" d="M64.346,1368.019c0-1.757-.083-4.189,2.045-4.189,2.1,0,1.825,2.5,1.825,4.189l0,8.059a.557.557,0,0,0,.534.546h2.956a.559.559,0,0,0,.57-.549v-8.056a9.218,9.218,0,0,1,.276-2.91,1.967,1.967,0,0,1,1.769-1.245,1.543,1.543,0,0,1,1.742,1.309,19.494,19.494,0,0,1,.083,2.846l0,8.059a.554.554,0,0,0,.531.546h2.956a.562.562,0,0,0,.573-.549v-9.589c0-1.632.193-3.487-.745-4.766a4.376,4.376,0,0,0-7.519,1.15c-.828-1.917-1.99-2.812-3.842-2.812a3.908,3.908,0,0,0-3.9,2.812h-.055v-1.938a.554.554,0,0,0-.552-.555H60.838a.555.555,0,0,0-.555.555v15.136a.555.555,0,0,0,.555.555h2.956a.552.552,0,0,0,.552-.555v-8.05Z" transform="translate(-43.975 -1359.911)"/><path class="b" d="M86.262,1376.068a.552.552,0,0,1-.552.555H82.754a.555.555,0,0,1-.555-.555v-15.136a.555.555,0,0,1,.555-.555h2.732a.545.545,0,0,1,.555.432v2.318H86.1c.831-2.079,1.99-3.069,4.036-3.069a3.878,3.878,0,0,1,3.456,1.791c.776,1.214.776,3.26.776,4.732v9.564a.564.564,0,0,1-.57.478H90.825a.558.558,0,0,1-.524-.478l0-9.185c0-3.072-1.178-3.162-1.855-3.162a2.027,2.027,0,0,0-1.705,1.193,6.872,6.872,0,0,0-.481,2.9v8.175Z" transform="translate(1.316 -1359.911)"/></g></g><text class="c" transform="translate(9.08 17.212)"><tspan x="0" y="0">30 DÍAS DE CORTESÍA</tspan></text></g><g class="d"><rect class="e" width="291" height="78" rx="39"/><rect class="f" x="2" y="2" width="287" height="74" rx="37"/></g></svg>