<svg xmlns="http://www.w3.org/2000/svg" xmlns:xlink="http://www.w3.org/1999/xlink" width="115.094" height="187.131" viewBox="0 0 115.094 187.131"><defs><style>.a{fill:none;}.b,.e{fill:#fff;}.c{fill:url(#c);}.d{fill:#fdd462;}.e{opacity:0.3;}.f{fill:#f37e00;}.g{fill:#f7a219;}.h{fill:#fbe6a1;opacity:0.2;}.i{filter:url(#a);}</style><filter id="a" x="0" y="4.978" width="102.576" height="182.152" filterUnits="userSpaceOnUse"><feOffset dy="8" input="SourceAlpha"/><feGaussianBlur stdDeviation="3" result="b"/><feFlood flood-opacity="0.18"/><feComposite operator="in" in2="b"/><feComposite in="SourceGraphic"/></filter><linearGradient id="c" x1="0.5" y1="0.181" x2="0.5" y2="1.035" gradientUnits="objectBoundingBox"><stop offset="0" stop-color="#fd6e08"/><stop offset="1" stop-color="#fd3328"/></linearGradient></defs><g transform="translate(-1016 -2933.022)"><g transform="translate(-15 5)"><path class="a" d="M6.806.064,76.544,0c3.76,0,6.814,3.4,6.814,7.6l.106,144.065c0,4.2-3.043,7.607-6.806,7.61l-69.734.064c-3.763,0-6.814-3.4-6.817-7.6L0,7.675C0,3.475,3.046.068,6.806.064Z" transform="translate(1040 2928.022)"/><g class="i" transform="matrix(1, 0, 0, 1, 1031, 2928.02)"><path class="b" d="M71.157,164.152l-58.474-.257C5.649,163.867-.025,158.412,0,151.712L.62,12.084C.652,5.381,6.382-.028,13.42,0L71.893.257C78.927.286,84.6,5.741,84.576,12.44l-.62,139.628C83.928,158.775,78.194,164.184,71.157,164.152Z" transform="translate(9 5.98)"/></g><path class="c" d="M67.925.261,56.589.212a2.748,2.748,0,0,0-2.766,2.731L53.812,4.9A2.75,2.75,0,0,1,51.045,7.63l-22.1-.1A2.745,2.745,0,0,1,26.2,4.779l.011-1.956A2.754,2.754,0,0,0,23.477.067L19.488.046,9.568,0A8.725,8.725,0,0,0,.606,8.461L0,144.749a8.708,8.708,0,0,0,8.877,8.532l58.358.254a8.723,8.723,0,0,0,8.962-8.461L76.8,8.789A8.7,8.7,0,0,0,67.925.261Z" transform="translate(1044 2938.818)"/><g transform="translate(809.501 2254.337)"><path class="b" d="M295.589,793.986a7.219,7.219,0,0,0,.829-.26,4.559,4.559,0,0,0,3-3.668.6.6,0,0,1,.09-.551V763.664a2.092,2.092,0,0,1,0-2v-.949c-.164-.159-.122-.352-.094-.546a4.512,4.512,0,0,0-1.4-2.693q-3.577-3.574-7.15-7.15c-2.668-2.668-5.355-5.321-8-8.014a6.788,6.788,0,0,0-3.6-2.27H278.3a.6.6,0,0,1-.542.095,4.786,4.786,0,0,0-2.712,1.491q-4.593,4.607-9.2,9.206-4.21,4.21-8.415,8.427a1.052,1.052,0,0,1-.829.339q-3.107-.021-6.217,0a4.719,4.719,0,0,0-4.793,3.952.6.6,0,0,1-.092.546V790.14c.157.053.108.205.141.313a4.738,4.738,0,0,0,3.645,3.484c.083.018.177.007.224.1h45.879A.254.254,0,0,1,295.589,793.986Zm-2.23-36.43c.1-.1.173-.085.263,0q1,1,2,1.986c-1.426-.03-2.793.085-4.284.018C292.059,758.849,292.711,758.2,293.358,757.556Zm-6.512-2.433c.647-.645,1.3-1.286,1.936-1.94.168-.173.272-.205.456-.012.583.606,1.182,1.2,1.788,1.788.177.171.194.279.009.459q-2,1.984-3.989,3.984a.481.481,0,0,1-.359.185q-2.074,0-4.15,0l-.053-.12Q284.666,757.293,286.847,755.123Zm-16.392-4.429,6.857-6.857a1.611,1.611,0,0,1,2.565-.016q3.3,3.294,6.6,6.59c.233.23.27.353.014.6q-4.172,4.141-8.314,8.307a.765.765,0,0,1-.59.27q-7.849-.011-15.7-.007c-.065,0-.131-.014-.288-.03C264.595,756.554,267.523,753.623,270.454,750.694Zm24.012,40.183H250.592c-1.341,0-1.926-.583-1.926-1.919V764.648a1.652,1.652,0,0,1,1.9-1.9h43.872a1.652,1.652,0,0,1,1.9,1.9v24.365A1.638,1.638,0,0,1,294.467,790.877Z" transform="translate(0.004 0)"/><path class="b" d="M271.266,761.735l-.041.025h-.014a4.356,4.356,0,0,1-3.758,3.929l-.1,0-.2.055c1.283,0,2.567-.007,3.85.007.226,0,.272-.044.27-.27C271.259,764.23,271.266,762.984,271.266,761.735Z" transform="translate(28.242 28.299)"/><path class="b" d="M245.506,761.781c0,1.212.007,2.426-.007,3.638,0,.226.044.272.272.27,1.247-.014,2.5-.007,3.744-.007A4.479,4.479,0,0,1,245.506,761.781Z" transform="translate(0 28.359)"/><path class="b" d="M269.009,751.426v-2A4.072,4.072,0,0,0,269.009,751.426Z" transform="translate(30.498 12.239)"/><path class="b" d="M259.546,740.088c.164-.009.334.05.491-.051h-.528C259.534,740.055,259.546,740.074,259.546,740.088Z" transform="translate(18.272 0)"/><path class="b" d="M259.554,740.059l-.03,0a.087.087,0,0,1-.021.042.062.062,0,0,0,.044-.025Z" transform="translate(18.264 0.029)"/><path class="b" d="M268.972,749.308v-.528c-.021.023-.037.035-.053.032C268.937,748.978,268.866,749.151,268.972,749.308Z" transform="translate(30.536 11.403)"/><path class="b" d="M268.938,748.823V748.8l0-.019-.039-.014C268.909,748.8,268.922,748.82,268.938,748.823Z" transform="translate(30.516 11.392)"/><path class="b" d="M245.555,750.277a.075.075,0,0,1-.053-.032v.528C245.606,750.616,245.543,750.443,245.555,750.277Z" transform="translate(0.004 13.313)"/><path class="b" d="M245.527,750.251l0,.037c.016,0,.03-.019.039-.051l-.037.007Z" transform="translate(0.034 13.303)"/><path class="b" d="M268.921,762c.014,0,.03.007.051.03v-.528C268.871,761.663,268.93,761.838,268.921,762Z" transform="translate(30.536 28)"/><path class="b" d="M268.938,761.722c-.016,0-.03.018-.039.053l.035,0,0-.016Z" transform="translate(30.519 28.282)"/><path class="b" d="M256.2,751.733c-1.74-.016-3.477-.014-5.217,0a2.635,2.635,0,0,0-2.737,2.765c0,1.3,0,2.6,0,3.9a2.631,2.631,0,0,0,2.774,2.825c.843.014,1.687,0,2.53,0v0c.9,0,1.79.018,2.687,0a2.592,2.592,0,0,0,2.678-2.7q.017-2.029,0-4.058A2.611,2.611,0,0,0,256.2,751.733Zm-.786,6.328c-.615-.009-1.23,0-1.846,0s-1.23-.014-1.843,0c-.263.009-.327-.076-.323-.327q.024-1.265,0-2.53c0-.265.1-.318.339-.316q1.846.014,3.691,0c.26,0,.327.092.325.336-.011.843-.018,1.689,0,2.53C255.771,758.04,255.647,758.066,255.419,758.061Z" transform="translate(3.585 15.24)"/><path class="b" d="M255.168,758.65c-1.074.016-2.145.007-3.217.007-1.124,0-2.251.009-3.376-.009-.3,0-.383.085-.376.38.018.809.014,1.618,0,2.427,0,.251.035.375.336.373q3.346-.017,6.7,0c.279,0,.359-.085.355-.359-.016-.809-.025-1.618,0-2.426C255.606,758.69,255.465,758.646,255.168,758.65Z" transform="translate(3.523 24.273)"/><path class="b" d="M260.538,759.006c0-.274-.074-.359-.352-.357q-3.346.017-6.7,0c-.29,0-.348.1-.341.362.014.809.025,1.618,0,2.424-.014.359.136.394.431.392,1.071-.016,2.145-.007,3.217-.007,1.106,0,2.214-.009,3.32.007.3,0,.44-.046.429-.4C260.512,760.624,260.519,759.813,260.538,759.006Z" transform="translate(9.969 24.274)"/><path class="b" d="M265.48,759.033c.007-.293-.069-.389-.376-.385-1.106.018-2.214.009-3.32.009-1.09,0-2.18.016-3.27-.009-.359-.009-.435.11-.426.442q.035,1.161,0,2.32c-.009.316.069.422.406.419q3.294-.024,6.59,0c.343,0,.405-.117.4-.424C265.462,760.616,265.462,759.823,265.48,759.033Z" transform="translate(16.419 24.272)"/><path class="b" d="M269.98,758.649c-1.074.016-2.145.007-3.217.007h-3.323c-.205,0-.417-.053-.408.295.021.86.014,1.721,0,2.583,0,.244.1.29.316.29q3.373-.01,6.749,0c.263,0,.325-.09.323-.336-.014-.809-.028-1.618,0-2.424C270.441,758.693,270.3,758.642,269.98,758.649Z" transform="translate(22.868 24.274)"/></g></g><g transform="translate(1974 -7892)"><path class="d" d="M43.4,22.308A21.681,21.681,0,0,1,6.874,37.637q-.57-.536-1.1-1.111a21.775,21.775,0,0,1-3.807-5.715q-.284-.618-.527-1.253A21.73,21.73,0,0,1,.007,21.2c.007-.269.019-.538.038-.807A21.7,21.7,0,0,1,30.364,1.8q.722.315,1.415.68A21.76,21.76,0,0,1,37.2,6.527q.522.534,1.006,1.1A21.683,21.683,0,0,1,43.4,21.5C43.409,21.77,43.407,22.039,43.4,22.308Z" transform="translate(-886.312 10953.703)"/><path class="e" d="M31.963,5.264,5.405,30.79A21.462,21.462,0,0,1,0,28.617L30.145,0A21.629,21.629,0,0,1,31.963,5.264Z" transform="translate(-875.319 10965.766)"/><path class="e" d="M30.339.68.526,29.009Q.244,28.392,0,27.757L28.924,0Q29.646.315,30.339.68Z" transform="translate(-884.872 10955.504)"/><path class="e" d="M32.435,1.1,1.1,31.11Q.531,30.576,0,30L31.429,0Q31.951.534,32.435,1.1Z" transform="translate(-880.538 10960.228)"/><path class="f" d="M34.689,17.831c-.007.267-.021.533-.038.8A17.347,17.347,0,0,1,0,17.743c0-.265,0-.531,0-.8a17.347,17.347,0,1,1,34.683.886Z" transform="translate(-881.956 10958.071)"/><path class="g" d="M34.649,17.034A17.385,17.385,0,0,1,16.9,33.175c-.208-.006-.414-.016-.619-.028A17.233,17.233,0,0,1,5.549,28.531c-.362-.337-.708-.687-1.043-1.055a17.418,17.418,0,0,1-3.482-5.8C.836,21.164.673,20.634.536,20.1A17.268,17.268,0,0,1,0,16.149,17.345,17.345,0,0,1,21.175.438a16.676,16.676,0,0,1,1.661.47,17.321,17.321,0,0,1,5.941,3.449q.553.492,1.068,1.033a17.352,17.352,0,0,1,4.728,10.337C34.615,16.157,34.64,16.594,34.649,17.034Z" transform="translate(-881.953 10959.665)"/><path class="h" d="M24.141,5.562,5.852,22.982A17.194,17.194,0,0,1,0,21.576L22.651,0A17.3,17.3,0,0,1,24.141,5.562Z" transform="translate(-871.521 10969.829)"/><path class="h" d="M22.3.469.488,21.244C.3,20.727.137,20.2,0,19.659L20.639,0A16.748,16.748,0,0,1,22.3.469Z" transform="translate(-881.416 10960.101)"/><path class="h" d="M25.339,1.032,1.043,24.175Q.5,23.669,0,23.119L24.271,0Q24.824.492,25.339,1.032Z" transform="translate(-877.446 10964.019)"/><path class="f" d="M10.287,21.661l-.073,2.888-3.659-.094.07-2.757A15.268,15.268,0,0,1,0,19.706l2.086-4.424A12.452,12.452,0,0,0,8.04,17.1c1.739.044,2.371-.3,2.387-.928.058-2.29-10.034-.7-9.861-7.49C.641,5.742,2.832,3.325,7.1,2.836L7.176,0l3.659.093-.07,2.784a13.521,13.521,0,0,1,5.23,1.644l-1.956,4.4A11.2,11.2,0,0,0,9.012,7.44c-1.791-.046-2.375.46-2.391,1.085-.056,2.185,10.036.621,9.865,7.333C16.415,18.668,14.328,21.061,10.287,21.661Z" transform="translate(-872.734 10963.717)"/><path class="d" d="M10.288,21.661l-.074,2.888-3.66-.094.07-2.757A15.268,15.268,0,0,1,0,19.706l2.086-4.425A12.445,12.445,0,0,0,8.04,17.1c1.738.044,2.371-.3,2.387-.929.058-2.289-10.034-.7-9.861-7.489C.64,5.743,2.832,3.325,7.1,2.836L7.176,0l3.659.093-.07,2.784a13.521,13.521,0,0,1,5.23,1.644l-1.956,4.4A11.2,11.2,0,0,0,9.012,7.44c-1.791-.045-2.375.46-2.391,1.084-.055,2.186,10.036.621,9.866,7.333C16.416,18.667,14.329,21.061,10.288,21.661Z" transform="translate(-872.817 10962.756)"/></g><g transform="translate(1879 -7859)"><path class="g" d="M34.161,3.746v.047a2.309,2.309,0,0,1-.9,1.675,5.085,5.085,0,0,1-.473.378A9.583,9.583,0,0,1,31,6.821q-.229.1-.474.193c-.547.214-1.146.413-1.792.6-.155.045-.313.088-.474.131-.566.15-1.165.288-1.793.415-.156.031-.314.062-.474.092q-.864.161-1.793.292l-.473.064q-.873.113-1.793.2l-.474.04q-.879.072-1.793.114l-.473.02q-.884.033-1.793.038h-.474q-.909,0-1.793-.033l-.474-.019q-.672-.029-1.328-.074l-.465-.034c-.159-.012-.316-.026-.473-.04q-.919-.08-1.793-.189c-.159-.02-.317-.04-.474-.062Q9.568,8.487,9.033,8.4q-.356-.059-.7-.121c-.159-.029-.317-.06-.473-.09q-.94-.185-1.794-.4L5.731,7.7l-.14-.039c-.256-.071-.506-.145-.748-.221q-.549-.172-1.045-.36c-.163-.061-.32-.124-.474-.187a10.935,10.935,0,0,1-1.59-.8c-.069-.043-.137-.087-.2-.131-.082-.055-.161-.111-.236-.166s-.162-.123-.237-.185A2.435,2.435,0,0,1,0,3.793c0-.044,0-.089.007-.134V.051H1.531l1.794,0H3.8l1.4,0h.394l.474,0,1.793,0h.474l1.793,0H10.6l1.793,0h.473l1.793,0h.474l1.793,0,.474,0,1.793,0h.473l1.793,0h.474l1.793,0H24.2l1.793,0h.474l1.793,0h.59l1.677,0H31L32.79,0h1.365l.007,3.745h0Z" transform="translate(-861.483 10958.728)"/><path class="f" d="M.737,0V5.907C.654,5.852.575,5.8.5,5.741S.338,5.618.263,5.556V0Z" transform="translate(-860.688 10958.777)"/><path class="f" d="M.737,0V7.031Q.494,6.938.264,6.844V0Z" transform="translate(-858.422 10958.773)"/><path class="f" d="M.737,0V7.741L.4,7.653.263,7.614V0Z" transform="translate(-856.155 10958.77)"/><path class="f" d="M.737,0V8.238L.264,8.149V0Z" transform="translate(-853.888 10958.767)"/><path class="f" d="M.737,0V8.589c-.159-.02-.317-.04-.474-.062V0Z" transform="translate(-851.622 10958.763)"/><path class="f" d="M.737,0V8.822C.578,8.81.421,8.8.264,8.783V0Z" transform="translate(-849.355 10958.76)"/><path class="f" d="M.737,0V8.952L.263,8.933V0Z" transform="translate(-847.089 10958.757)"/><path class="f" d="M.737,0V8.988H.263V0Z" transform="translate(-844.822 10958.753)"/><path class="f" d="M.737,0V8.933l-.473.02V0Z" transform="translate(-842.556 10958.75)"/><path class="f" d="M.737,0V8.782l-.474.041V0Z" transform="translate(-840.289 10958.746)"/><path class="f" d="M.737,0V8.525c-.157.023-.314.044-.473.065V0Z" transform="translate(-838.022 10958.743)"/><path class="f" d="M.737,0V8.145c-.156.031-.313.062-.473.091V0Z" transform="translate(-835.756 10958.739)"/><path class="f" d="M.737,0V7.6c-.155.045-.313.088-.474.131V0Z" transform="translate(-833.489 10958.737)"/><path class="f" d="M.737,0V6.815q-.229.1-.473.193V0Z" transform="translate(-831.223 10958.733)"/><path class="f" d="M.737,0V5.466a5.085,5.085,0,0,1-.473.378V0Z" transform="translate(-828.957 10958.729)"/><path class="d" d="M34.151,4.8c0,2.65-7.643,4.8-17.075,4.8-1.289,0-2.544-.04-3.751-.116-1.518-.1-2.959-.248-4.3-.449-1.192-.179-2.3-.4-3.3-.648-.307-.076-.6-.156-.888-.238a14.409,14.409,0,0,1-3.109-1.24c-.156-.089-.3-.18-.439-.273A2.4,2.4,0,0,1,0,4.8a1.068,1.068,0,0,1,.014-.178C.345,2.053,7.858,0,17.076,0a56.954,56.954,0,0,1,6.413.35q.573.066,1.126.142a34.952,34.952,0,0,1,4.347.862q.42.116.813.237a14.286,14.286,0,0,1,2.392.961A5.085,5.085,0,0,1,33.7,3.7a1.818,1.818,0,0,1,.435.918A1.185,1.185,0,0,1,34.151,4.8Z" transform="translate(-861.478 10953.976)"/><path class="e" d="M24.672,1.151,4.3,6.929c-1.518-.095-2.96-.248-4.3-.448L23.137,0A5.067,5.067,0,0,1,24.672,1.151Z" transform="translate(-852.446 10956.529)"/><path class="e" d="M23.32.142.439,6.557c-.157-.089-.3-.18-.439-.273L22.194,0Q22.768.066,23.32.142Z" transform="translate(-860.182 10954.325)"/><path class="e" d="M24.933.237.888,7.031C.582,6.955.286,6.875,0,6.793L24.12,0Q24.541.114,24.933.237Z" transform="translate(-856.635 10955.33)"/><path class="f" d="M27.3,3.836a1.3,1.3,0,0,1-.013.176c-.329,2.034-6.318,3.659-13.634,3.659S.343,6.045.013,4.012A1.488,1.488,0,0,1,0,3.836C0,1.721,6.122,0,13.648,0S27.3,1.721,27.3,3.836Z" transform="translate(-858.048 10954.939)"/><path class="g" d="M27.269,3.66c-.329,2.034-6.318,3.659-13.634,3.659l-.488,0a45.045,45.045,0,0,1-4.631-.278,30.87,30.87,0,0,1-3.9-.68q-.436-.108-.841-.227A9.7,9.7,0,0,1,.916,4.874,3.392,3.392,0,0,1,.5,4.528,1.609,1.609,0,0,1,0,3.66C.329,1.627,6.318,0,13.634,0c.926,0,1.83.026,2.706.076.446.025.886.057,1.316.094A33.773,33.773,0,0,1,22.4.9c.3.071.585.144.861.222A11.813,11.813,0,0,1,25.9,2.154a2.893,2.893,0,0,1,1.283,1.218A1.173,1.173,0,0,1,27.269,3.66Z" transform="translate(-858.035 10955.292)"/><path class="h" d="M18.667,1.219,4.631,5.163A44.758,44.758,0,0,1,0,4.886L17.384,0A2.9,2.9,0,0,1,18.667,1.219Z" transform="translate(-849.519 10957.445)"/><path class="h" d="M17.156.094.416,4.8A3.321,3.321,0,0,1,0,4.452L15.84,0C16.286.025,16.726.057,17.156.094Z" transform="translate(-857.535 10955.367)"/><path class="h" d="M19.488.221.842,5.461C.551,5.389.271,5.314,0,5.235L18.628,0Q19.073.1,19.488.221Z" transform="translate(-854.265 10956.19)"/><path class="f" d="M8.13,4.759V5.4H5.25V4.788A37.916,37.916,0,0,1,0,4.386L1.553,3.4a31.015,31.015,0,0,0,4.718.367c1.369,0,1.859-.08,1.859-.218,0-.505-7.905-.1-7.905-1.6C.225,1.3,1.9.758,5.25.626V0H8.13V.614a33.572,33.572,0,0,1,4.147.333l-1.45.982a28.266,28.266,0,0,0-3.983-.3c-1.41,0-1.859.115-1.859.253,0,.482,7.905.08,7.905,1.561C12.89,4.065,11.3,4.6,8.13,4.759Z" transform="translate(-850.633 10956.192)"/><path class="d" d="M8.131,4.759V5.4H5.25V4.788A37.929,37.929,0,0,1,0,4.386L1.553,3.4a31.157,31.157,0,0,0,4.719.367c1.369,0,1.859-.081,1.859-.218,0-.506-7.906-.1-7.906-1.6C.225,1.3,1.9.757,5.251.625V0h2.88V.614a33.6,33.6,0,0,1,4.147.333l-1.451.982a28.255,28.255,0,0,0-3.983-.3c-1.409,0-1.859.115-1.859.253,0,.482,7.906.08,7.906,1.561C12.89,4.064,11.3,4.6,8.131,4.759Z" transform="translate(-850.717 10955.981)"/><path class="g" d="M34.16,3.746c0,.016,0,.032,0,.048a2.307,2.307,0,0,1-.9,1.674,5.424,5.424,0,0,1-.474.379A9.641,9.641,0,0,1,31,6.822c-.153.065-.311.13-.473.193-.547.213-1.147.413-1.793.6-.155.044-.313.088-.474.13-.566.15-1.165.289-1.793.415-.156.032-.314.062-.473.092q-.864.162-1.794.292l-.473.064q-.873.113-1.793.2c-.157.014-.315.028-.474.04q-.879.072-1.793.114l-.473.02q-.884.033-1.793.038h-.473q-.909,0-1.794-.033l-.473-.019q-.673-.029-1.329-.074l-.465-.034c-.158-.012-.316-.025-.473-.039-.612-.054-1.211-.117-1.793-.19l-.473-.062Q9.568,8.487,9.033,8.4q-.356-.059-.7-.121c-.159-.029-.318-.06-.474-.09-.627-.123-1.226-.259-1.793-.4L5.731,7.7l-.14-.039c-.257-.071-.507-.145-.748-.221q-.549-.172-1.046-.36c-.162-.061-.32-.124-.473-.187a10.836,10.836,0,0,1-1.59-.8c-.07-.043-.138-.087-.2-.131-.082-.055-.162-.111-.237-.166s-.161-.123-.236-.185A2.435,2.435,0,0,1,0,3.793c0-.044,0-.089.006-.134l0-3.608H1.531l1.793,0H3.8l1.4,0h.867l1.793,0h.474l1.793,0H10.6l1.793,0h.473l1.793,0h.474l1.793,0H17.4l1.793,0h.473l1.793,0h.474l1.793,0H24.2l1.794,0h.473l1.793,0h.59l1.677,0H31l1.793,0h1.365l.006,3.745h0Z" transform="translate(-860.409 10952.807)"/><path class="f" d="M.737,0V5.907C.655,5.852.576,5.8.5,5.741S.338,5.618.264,5.556V0Z" transform="translate(-859.615 10952.857)"/><path class="f" d="M.737,0V7.03Q.493,6.937.263,6.843V0Z" transform="translate(-857.348 10952.855)"/><path class="f" d="M.737,0V7.742L.4,7.654l-.14-.039V0Z" transform="translate(-855.082 10952.85)"/><path class="f" d="M.737,0V8.239Q.5,8.2.263,8.149V0Z" transform="translate(-852.815 10952.847)"/><path class="f" d="M.737,0V8.589L.264,8.527V0Z" transform="translate(-850.548 10952.844)"/><path class="f" d="M.737,0V8.822C.578,8.81.421,8.8.263,8.783V0Z" transform="translate(-848.282 10952.84)"/><path class="f" d="M.737,0V8.952C.578,8.947.421,8.94.264,8.934V0Z" transform="translate(-846.016 10952.837)"/><path class="f" d="M.737,0V8.988H.264V0Z" transform="translate(-843.749 10952.834)"/><path class="f" d="M.737,0V8.932c-.157.008-.315.015-.474.02V0Z" transform="translate(-841.482 10952.831)"/><path class="f" d="M.737,0V8.782C.58,8.8.421,8.81.264,8.822V0Z" transform="translate(-839.216 10952.827)"/><path class="f" d="M.737,0V8.526L.264,8.59V0Z" transform="translate(-836.949 10952.824)"/><path class="f" d="M.737,0V8.145c-.156.031-.313.062-.473.092V0Z" transform="translate(-834.682 10952.82)"/><path class="f" d="M.737,0V7.6c-.155.044-.312.088-.473.13V0Z" transform="translate(-832.416 10952.816)"/><path class="f" d="M.737,0V6.815q-.229.1-.474.193V0Z" transform="translate(-830.149 10952.814)"/><path class="f" d="M.737,0V5.465a5.085,5.085,0,0,1-.473.378V0Z" transform="translate(-827.883 10952.811)"/><path class="d" d="M34.15,4.8c0,2.651-7.643,4.8-17.075,4.8-1.289,0-2.544-.04-3.751-.116-1.517-.1-2.959-.248-4.294-.449-1.192-.179-2.3-.4-3.3-.648-.306-.076-.6-.156-.888-.238A14.432,14.432,0,0,1,1.733,6.908q-.236-.135-.44-.273A2.4,2.4,0,0,1,0,4.8a1.194,1.194,0,0,1,.013-.178C.345,2.053,7.857,0,17.075,0a57.177,57.177,0,0,1,6.413.35q.574.066,1.127.143a34.8,34.8,0,0,1,4.346.861q.422.116.813.238a14.214,14.214,0,0,1,2.393.961A5.079,5.079,0,0,1,33.7,3.7a1.8,1.8,0,0,1,.435.917A1.074,1.074,0,0,1,34.15,4.8Z" transform="translate(-860.404 10948.055)"/><path class="e" d="M24.673,1.151,4.3,6.929C2.777,6.834,1.336,6.681,0,6.481L23.137,0A5.085,5.085,0,0,1,24.673,1.151Z" transform="translate(-851.373 10950.608)"/><path class="e" d="M23.321.142.439,6.558c-.157-.09-.3-.181-.439-.274L22.195,0Q22.768.066,23.321.142Z" transform="translate(-859.109 10948.404)"/><path class="e" d="M24.933.238.888,7.032C.582,6.955.286,6.876,0,6.793L24.12,0Q24.541.115,24.933.238Z" transform="translate(-855.562 10949.409)"/><path class="f" d="M27.3,3.835a1.291,1.291,0,0,1-.013.176c-.329,2.034-6.318,3.66-13.634,3.66S.343,6.045.014,4.011A1.292,1.292,0,0,1,0,3.835C0,1.72,6.122,0,13.648,0S27.3,1.72,27.3,3.835Z" transform="translate(-856.975 10949.02)"/><path class="g" d="M27.269,3.66c-.33,2.033-6.318,3.659-13.634,3.659-.164,0-.326,0-.488,0a44.758,44.758,0,0,1-4.631-.277,30.806,30.806,0,0,1-3.9-.68c-.291-.072-.571-.148-.842-.227A9.7,9.7,0,0,1,.916,4.874,3.308,3.308,0,0,1,.5,4.527,1.6,1.6,0,0,1,0,3.66C.329,1.626,6.318,0,13.634,0c.926,0,1.83.026,2.706.075.446.026.886.057,1.316.095A33.482,33.482,0,0,1,22.4.9q.445.1.86.222A11.765,11.765,0,0,1,25.9,2.154a2.9,2.9,0,0,1,1.284,1.218A1.131,1.131,0,0,1,27.269,3.66Z" transform="translate(-856.962 10949.371)"/><path class="h" d="M18.667,1.219,4.631,5.163A44.758,44.758,0,0,1,0,4.886L17.384,0A2.9,2.9,0,0,1,18.667,1.219Z" transform="translate(-848.446 10951.525)"/><path class="h" d="M17.155.094.415,4.8A3.4,3.4,0,0,1,0,4.452L15.839,0C16.285.025,16.725.057,17.155.094Z" transform="translate(-856.461 10949.446)"/><path class="h" d="M19.489.221.842,5.462C.551,5.389.271,5.314,0,5.235L18.628,0C18.925.07,19.213.143,19.489.221Z" transform="translate(-853.192 10950.269)"/><path class="f" d="M8.131,4.76V5.4H5.25V4.789A38.245,38.245,0,0,1,0,4.387L1.553,3.4a31.024,31.024,0,0,0,4.719.368c1.369,0,1.859-.081,1.859-.219,0-.505-7.906-.1-7.906-1.6C.225,1.3,1.9.758,5.251.626V0h2.88V.615a33.8,33.8,0,0,1,4.147.332l-1.451.982a28.255,28.255,0,0,0-3.983-.3c-1.409,0-1.859.115-1.859.253,0,.482,7.905.08,7.905,1.561C12.89,4.065,11.3,4.605,8.131,4.76Z" transform="translate(-849.56 10950.27)"/><path class="d" d="M8.13,4.76V5.4H5.25V4.788A38.1,38.1,0,0,1,0,4.387L1.553,3.4a31.028,31.028,0,0,0,4.719.367c1.368,0,1.859-.08,1.859-.218,0-.505-7.906-.1-7.906-1.6C.225,1.3,1.9.758,5.25.626V0H8.131V.614a33.965,33.965,0,0,1,4.146.333l-1.45.982a28.248,28.248,0,0,0-3.983-.3c-1.409,0-1.859.114-1.859.252,0,.482,7.905.081,7.905,1.562C12.89,4.065,11.3,4.605,8.13,4.76Z" transform="translate(-849.644 10950.058)"/><path class="g" d="M34.161,3.746v.047a2.309,2.309,0,0,1-.9,1.675,5.085,5.085,0,0,1-.473.378A9.583,9.583,0,0,1,31,6.821q-.229.1-.474.193c-.547.214-1.147.413-1.793.6-.155.044-.312.088-.473.131q-.849.225-1.794.415c-.156.031-.313.062-.473.092q-.864.161-1.793.292l-.473.064q-.875.113-1.794.2l-.473.04q-.879.072-1.793.114l-.473.02q-.884.033-1.794.038h-.473q-.909,0-1.794-.033l-.473-.019q-.672-.029-1.328-.074l-.465-.034c-.159-.012-.316-.026-.473-.04q-.919-.08-1.793-.189c-.16-.02-.317-.041-.474-.063Q9.568,8.487,9.033,8.4q-.356-.059-.7-.121c-.159-.029-.317-.06-.473-.09-.627-.123-1.227-.259-1.794-.4L5.732,7.7l-.141-.039c-.256-.071-.506-.145-.748-.221q-.549-.172-1.045-.36c-.163-.061-.32-.124-.474-.187a10.987,10.987,0,0,1-1.59-.8c-.069-.043-.137-.087-.2-.131-.082-.055-.161-.111-.236-.166s-.162-.123-.237-.185A2.435,2.435,0,0,1,0,3.793a1.2,1.2,0,0,1,.007-.134V.051H1.531l1.794,0H3.8l1.4,0h.867l1.793,0h.474l1.792,0H10.6l1.793,0h.473l1.793,0h.474l1.793,0H17.4l1.793,0h.473l1.793,0h.474l1.793,0H24.2l1.793,0h.474l1.793,0h.59l1.677,0H31L32.79,0h.474l.891,0,.007,3.745h0Z" transform="translate(-860.566 10946.888)"/><path class="f" d="M.737,0V5.907C.655,5.852.576,5.8.5,5.741S.338,5.618.264,5.556V0Z" transform="translate(-859.771 10946.937)"/><path class="f" d="M.737,0V7.03Q.494,6.937.264,6.843V0Z" transform="translate(-857.505 10946.935)"/><path class="f" d="M.737,0V7.742L.4,7.654l-.14-.039V0Z" transform="translate(-855.239 10946.93)"/><path class="f" d="M.737,0V8.239C.577,8.21.419,8.18.264,8.149V0Z" transform="translate(-852.971 10946.927)"/><path class="f" d="M.737,0V8.59L.263,8.528V0Z" transform="translate(-850.705 10946.923)"/><path class="f" d="M.737,0V8.822C.578,8.81.421,8.8.264,8.783V0Z" transform="translate(-848.438 10946.92)"/><path class="f" d="M.737,0V8.952L.263,8.933V0Z" transform="translate(-846.172 10946.918)"/><path class="f" d="M.737,0V8.988H.263V0Z" transform="translate(-843.905 10946.914)"/><path class="f" d="M.737,0V8.932c-.157.008-.314.014-.473.02V0Z" transform="translate(-841.638 10946.911)"/><path class="f" d="M.737,0V8.782l-.473.041V0Z" transform="translate(-839.372 10946.907)"/><path class="f" d="M.737,0V8.526L.264,8.59V0Z" transform="translate(-837.105 10946.904)"/><path class="f" d="M.737,0V8.145c-.156.031-.313.062-.473.092V0Z" transform="translate(-834.839 10946.9)"/><path class="f" d="M.737,0V7.6c-.155.044-.313.088-.474.13V0Z" transform="translate(-832.572 10946.897)"/><path class="f" d="M.737,0V6.815q-.229.1-.473.193V0Z" transform="translate(-830.306 10946.894)"/><path class="f" d="M.737,0V5.465a5.238,5.238,0,0,1-.474.378V0Z" transform="translate(-828.039 10946.891)"/><path class="d" d="M34.151,4.8c0,2.651-7.644,4.8-17.076,4.8-1.288,0-2.543-.04-3.75-.116-1.518-.1-2.96-.248-4.3-.449-1.192-.179-2.3-.4-3.3-.648-.306-.076-.6-.156-.888-.238A14.474,14.474,0,0,1,1.733,6.908c-.156-.09-.3-.181-.439-.273A2.4,2.4,0,0,1,0,4.8a1.076,1.076,0,0,1,.014-.178C.345,2.053,7.857,0,17.075,0a57.2,57.2,0,0,1,6.414.35q.573.066,1.126.143a34.762,34.762,0,0,1,4.346.861q.422.116.814.237a14.282,14.282,0,0,1,2.392.962A5.094,5.094,0,0,1,33.7,3.7a1.81,1.81,0,0,1,.435.918A1.076,1.076,0,0,1,34.151,4.8Z" transform="translate(-860.56 10942.135)"/><path class="e" d="M24.672,1.151,4.294,6.93C2.776,6.835,1.335,6.682,0,6.481L23.137,0A5.079,5.079,0,0,1,24.672,1.151Z" transform="translate(-851.529 10944.686)"/><path class="e" d="M23.321.142.44,6.557Q.2,6.423,0,6.284L22.195,0Q22.769.066,23.321.142Z" transform="translate(-859.266 10942.484)"/><path class="e" d="M24.933.237.888,7.031C.582,6.955.285,6.875,0,6.793L24.12,0Q24.54.114,24.933.237Z" transform="translate(-855.718 10943.489)"/><path class="f" d="M27.3,3.836a1.473,1.473,0,0,1-.013.176c-.33,2.034-6.319,3.66-13.635,3.66S.342,6.046.013,4.012A1.291,1.291,0,0,1,0,3.836C0,1.721,6.122,0,13.648,0S27.3,1.721,27.3,3.836Z" transform="translate(-857.131 10943.099)"/><path class="g" d="M27.268,3.66c-.329,2.033-6.318,3.659-13.634,3.659-.164,0-.326,0-.487,0a44.481,44.481,0,0,1-4.631-.277,30.806,30.806,0,0,1-3.9-.68c-.291-.072-.571-.148-.842-.227A9.7,9.7,0,0,1,.916,4.874,3.25,3.25,0,0,1,.5,4.527,1.607,1.607,0,0,1,0,3.66C.329,1.626,6.318,0,13.634,0c.925,0,1.83.026,2.706.076.445.025.885.056,1.316.094A33.466,33.466,0,0,1,22.4.9c.3.07.585.144.861.222A11.765,11.765,0,0,1,25.9,2.154a2.893,2.893,0,0,1,1.283,1.218A1.093,1.093,0,0,1,27.268,3.66Z" transform="translate(-857.118 10943.451)"/><path class="h" d="M18.668,1.218,4.631,5.163A45.073,45.073,0,0,1,0,4.886L17.384,0A2.9,2.9,0,0,1,18.668,1.218Z" transform="translate(-848.603 10945.604)"/><path class="h" d="M17.156.094.416,4.8A3.321,3.321,0,0,1,0,4.452L15.84,0C16.286.025,16.726.057,17.156.094Z" transform="translate(-856.618 10943.526)"/><path class="h" d="M19.488.222.841,5.462Q.4,5.354,0,5.236L18.627,0C18.924.07,19.212.144,19.488.222Z" transform="translate(-853.348 10944.348)"/><path class="f" d="M8.13,4.76V5.4H5.25V4.788A37.916,37.916,0,0,1,0,4.386L1.552,3.4a31.039,31.039,0,0,0,4.719.367c1.369,0,1.859-.08,1.859-.218,0-.505-7.905-.1-7.905-1.6C.225,1.3,1.9.758,5.25.626V0H8.13V.614a33.572,33.572,0,0,1,4.147.333l-1.45.982a28.28,28.28,0,0,0-3.984-.3c-1.409,0-1.859.115-1.859.253,0,.482,7.906.08,7.906,1.562C12.89,4.065,11.3,4.605,8.13,4.76Z" transform="translate(-849.716 10944.35)"/><path class="d" d="M8.13,4.76V5.4H5.25V4.789A38.232,38.232,0,0,1,0,4.387L1.553,3.4a31.01,31.01,0,0,0,4.718.368c1.369,0,1.859-.081,1.859-.219,0-.505-7.905-.1-7.905-1.6C.225,1.3,1.9.758,5.25.626V0H8.13V.615a33.572,33.572,0,0,1,4.147.333l-1.45.981a28.266,28.266,0,0,0-3.983-.3c-1.41,0-1.859.115-1.859.253,0,.482,7.905.08,7.905,1.561C12.89,4.065,11.3,4.605,8.13,4.76Z" transform="translate(-849.8 10944.138)"/><path class="g" d="M34.161,3.746c0,.016,0,.032,0,.048a2.307,2.307,0,0,1-.9,1.674,5.424,5.424,0,0,1-.474.379A9.641,9.641,0,0,1,31,6.822c-.153.065-.311.13-.473.193-.547.213-1.147.413-1.793.6-.155.044-.313.088-.474.13-.566.15-1.165.289-1.793.415-.156.032-.314.062-.474.092-.575.108-1.174.205-1.793.292l-.473.064q-.873.113-1.793.2l-.474.041q-.879.07-1.793.113c-.157.008-.315.014-.473.02q-.884.033-1.794.038h-.473q-.909,0-1.793-.033l-.474-.019q-.672-.029-1.328-.074l-.465-.034c-.159-.012-.316-.026-.473-.039q-.919-.081-1.793-.19l-.474-.062Q9.568,8.487,9.033,8.4q-.356-.059-.7-.121l-.473-.09q-.94-.185-1.794-.4L5.732,7.7l-.141-.039c-.256-.071-.506-.145-.748-.221q-.549-.172-1.045-.36c-.162-.061-.32-.124-.474-.187a10.886,10.886,0,0,1-1.59-.8c-.07-.043-.138-.087-.2-.131-.082-.055-.161-.111-.237-.166s-.161-.123-.236-.185A2.435,2.435,0,0,1,0,3.793c0-.044,0-.089.006-.134l0-3.608H1.531l1.793,0H3.8l1.4,0h.867l1.794,0h.473l1.793,0H10.6l1.793,0h.473l1.793,0h.473l1.794,0H17.4l1.793,0h.474l1.793,0h.473l1.794,0H24.2l1.793,0h.474l1.793,0h.59l1.677,0H31L32.79,0h.474l.891,0,.007,3.745h0Z" transform="translate(-859.296 10941.592)"/><path class="f" d="M.737,0V5.907C.655,5.852.576,5.8.5,5.741S.338,5.619.264,5.557V0Z" transform="translate(-858.501 10941.64)"/><path class="f" d="M.737,0V7.03c-.162-.061-.32-.124-.473-.187V0Z" transform="translate(-856.234 10941.638)"/><path class="f" d="M.737,0V7.741L.4,7.653l-.14-.039V0Z" transform="translate(-853.969 10941.634)"/><path class="f" d="M.737,0V8.238Q.5,8.194.263,8.148V0Z" transform="translate(-851.701 10941.631)"/><path class="f" d="M.737,0V8.59L.263,8.528V0Z" transform="translate(-849.435 10941.628)"/><path class="f" d="M.737,0V8.822l-.473-.04V0Z" transform="translate(-847.168 10941.624)"/><path class="f" d="M.737,0V8.952C.578,8.947.42,8.94.263,8.934V0Z" transform="translate(-844.902 10941.62)"/><path class="f" d="M.737,0V8.988H.263V0Z" transform="translate(-842.635 10941.617)"/><path class="f" d="M.737,0V8.933l-.473.02V0Z" transform="translate(-840.369 10941.614)"/><path class="f" d="M.737,0V8.782l-.473.041V0Z" transform="translate(-838.103 10941.61)"/><path class="f" d="M.737,0V8.525l-.474.064V0Z" transform="translate(-835.836 10941.608)"/><path class="f" d="M.737,0V8.145c-.157.031-.314.062-.474.091V0Z" transform="translate(-833.569 10941.604)"/><path class="f" d="M.737,0V7.6c-.155.045-.312.088-.473.131V0Z" transform="translate(-831.302 10941.601)"/><path class="f" d="M.737,0V6.816q-.229.1-.473.193V0Z" transform="translate(-829.036 10941.597)"/><path class="f" d="M.737,0V5.465a5.424,5.424,0,0,1-.474.379V0Z" transform="translate(-826.769 10941.594)"/><path class="d" d="M34.151,4.8c0,2.651-7.643,4.8-17.075,4.8-1.289,0-2.544-.04-3.751-.116-1.518-.1-2.959-.248-4.294-.449-1.192-.179-2.3-.4-3.3-.648-.306-.076-.6-.156-.888-.238A14.463,14.463,0,0,1,1.733,6.908c-.156-.09-.3-.181-.439-.274A2.4,2.4,0,0,1,0,4.8a1.186,1.186,0,0,1,.014-.178C.345,2.053,7.858,0,17.076,0a57.191,57.191,0,0,1,6.413.35q.574.066,1.126.142a34.989,34.989,0,0,1,4.347.862c.28.077.552.156.813.237a14.286,14.286,0,0,1,2.392.961A5.085,5.085,0,0,1,33.7,3.7a1.818,1.818,0,0,1,.435.918A1.194,1.194,0,0,1,34.151,4.8Z" transform="translate(-859.291 10936.84)"/><path class="e" d="M24.673,1.151,4.3,6.93c-1.518-.1-2.959-.248-4.3-.449L23.138,0A5.092,5.092,0,0,1,24.673,1.151Z" transform="translate(-850.259 10939.391)"/><path class="e" d="M23.321.142.439,6.558c-.156-.09-.3-.181-.439-.274L22.195,0Q22.768.066,23.321.142Z" transform="translate(-857.995 10937.189)"/><path class="e" d="M24.933.238.888,7.032C.582,6.956.285,6.876,0,6.793L24.12,0Q24.541.115,24.933.238Z" transform="translate(-854.448 10938.192)"/><path class="f" d="M27.3,3.836a1.473,1.473,0,0,1-.013.176c-.33,2.033-6.318,3.659-13.635,3.659S.343,6.045.013,4.012A1.5,1.5,0,0,1,0,3.836C0,1.721,6.122,0,13.648,0S27.3,1.721,27.3,3.836Z" transform="translate(-855.861 10937.804)"/><path class="g" d="M27.269,3.66c-.329,2.033-6.318,3.659-13.634,3.659-.164,0-.326,0-.488,0a45.055,45.055,0,0,1-4.631-.277,30.87,30.87,0,0,1-3.9-.68q-.436-.108-.841-.227A9.7,9.7,0,0,1,.916,4.874,3.308,3.308,0,0,1,.5,4.527,1.6,1.6,0,0,1,0,3.66C.33,1.626,6.318,0,13.634,0c.926,0,1.83.026,2.706.076.446.025.886.056,1.316.094A33.482,33.482,0,0,1,22.4.9c.3.07.585.144.861.222A11.765,11.765,0,0,1,25.9,2.154a2.893,2.893,0,0,1,1.283,1.218A1.143,1.143,0,0,1,27.269,3.66Z" transform="translate(-855.848 10938.156)"/><path class="h" d="M18.667,1.218,4.631,5.163A45.038,45.038,0,0,1,0,4.886L17.384,0A2.9,2.9,0,0,1,18.667,1.218Z" transform="translate(-847.332 10940.309)"/><path class="h" d="M17.155.094.415,4.8A3.308,3.308,0,0,1,0,4.451L15.839,0C16.285.025,16.725.056,17.155.094Z" transform="translate(-855.347 10938.231)"/><path class="h" d="M19.488.221.842,5.462C.551,5.39.271,5.314,0,5.235L18.627,0Q19.074.105,19.488.221Z" transform="translate(-852.078 10939.052)"/><path class="f" d="M8.13,4.759V5.4H5.25V4.788A37.916,37.916,0,0,1,0,4.386L1.553,3.4a31.028,31.028,0,0,0,4.719.367c1.368,0,1.859-.081,1.859-.218,0-.506-7.906-.1-7.906-1.6C.225,1.3,1.9.757,5.25.625V0H8.131V.614a33.571,33.571,0,0,1,4.146.333l-1.45.982a28.255,28.255,0,0,0-3.983-.3c-1.41,0-1.859.115-1.859.253,0,.482,7.905.08,7.905,1.561C12.89,4.065,11.3,4.6,8.13,4.759Z" transform="translate(-848.446 10939.055)"/><path class="d" d="M8.13,4.76V5.4H5.25V4.789A38.232,38.232,0,0,1,0,4.387L1.553,3.4a31.024,31.024,0,0,0,4.719.368c1.368,0,1.859-.081,1.859-.219,0-.505-7.906-.1-7.906-1.6C.225,1.3,1.9.758,5.25.626V0H8.131V.615a33.6,33.6,0,0,1,4.147.333l-1.451.981a28.4,28.4,0,0,0-3.983-.3c-1.409,0-1.859.115-1.859.252,0,.483,7.906.081,7.906,1.562C12.89,4.065,11.3,4.605,8.13,4.76Z" transform="translate(-848.53 10938.843)"/><path class="g" d="M34.161,3.746v.048a2.308,2.308,0,0,1-.9,1.674,5.085,5.085,0,0,1-.473.378A9.583,9.583,0,0,1,31,6.822q-.229.1-.473.193c-.547.213-1.147.412-1.794.6-.155.044-.312.088-.473.13q-.849.225-1.794.415c-.156.031-.313.062-.473.092q-.864.162-1.793.292l-.473.064q-.875.113-1.794.2c-.157.014-.314.028-.473.04q-.879.072-1.793.114l-.474.02C18.6,9,18,9.01,17.4,9.013h-.473q-.909,0-1.794-.032l-.473-.019c-.448-.019-.891-.045-1.328-.074l-.465-.034-.473-.04q-.919-.08-1.793-.189c-.16-.02-.317-.041-.474-.063Q9.568,8.487,9.033,8.4c-.237-.039-.471-.079-.7-.122l-.473-.089c-.627-.123-1.227-.259-1.794-.406-.112-.028-.223-.058-.332-.088l-.141-.038c-.256-.071-.506-.145-.748-.221q-.549-.172-1.045-.36c-.163-.062-.32-.124-.474-.187a10.987,10.987,0,0,1-1.59-.8c-.069-.043-.137-.087-.2-.131-.082-.055-.161-.111-.236-.167s-.162-.122-.237-.184A2.435,2.435,0,0,1,0,3.793a1.2,1.2,0,0,1,.007-.134V.051l1.05,0h.473l1.794,0H3.8l1.4,0h.867l1.793,0h.474l1.793,0H10.6l1.793,0h.473l1.793,0h.474l1.794,0H17.4l1.793,0h.473l1.793,0h.474l1.793,0H24.2l1.794,0,.473,0,1.794,0h.59l1.676,0H31L32.79,0h1.365l.007,3.745h0Z" transform="translate(-861.899 10935.697)"/><path class="f" d="M.737,0V5.907C.655,5.852.576,5.8.5,5.741S.338,5.618.264,5.556V0Z" transform="translate(-861.104 10935.747)"/><path class="f" d="M.737,0V7.03c-.163-.062-.32-.124-.474-.187V0Z" transform="translate(-858.838 10935.745)"/><path class="f" d="M.737,0V7.742L.4,7.654l-.14-.039V0Z" transform="translate(-856.572 10935.74)"/><path class="f" d="M.737,0V8.239C.578,8.21.419,8.18.263,8.149V0Z" transform="translate(-854.305 10935.737)"/><path class="f" d="M.737,0V8.589c-.159-.02-.316-.04-.473-.062V0Z" transform="translate(-852.039 10935.734)"/><path class="f" d="M.737,0V8.822Q.5,8.8.263,8.783V0Z" transform="translate(-849.772 10935.73)"/><path class="f" d="M.737,0V8.952L.264,8.933V0Z" transform="translate(-847.505 10935.728)"/><path class="f" d="M.737,0V8.988H.264V0Z" transform="translate(-845.239 10935.724)"/><path class="f" d="M.737,0V8.933c-.157.007-.315.014-.474.019V0Z" transform="translate(-842.972 10935.721)"/><path class="f" d="M.737,0V8.782C.58,8.8.421,8.81.264,8.822V0Z" transform="translate(-840.706 10935.717)"/><path class="f" d="M.737,0V8.526L.263,8.59V0Z" transform="translate(-838.439 10935.714)"/><path class="f" d="M.737,0V8.145l-.473.092V0Z" transform="translate(-836.172 10935.71)"/><path class="f" d="M.737,0V7.6c-.155.044-.312.088-.473.13V0Z" transform="translate(-833.906 10935.707)"/><path class="f" d="M.737,0V6.815c-.153.066-.312.13-.474.193V0Z" transform="translate(-831.639 10935.704)"/><path class="f" d="M.737,0V5.465a5.085,5.085,0,0,1-.473.378V0Z" transform="translate(-829.372 10935.701)"/><path class="d" d="M34.151,4.8c0,2.65-7.644,4.8-17.076,4.8-1.288,0-2.544-.04-3.75-.116-1.518-.1-2.96-.249-4.3-.449-1.192-.18-2.3-.4-3.3-.648-.306-.077-.6-.156-.888-.239A14.35,14.35,0,0,1,1.733,6.907c-.157-.089-.3-.181-.439-.273A2.4,2.4,0,0,1,0,4.8a1.068,1.068,0,0,1,.014-.178C.345,2.053,7.857,0,17.075,0a56.959,56.959,0,0,1,6.414.35q.573.065,1.126.142a34.934,34.934,0,0,1,4.346.862q.422.114.813.237a14.214,14.214,0,0,1,2.393.961A5.079,5.079,0,0,1,33.7,3.7a1.8,1.8,0,0,1,.435.918A1.068,1.068,0,0,1,34.151,4.8Z" transform="translate(-861.894 10930.945)"/><path class="e" d="M24.673,1.151,4.3,6.93c-1.518-.1-2.959-.248-4.3-.449L23.138,0A5.092,5.092,0,0,1,24.673,1.151Z" transform="translate(-852.863 10933.496)"/><path class="e" d="M23.321.142.439,6.558c-.156-.09-.3-.181-.439-.273L22.195,0Q22.768.066,23.321.142Z" transform="translate(-860.599 10931.294)"/><path class="e" d="M24.933.237.888,7.031C.582,6.955.285,6.875,0,6.793L24.12,0Q24.54.114,24.933.237Z" transform="translate(-857.051 10932.298)"/><path class="f" d="M27.3,3.836a1.291,1.291,0,0,1-.014.176c-.329,2.034-6.318,3.659-13.634,3.659S.343,6.045.014,4.012A1.317,1.317,0,0,1,0,3.836C0,1.721,6.122,0,13.648,0S27.3,1.721,27.3,3.836Z" transform="translate(-858.465 10931.907)"/><path class="g" d="M27.269,3.659c-.329,2.034-6.318,3.66-13.634,3.66-.164,0-.326,0-.488,0a45.055,45.055,0,0,1-4.631-.277,30.87,30.87,0,0,1-3.9-.68q-.436-.108-.841-.227A9.7,9.7,0,0,1,.916,4.874,3.308,3.308,0,0,1,.5,4.527,1.609,1.609,0,0,1,0,3.66C.33,1.626,6.318,0,13.635,0c.925,0,1.829.026,2.706.076.445.025.885.056,1.316.094A33.489,33.489,0,0,1,22.4.9c.3.07.585.144.861.222A11.765,11.765,0,0,1,25.9,2.154a2.893,2.893,0,0,1,1.283,1.218A1.136,1.136,0,0,1,27.269,3.659Z" transform="translate(-858.452 10932.26)"/><path class="h" d="M18.667,1.218,4.631,5.162A45.055,45.055,0,0,1,0,4.885L17.384,0A2.893,2.893,0,0,1,18.667,1.218Z" transform="translate(-849.936 10934.414)"/><path class="h" d="M17.156.094.415,4.8A3.3,3.3,0,0,1,0,4.452L15.84,0C16.285.025,16.725.057,17.156.094Z" transform="translate(-857.951 10932.335)"/><path class="h" d="M19.489.221.842,5.462C.551,5.389.271,5.314,0,5.235L18.628,0C18.925.07,19.213.143,19.489.221Z" transform="translate(-854.682 10933.157)"/><path class="f" d="M8.131,4.759V5.4H5.25V4.788A37.929,37.929,0,0,1,0,4.386L1.553,3.4a30.9,30.9,0,0,0,4.719.368c1.369,0,1.859-.081,1.859-.218,0-.506-7.906-.1-7.906-1.6C.225,1.3,1.9.757,5.251.625V0h2.88V.614a33.6,33.6,0,0,1,4.147.333l-1.451.982a28.255,28.255,0,0,0-3.983-.3c-1.409,0-1.859.115-1.859.253,0,.482,7.905.08,7.905,1.561C12.89,4.064,11.3,4.6,8.131,4.759Z" transform="translate(-851.05 10933.16)"/><path class="d" d="M8.13,4.759V5.4H5.25V4.788A37.9,37.9,0,0,1,0,4.386L1.552,3.4a31.028,31.028,0,0,0,4.719.367c1.369,0,1.859-.08,1.859-.218,0-.505-7.905-.1-7.905-1.6C.225,1.3,1.9.758,5.25.625V0H8.13V.614a33.572,33.572,0,0,1,4.147.333l-1.45.982a28.28,28.28,0,0,0-3.984-.3c-1.409,0-1.859.115-1.859.253,0,.482,7.906.08,7.906,1.561C12.89,4.065,11.3,4.6,8.13,4.759Z" transform="translate(-851.133 10932.948)"/><path class="g" d="M34.16,3.745c0,.016,0,.032,0,.048a2.31,2.31,0,0,1-.9,1.675,5.437,5.437,0,0,1-.473.378A9.706,9.706,0,0,1,31,6.821q-.229.1-.474.193c-.547.213-1.147.413-1.793.6-.155.044-.312.088-.473.13q-.849.225-1.794.415c-.156.032-.313.063-.473.092q-.864.162-1.793.292c-.157.023-.314.044-.473.065q-.875.111-1.794.2c-.157.015-.314.028-.473.041q-.879.072-1.793.114c-.157.007-.315.014-.474.019q-.884.033-1.793.039h-.473q-.909,0-1.794-.033c-.158,0-.316-.011-.473-.018q-.672-.03-1.328-.074c-.156-.011-.311-.022-.465-.035s-.317-.025-.473-.039q-.919-.08-1.794-.19c-.159-.019-.316-.04-.473-.062Q9.568,8.487,9.033,8.4q-.356-.059-.7-.122c-.159-.029-.317-.059-.473-.09Q6.916,8,6.064,7.782l-.333-.088c-.047-.012-.094-.025-.14-.039-.257-.071-.507-.145-.748-.22-.366-.116-.715-.235-1.045-.36q-.245-.093-.474-.187a10.935,10.935,0,0,1-1.59-.8c-.07-.044-.138-.087-.2-.132-.082-.055-.161-.11-.236-.166s-.162-.122-.237-.184A2.435,2.435,0,0,1,0,3.793a1.19,1.19,0,0,1,.007-.134V.051l1.05,0h.473l1.794,0H3.8l1.4,0h.867l1.793,0h.474l1.793,0H10.6l1.793,0h.473l1.793,0h.474l1.793,0H17.4l1.793,0h.473l1.793,0h.474l1.793,0H24.2l1.794,0h.473l1.794,0h.59l1.676,0H31L32.79,0h1.365l.007,3.745Z" transform="translate(-859.931 10929.753)"/><path class="f" d="M.737,0V5.907C.655,5.852.575,5.8.5,5.741S.338,5.618.264,5.556V0Z" transform="translate(-859.136 10929.802)"/><path class="f" d="M.737,0V7.03Q.494,6.937.264,6.843V0Z" transform="translate(-856.87 10929.798)"/><path class="f" d="M.737,0V7.741C.624,7.713.514,7.683.4,7.653L.263,7.615V0Z" transform="translate(-854.604 10929.794)"/><path class="f" d="M.737,0V8.239C.578,8.21.419,8.18.263,8.149V0Z" transform="translate(-852.337 10929.791)"/><path class="f" d="M.737,0V8.59L.264,8.528V0Z" transform="translate(-850.07 10929.787)"/><path class="f" d="M.737,0V8.822Q.5,8.8.263,8.783V0Z" transform="translate(-847.804 10929.784)"/><path class="f" d="M.737,0V8.952L.264,8.933V0Z" transform="translate(-845.537 10929.782)"/><path class="f" d="M.737,0V8.988H.264V0Z" transform="translate(-843.271 10929.778)"/><path class="f" d="M.737,0V8.932l-.474.02V0Z" transform="translate(-841.004 10929.775)"/><path class="f" d="M.737,0V8.781C.58,8.8.422,8.809.263,8.822V0Z" transform="translate(-838.738 10929.772)"/><path class="f" d="M.737,0V8.526L.264,8.59V0Z" transform="translate(-836.471 10929.767)"/><path class="f" d="M.737,0V8.145c-.156.031-.314.062-.474.092V0Z" transform="translate(-834.205 10929.764)"/><path class="f" d="M.737,0V7.6c-.155.044-.313.088-.473.13V0Z" transform="translate(-831.938 10929.76)"/><path class="f" d="M.737,0V6.815q-.229.1-.473.193V0Z" transform="translate(-829.672 10929.758)"/><path class="f" d="M.737,0V5.465a5.238,5.238,0,0,1-.474.378V0Z" transform="translate(-827.405 10929.755)"/><path class="d" d="M34.151,4.8c0,2.65-7.644,4.8-17.076,4.8-1.288,0-2.544-.041-3.751-.117-1.517-.1-2.959-.248-4.294-.448-1.192-.18-2.3-.4-3.3-.648-.306-.077-.6-.156-.888-.239A14.35,14.35,0,0,1,1.733,6.907c-.156-.09-.3-.181-.439-.273A2.4,2.4,0,0,1,0,4.8,1.08,1.08,0,0,1,.014,4.62C.345,2.053,7.857,0,17.075,0a56.959,56.959,0,0,1,6.414.35q.573.065,1.126.142a34.789,34.789,0,0,1,4.346.862q.422.114.813.237a14.214,14.214,0,0,1,2.393.961A5.079,5.079,0,0,1,33.7,3.7a1.8,1.8,0,0,1,.435.918A1.06,1.06,0,0,1,34.151,4.8Z" transform="translate(-859.925 10925.001)"/><path class="e" d="M24.672,1.151,4.294,6.93C2.776,6.834,1.335,6.682,0,6.481L23.137,0A5.092,5.092,0,0,1,24.672,1.151Z" transform="translate(-850.894 10927.552)"/><path class="e" d="M23.321.142.44,6.557c-.157-.089-.3-.181-.44-.273L22.195,0Q22.768.065,23.321.142Z" transform="translate(-858.631 10925.35)"/><path class="e" d="M24.933.238.888,7.032C.581,6.955.285,6.876,0,6.793L24.119,0Q24.54.115,24.933.238Z" transform="translate(-855.083 10926.354)"/><path class="f" d="M27.3,3.835a1.291,1.291,0,0,1-.013.176c-.329,2.034-6.318,3.66-13.634,3.66S.343,6.045.014,4.011A1.292,1.292,0,0,1,0,3.835C0,1.72,6.122,0,13.648,0S27.3,1.72,27.3,3.835Z" transform="translate(-856.497 10925.964)"/><path class="g" d="M27.269,3.66c-.329,2.034-6.318,3.66-13.634,3.66-.164,0-.326,0-.488,0A45.055,45.055,0,0,1,8.516,7.04a31.05,31.05,0,0,1-3.9-.68c-.291-.073-.571-.148-.841-.227A9.7,9.7,0,0,1,.916,4.875,3.308,3.308,0,0,1,.5,4.528,1.615,1.615,0,0,1,0,3.66C.33,1.627,6.318,0,13.635,0c.925,0,1.829.026,2.7.076.446.025.886.057,1.316.094A33.618,33.618,0,0,1,22.4.9q.445.1.86.221A11.823,11.823,0,0,1,25.9,2.154a2.9,2.9,0,0,1,1.283,1.218A1.143,1.143,0,0,1,27.269,3.66Z" transform="translate(-856.484 10926.315)"/><path class="h" d="M18.668,1.218,4.631,5.163A45.055,45.055,0,0,1,0,4.886L17.384,0A2.9,2.9,0,0,1,18.668,1.218Z" transform="translate(-847.968 10928.47)"/><path class="h" d="M17.156.094.415,4.8A3.308,3.308,0,0,1,0,4.452L15.84,0C16.285.026,16.725.057,17.156.094Z" transform="translate(-855.983 10926.391)"/><path class="h" d="M19.488.222.841,5.462Q.4,5.354,0,5.236L18.627,0C18.924.07,19.212.144,19.488.222Z" transform="translate(-852.713 10927.212)"/><path class="f" d="M8.131,4.76V5.4H5.25V4.789A38.245,38.245,0,0,1,0,4.387L1.553,3.4a31.028,31.028,0,0,0,4.719.367c1.369,0,1.859-.08,1.859-.218,0-.505-7.906-.1-7.906-1.6C.225,1.3,1.9.758,5.251.626V0h2.88V.614a34,34,0,0,1,4.147.333l-1.451.982a28.248,28.248,0,0,0-3.983-.3c-1.409,0-1.859.114-1.859.252,0,.482,7.905.081,7.905,1.562C12.89,4.065,11.3,4.605,8.131,4.76Z" transform="translate(-849.082 10927.215)"/><path class="d" d="M8.13,4.76V5.4H5.249V4.789A38.215,38.215,0,0,1,0,4.387L1.552,3.4a31.024,31.024,0,0,0,4.719.368c1.369,0,1.859-.081,1.859-.219,0-.505-7.905-.1-7.905-1.6C.225,1.3,1.9.758,5.25.626V0H8.13V.615a33.588,33.588,0,0,1,4.147.333l-1.451.981a28.4,28.4,0,0,0-3.983-.3c-1.409,0-1.859.115-1.859.252,0,.483,7.906.081,7.906,1.562C12.89,4.065,11.3,4.605,8.13,4.76Z" transform="translate(-849.165 10927.004)"/><path class="g" d="M34.161,3.746v.047a2.309,2.309,0,0,1-.9,1.675,5.085,5.085,0,0,1-.473.378A9.615,9.615,0,0,1,31,6.821q-.229.1-.474.193c-.547.214-1.147.413-1.793.6-.155.044-.312.088-.473.131-.566.15-1.166.288-1.794.415-.156.031-.313.062-.473.091q-.864.162-1.793.293l-.474.064q-.873.113-1.793.2l-.473.04c-.586.048-1.185.086-1.793.114l-.474.02q-.884.033-1.793.038h-.473q-.909,0-1.794-.033c-.159,0-.316-.011-.473-.018q-.673-.03-1.329-.074l-.464-.034-.474-.04c-.612-.053-1.211-.117-1.793-.19-.159-.019-.317-.04-.473-.062Q9.568,8.487,9.033,8.4q-.356-.059-.7-.122c-.159-.029-.317-.059-.473-.09Q6.916,8,6.064,7.782c-.112-.028-.223-.058-.333-.088-.047-.012-.094-.025-.14-.039-.257-.07-.507-.145-.748-.22q-.549-.172-1.046-.36-.243-.093-.473-.187a10.935,10.935,0,0,1-1.59-.8c-.07-.044-.138-.087-.2-.132-.082-.055-.161-.11-.236-.166s-.162-.122-.237-.184A2.435,2.435,0,0,1,0,3.793a1.19,1.19,0,0,1,.007-.134V.051l1.05,0h.473l1.794,0H3.8l1.4,0h.868l1.793,0h.473l1.794,0H10.6l1.793,0h.473l1.793,0h.474l1.793,0H17.4l1.793,0h.473l1.793,0h.474l1.793,0H24.2l1.793,0h.474l1.793,0h.59l1.677,0H31L32.79,0h.474l.891,0,.007,3.745h0Z" transform="translate(-859.696 10923.791)"/><path class="f" d="M.737,0V5.907C.655,5.852.576,5.8.5,5.741S.338,5.618.264,5.556V0Z" transform="translate(-858.901 10923.841)"/><path class="f" d="M.737,0V7.031c-.163-.062-.32-.124-.474-.187V0Z" transform="translate(-856.635 10923.838)"/><path class="f" d="M.737,0V7.741C.624,7.713.513,7.683.4,7.653l-.14-.038V0Z" transform="translate(-854.369 10923.834)"/><path class="f" d="M.737,0V8.239C.577,8.21.419,8.18.264,8.149V0Z" transform="translate(-852.102 10923.831)"/><path class="f" d="M.737,0V8.59L.263,8.528V0Z" transform="translate(-849.835 10923.827)"/><path class="f" d="M.737,0V8.822C.577,8.81.421,8.8.264,8.783V0Z" transform="translate(-847.568 10923.824)"/><path class="f" d="M.737,0V8.952L.264,8.933V0Z" transform="translate(-845.302 10923.822)"/><path class="f" d="M.737,0V8.988H.263V0Z" transform="translate(-843.035 10923.818)"/><path class="f" d="M.737,0V8.932c-.158.008-.315.014-.474.02V0Z" transform="translate(-840.769 10923.815)"/><path class="f" d="M.737,0V8.782l-.473.04V0Z" transform="translate(-838.503 10923.811)"/><path class="f" d="M.737,0V8.526L.263,8.59V0Z" transform="translate(-836.236 10923.808)"/><path class="f" d="M.737,0V8.144c-.156.032-.313.062-.473.092V0Z" transform="translate(-833.969 10923.805)"/><path class="f" d="M.737,0V7.6c-.155.045-.312.088-.473.131V0Z" transform="translate(-831.703 10923.801)"/><path class="f" d="M.737,0V6.815q-.229.1-.474.193V0Z" transform="translate(-829.436 10923.798)"/><path class="f" d="M.737,0V5.466a5.085,5.085,0,0,1-.473.378V0Z" transform="translate(-827.169 10923.794)"/><path class="d" d="M34.151,4.8c0,2.65-7.644,4.8-17.076,4.8-1.288,0-2.544-.041-3.75-.117-1.518-.1-2.96-.248-4.3-.448-1.192-.18-2.3-.4-3.3-.648-.306-.077-.6-.156-.888-.239A14.35,14.35,0,0,1,1.733,6.908c-.156-.09-.3-.181-.439-.273A2.4,2.4,0,0,1,0,4.8a1.076,1.076,0,0,1,.014-.178C.345,2.054,7.857,0,17.075,0a57.2,57.2,0,0,1,6.414.35q.573.066,1.126.143a34.98,34.98,0,0,1,4.346.861q.422.116.813.238a14.214,14.214,0,0,1,2.393.961A5.079,5.079,0,0,1,33.7,3.7a1.8,1.8,0,0,1,.435.917A1.08,1.08,0,0,1,34.151,4.8Z" transform="translate(-859.691 10919.039)"/><path class="e" d="M24.673,1.151,4.3,6.93c-1.518-.1-2.959-.249-4.3-.449L23.137,0A5.085,5.085,0,0,1,24.673,1.151Z" transform="translate(-850.66 10921.593)"/><path class="e" d="M23.321.142.439,6.558c-.156-.09-.3-.181-.439-.274L22.195,0Q22.768.066,23.321.142Z" transform="translate(-858.396 10919.389)"/><path class="e" d="M24.933.237.888,7.032C.582,6.955.285,6.876,0,6.793L24.12,0C24.4.077,24.672.156,24.933.237Z" transform="translate(-854.848 10920.393)"/><path class="f" d="M27.3,3.835a1.473,1.473,0,0,1-.013.176c-.33,2.034-6.319,3.66-13.635,3.66S.342,6.045.013,4.011A1.291,1.291,0,0,1,0,3.835C0,1.72,6.122,0,13.647,0S27.3,1.72,27.3,3.835Z" transform="translate(-856.261 10920.004)"/><path class="g" d="M27.269,3.66c-.329,2.034-6.318,3.66-13.634,3.66-.164,0-.326,0-.488,0A45.073,45.073,0,0,1,8.516,7.04a31,31,0,0,1-3.9-.68c-.292-.073-.572-.148-.842-.227A9.725,9.725,0,0,1,.916,4.875,3.308,3.308,0,0,1,.5,4.528,1.615,1.615,0,0,1,0,3.66C.33,1.626,6.319,0,13.635,0c.925,0,1.83.026,2.706.076.445.025.885.057,1.316.094A33.6,33.6,0,0,1,22.4.9c.3.07.585.143.861.221A11.813,11.813,0,0,1,25.9,2.154a2.893,2.893,0,0,1,1.283,1.218A1.143,1.143,0,0,1,27.269,3.66Z" transform="translate(-856.249 10920.355)"/><path class="h" d="M18.668,1.218,4.631,5.163A45.073,45.073,0,0,1,0,4.886L17.384,0A2.9,2.9,0,0,1,18.668,1.218Z" transform="translate(-847.733 10922.509)"/><path class="h" d="M17.156.095.415,4.8A3.308,3.308,0,0,1,0,4.452L15.84,0C16.286.026,16.726.057,17.156.095Z" transform="translate(-855.748 10920.431)"/><path class="h" d="M19.488.221.842,5.462C.55,5.389.27,5.314,0,5.235L18.627,0Q19.074.105,19.488.221Z" transform="translate(-852.478 10921.253)"/><path class="f" d="M8.13,4.76V5.4H5.25V4.788A37.9,37.9,0,0,1,0,4.386L1.552,3.4a31.157,31.157,0,0,0,4.719.367c1.369,0,1.859-.08,1.859-.218,0-.505-7.905-.1-7.905-1.6C.225,1.3,1.9.758,5.25.625V0H8.13V.614a33.572,33.572,0,0,1,4.147.333l-1.45.982a28.28,28.28,0,0,0-3.984-.3c-1.409,0-1.859.115-1.859.253,0,.482,7.906.08,7.906,1.561C12.89,4.065,11.3,4.605,8.13,4.76Z" transform="translate(-848.846 10921.255)"/><path class="d" d="M8.13,4.76V5.4H5.25V4.788A38.1,38.1,0,0,1,0,4.387L1.552,3.4a31.039,31.039,0,0,0,4.719.367c1.369,0,1.859-.08,1.859-.218,0-.505-7.905-.1-7.905-1.6C.225,1.3,1.9.758,5.25.626V0H8.13V.614a33.966,33.966,0,0,1,4.147.333l-1.45.982a28.272,28.272,0,0,0-3.984-.3c-1.409,0-1.859.114-1.859.252,0,.483,7.906.081,7.906,1.562C12.89,4.065,11.3,4.605,8.13,4.76Z" transform="translate(-848.93 10921.043)"/><path class="d" d="M36.634,19.124A18.331,18.331,0,0,1,13.567,36.108,18.135,18.135,0,0,1,9.033,34.2a18.381,18.381,0,0,1-3.438-2.623q-.474-.459-.915-.952a18.4,18.4,0,0,1-3.137-4.876c-.154-.349-.3-.7-.428-1.065a18.329,18.329,0,0,1-1.1-7.075q.014-.34.043-.681A18.323,18.323,0,0,1,25.9,1.639q.6.276,1.185.593a18.367,18.367,0,0,1,4.525,3.487c.288.3.567.619.834.943a18.305,18.305,0,0,1,4.2,11.78C36.649,18.67,36.643,18.9,36.634,19.124Z" transform="translate(-851.873 10937.75)"/><path class="e" d="M27.293,4.469,4.534,25.664A18.15,18.15,0,0,1,0,23.758L25.828,0A18.3,18.3,0,0,1,27.293,4.469Z" transform="translate(-842.84 10948.195)"/><path class="e" d="M25.972.593.428,24.112Q.2,23.589,0,23.048L24.787,0Q25.392.276,25.972.593Z" transform="translate(-850.758 10939.388)"/><path class="e" d="M27.765.943.914,25.859Q.44,25.4,0,24.907L26.931,0Q27.364.458,27.765.943Z" transform="translate(-847.192 10943.47)"/><path class="f" d="M29.281,15.285c-.009.225-.024.45-.042.673A14.646,14.646,0,0,1,0,14.749c0-.223,0-.449.013-.673a14.647,14.647,0,1,1,29.268,1.209Z" transform="translate(-848.195 10941.438)"/><path class="g" d="M29.239,14.613A14.676,14.676,0,0,1,14.044,28c-.176-.007-.349-.018-.522-.032A14.5,14.5,0,0,1,8.6,26.706a14.643,14.643,0,0,1-4.078-2.774q-.452-.434-.867-.905A14.718,14.718,0,0,1,.791,18.089,13.983,13.983,0,0,1,.4,16.745,14.575,14.575,0,0,1,0,13.4,14.646,14.646,0,0,1,18.085.423a14.392,14.392,0,0,1,1.4.419,14.638,14.638,0,0,1,4.97,2.991c.307.281.6.577.888.886a14.646,14.646,0,0,1,3.853,8.789C29.223,13.872,29.238,14.242,29.239,14.613Z" transform="translate(-848.195 10942.782)"/><path class="h" d="M20.593,4.715,4.922,19.178A14.484,14.484,0,0,1,0,17.913L19.408,0A14.652,14.652,0,0,1,20.593,4.715Z" transform="translate(-839.595 10951.575)"/><path class="h" d="M19.08.419.39,17.667A14,14,0,0,1,0,16.322L17.684,0A14.392,14.392,0,0,1,19.08.419Z" transform="translate(-847.794 10943.205)"/><path class="h" d="M21.685.885.867,20.1Q.415,19.665,0,19.194L20.8,0C21.1.281,21.4.576,21.685.885Z" transform="translate(-844.541 10946.615)"/><path class="f" d="M8.659,18.327l-.1,2.437-3.088-.127.095-2.327A12.885,12.885,0,0,1,0,16.54l1.82-3.707a10.518,10.518,0,0,0,5,1.614c1.468.061,2.006-.225,2.028-.752C8.93,11.763.389,12.972.624,7.242c.1-2.481,1.984-4.493,5.6-4.849L6.32,0,9.408.127l-.1,2.35a11.428,11.428,0,0,1,4.4,1.457L12,7.624A9.447,9.447,0,0,0,7.772,6.306c-1.511-.063-2.011.356-2.033.883-.076,1.844,8.464.658,8.231,6.322C13.872,15.882,12.078,17.875,8.659,18.327Z" transform="translate(-840.514 10946.197)"/><path class="d" d="M8.658,18.328l-.1,2.437L5.47,20.637l.1-2.327A12.881,12.881,0,0,1,0,16.541l1.82-3.708a10.5,10.5,0,0,0,5,1.615c1.467.06,2.006-.225,2.027-.752.08-1.932-8.461-.724-8.225-6.454.1-2.481,1.983-4.492,5.6-4.849L6.319,0,9.408.128l-.1,2.349A11.446,11.446,0,0,1,13.7,3.934l-1.71,3.69A9.447,9.447,0,0,0,7.771,6.306c-1.511-.063-2.011.357-2.033.883-.076,1.845,8.464.658,8.232,6.322C13.871,15.882,12.078,17.875,8.658,18.328Z" transform="translate(-840.57 10945.381)"/></g></g></svg>