<svg xmlns="http://www.w3.org/2000/svg" xmlns:xlink="http://www.w3.org/1999/xlink" width="151" height="151" viewBox="0 0 151 151"><defs><style>.a{stroke:#fff;stroke-width:2px;fill:url(#a);}.b{fill:#fff;}.c{stroke:none;}.d{fill:none;}.e{filter:url(#b);}</style><linearGradient id="a" x1="0.102" y1="0.05" x2="0.907" y2="0.943" gradientUnits="objectBoundingBox"><stop offset="0" stop-color="#fd6e08"/><stop offset="1" stop-color="#fd3328"/></linearGradient><filter id="b" x="0" y="0" width="151" height="151" filterUnits="userSpaceOnUse"><feOffset dy="8" input="SourceAlpha"/><feGaussianBlur stdDeviation="3" result="c"/><feFlood flood-opacity="0.243"/><feComposite operator="in" in2="c"/><feComposite in="SourceGraphic"/></filter></defs><g transform="translate(-465 -3459.354)"><g class="e" transform="matrix(1, 0, 0, 1, 465, 3459.35)"><g class="a" transform="translate(9 1)"><rect class="c" width="133" height="133" rx="18"/><rect class="d" x="1" y="1" width="131" height="131" rx="17"/></g></g><g transform="translate(496.085 3486.199)"><g transform="translate(6.011 0)"><g transform="translate(0 26.849)"><path class="b" d="M373.967,414.543a26.392,26.392,0,0,0-14.46,29.633c2.611,11.819,13.2,20.174,25.736,20.264,8.287.1,3.807.077,8.2.065V450.454a4.593,4.593,0,0,0-1.172-.121c-2.843.034-5.7.05-8.529-.167-5.488-.422-9.828-4.858-10.653-10.681-.713-5.038,2.744-10.563,7.807-12.47a11.32,11.32,0,0,1,13.679,4.266q8.766,12.943,17.523,25.891s5.143,7.286,11.952,7.249c3.11-.015,6.244.019,9.45.019a4.033,4.033,0,0,0-1.132-2.44c-2.685-4.04-5.407-8.058-8.117-12.079-6.08-9.016-11.924-18.2-18.3-27a25.651,25.651,0,0,0-20.875-10.87,26.335,26.335,0,0,0-11.112,2.493" transform="translate(-358.877 -412.05)"/></g><path class="b" d="M402.093,436.818c-5.311-6.935-16.587-21.7-21.352-28.185-2.9-3.947-4.626-5.243-5.785-5.243a1.869,1.869,0,0,0-1.522,1,12.034,12.034,0,0,0-1.4,5.308c-.037,14.107,13.173,24.564,20.159,29.106-1.9,2.722-2.57,6.833-2.57,10.746a12.016,12.016,0,0,0,12.017,12.017c6.638,0,12.113-1.048,12.113-7.686C413.754,448.5,407.86,439.884,402.093,436.818Z" transform="translate(-331.241 -403.39)"/></g><circle class="b" cx="6.351" cy="6.351" r="6.351" transform="translate(0 69.008)"/></g></g></svg>