<svg xmlns="http://www.w3.org/2000/svg" width="105.209" height="35.424" viewBox="0 0 105.209 35.424"><defs><style>.a{fill:#1a1818;stroke:#fff;stroke-width:1.5px;}.b,.c{fill:#fff;}.c{font-size:7px;font-family:MyriadPro-Regular, Myriad Pro;}</style></defs><g transform="translate(0.75 0.75)"><rect class="a" width="103.709" height="33.924" rx="5" transform="translate(0 0)"/><g transform="translate(6.957 3.694)"><g transform="translate(0 1.579)"><path class="b" d="M155.226,152.063a16.8,16.8,0,0,1-1.519,2.836c-.986,1.5-2.376,3.372-4.1,3.387-1.531.014-1.924-1-4-.985s-2.511,1-4.042.988c-1.722-.016-3.04-1.7-4.026-3.206-2.758-4.2-3.046-9.126-1.345-11.745a6.1,6.1,0,0,1,4.909-2.951c1.826,0,2.973,1,4.483,1,1.464,0,2.357-1,4.467-1a5.958,5.958,0,0,1,4.491,2.371,5.138,5.138,0,0,0,.682,9.306" transform="translate(-135.138 -134.913)"/><path class="b" d="M167.038,128.173a5.125,5.125,0,0,0,1.138-3.8A5.539,5.539,0,0,0,164.6,126.3a4.757,4.757,0,0,0-1.168,3.7,4.674,4.674,0,0,0,3.6-1.829" transform="translate(-153.724 -124.378)"/></g><g transform="translate(23.642 11.348)"><path class="b" d="M208.242,152.951l-3.951,11.63H206.1l1.18-3.571h3.825l1.213,3.571h1.859l-3.968-11.63Zm.937,1.912c.133.519.278,1.058.462,1.641l1.065,3.084h-3.03l1.05-3.1c.16-.5.312-1.046.453-1.621" transform="translate(-204.291 -152.951)"/><path class="b" d="M239.545,161.769a3.291,3.291,0,0,0-2.8,1.342l-.07-1.157h-1.609l.01.148c.048.721.067,1.514.067,2.652v8.964h1.76v-4.183a3.09,3.09,0,0,0,2.405,1.033,3.627,3.627,0,0,0,2.666-1.133,4.808,4.808,0,0,0,1.177-3.385,4.681,4.681,0,0,0-1.022-3.09,3.348,3.348,0,0,0-2.586-1.192m-.438,1.457c1.569,0,2.27,1.453,2.27,2.893,0,1.857-.9,3.011-2.337,3.011a2.133,2.133,0,0,1-2.073-1.633,2.247,2.247,0,0,1-.063-.57v-1.415a2.633,2.633,0,0,1,.056-.435c.009-.048.018-.1.025-.143a2.228,2.228,0,0,1,2.121-1.709" transform="translate(-224.546 -158.754)"/><path class="b" d="M266.048,161.769a3.294,3.294,0,0,0-2.8,1.342l-.07-1.157h-1.609l.009.148c.048.721.068,1.514.068,2.652v8.964h1.76v-4.183a3.088,3.088,0,0,0,2.4,1.033,3.633,3.633,0,0,0,2.668-1.133,4.815,4.815,0,0,0,1.176-3.385,4.681,4.681,0,0,0-1.023-3.09,3.347,3.347,0,0,0-2.586-1.192m-.438,1.457c1.568,0,2.27,1.453,2.27,2.893,0,1.857-.9,3.011-2.337,3.011a2.133,2.133,0,0,1-2.073-1.633,2.251,2.251,0,0,1-.062-.57v-1.415a2.61,2.61,0,0,1,.056-.436c.009-.048.017-.095.025-.141a2.227,2.227,0,0,1,2.121-1.709" transform="translate(-241.989 -158.754)"/></g><g transform="translate(54.864 11.163)"><path class="b" d="M299.8,157.522c-1.642-.636-2.168-1.136-2.168-2.06,0-.778.618-1.563,2-1.563a4,4,0,0,1,2.066.519l.149.092.5-1.468-.1-.057a5.1,5.1,0,0,0-2.562-.575c-2.244,0-3.811,1.325-3.811,3.221,0,1.529.981,2.6,3.088,3.364,1.493.558,2.049,1.13,2.049,2.11,0,1.109-.857,1.8-2.237,1.8a4.817,4.817,0,0,1-2.536-.719l-.152-.1-.473,1.5.087.057a6.027,6.027,0,0,0,2.974.765c3.024,0,4.1-1.844,4.1-3.423,0-1.628-.86-2.632-2.968-3.464" transform="translate(-295.615 -152.409)"/><path class="b" d="M320.059,156.451l-1.726.542v1.462H317.07v1.406h1.263v4.308a3.292,3.292,0,0,0,.61,2.232,2.255,2.255,0,0,0,1.7.668,4.141,4.141,0,0,0,1.36-.21l.1-.035-.084-1.409-.169.052a2.651,2.651,0,0,1-.818.095c-.682,0-.973-.431-.973-1.444v-4.257h2.122v-1.406h-2.122Z" transform="translate(-309.735 -155.069)"/><path class="b" d="M336.728,161.77a4.144,4.144,0,0,0-4.181,4.467,4.015,4.015,0,0,0,4.046,4.333h.016a4.148,4.148,0,0,0,4.181-4.484,4.447,4.447,0,0,0-1.121-3.112,3.915,3.915,0,0,0-2.941-1.2m-.051,1.389c1.583,0,2.3,1.543,2.3,2.977,0,1.764-.984,3.044-2.337,3.044h-.017c-1.334,0-2.3-1.259-2.3-2.994,0-1.507.728-3.028,2.354-3.028" transform="translate(-319.921 -158.57)"/><path class="b" d="M363.993,161.851l-.106-.027a1.691,1.691,0,0,0-.438-.055,2.51,2.51,0,0,0-2.206,1.417l-.052-1.231h-1.579l.01.148c.047.7.067,1.478.067,2.534l-.016,5.748h1.759V165.9a4.543,4.543,0,0,1,.049-.682,1.945,1.945,0,0,1,1.851-1.773,4.5,4.5,0,0,1,.472.029l.188.019Z" transform="translate(-337.733 -158.569)"/><path class="b" d="M376.337,161.721c-2.342,0-3.978,1.871-3.978,4.551a3.934,3.934,0,0,0,4.147,4.248,6.748,6.748,0,0,0,2.786-.534l.106-.048-.338-1.311-.147.059a5.456,5.456,0,0,1-2.2.394,2.446,2.446,0,0,1-2.635-2.551l5.679.017.023-.112a3.93,3.93,0,0,0,.053-.734c0-1.836-.914-3.979-3.49-3.979m-.117,1.338a1.736,1.736,0,0,1,1.292.493,2.5,2.5,0,0,1,.606,1.638H374.1a2.245,2.245,0,0,1,2.115-2.131" transform="translate(-346.121 -158.537)"/></g><text class="c" transform="translate(25.78 5.137)"><tspan x="0" y="0">Disponible en </tspan></text></g></g></svg>