<svg xmlns="http://www.w3.org/2000/svg" xmlns:xlink="http://www.w3.org/1999/xlink" width="271" height="250" viewBox="0 0 271 250"><defs><style>.a,.c,.g{fill:#fff;}.a{stroke:#707070;opacity:0.19;}.b{fill:url(#a);}.d{clip-path:url(#d);}.e{clip-path:url(#f);}.f{fill:url(#g);}.g,.h{opacity:0.5;}.i{fill:url(#i);}.j,.k,.l{opacity:0.2;}.k,.l{fill:none;stroke-miterlimit:10;}.k{stroke:#000;}.l{stroke:#fff;}.m{filter:url(#b);}</style><linearGradient id="a" x1="0.787" y1="0.537" x2="0.833" y2="0.196" gradientUnits="objectBoundingBox"><stop offset="0" stop-color="#ed230a"/><stop offset="1" stop-color="#ee7b00"/></linearGradient><filter id="b" x="35" y="39" width="211" height="211" filterUnits="userSpaceOnUse"><feOffset dy="9" input="SourceAlpha"/><feGaussianBlur stdDeviation="3" result="c"/><feFlood flood-opacity="0.251"/><feComposite operator="in" in2="c"/><feComposite in="SourceGraphic"/></filter><clipPath id="d"><rect class="a" width="271" height="247" transform="translate(513 923)"/></clipPath><clipPath id="f"><path class="b" d="M236.67,86.014a8.063,8.063,0,0,1,0,11.37L97.384,236.669a8.062,8.062,0,0,1-11.37,0L2.345,153a8.065,8.065,0,0,1,0-11.37L141.629,2.346a8.063,8.063,0,0,1,11.371,0Z" transform="translate(0 119.507) rotate(-30)"/></clipPath><linearGradient id="g" x1="0.449" y1="-0.184" x2="0.982" y2="1.237" gradientUnits="objectBoundingBox"><stop offset="0" stop-color="#e64618"/><stop offset="0.225" stop-color="#f17e6d"/><stop offset="0.466" stop-color="#ee432b"/><stop offset="1" stop-color="#ed2106"/></linearGradient><linearGradient id="i" x1="-0.889" y1="-1.158" x2="-0.059" y2="-1.158" gradientUnits="objectBoundingBox"><stop offset="0" stop-color="#ffff57"/><stop offset="0.091" stop-color="#ffffc7"/><stop offset="0.1" stop-color="#836d16"/><stop offset="0.121" stop-color="#ffff8d"/><stop offset="0.207" stop-color="#ffe680"/><stop offset="0.49" stop-color="#ffe76b"/><stop offset="0.838" stop-color="#ffe680"/><stop offset="0.87" stop-color="#b59824"/><stop offset="0.884" stop-color="#ffffc7"/><stop offset="0.96" stop-color="#debf43"/></linearGradient></defs><g transform="translate(-513 -923)"><g class="m" transform="matrix(1, 0, 0, 1, 513, 923)"><circle class="c" cx="96.5" cy="96.5" r="96.5" transform="translate(44 39)"/></g><g class="d"><g transform="translate(-3501 1316.862)"><path class="b" d="M236.67,86.014a8.063,8.063,0,0,1,0,11.37L97.384,236.669a8.062,8.062,0,0,1-11.37,0L2.345,153a8.065,8.065,0,0,1,0-11.37L141.629,2.346a8.063,8.063,0,0,1,11.371,0Z" transform="translate(3989.67 -314.355) rotate(-30)"/><g transform="translate(4075.78 -195.764) rotate(-76)"><path class="c" d="M0,0" transform="translate(29.736 8.507)"/><g transform="translate(41.406 3.365)"><path class="c" d="M1.891.312A3.28,3.28,0,0,0,3.3,6.566c1.039.012.477.01,1.028.008V4.813A.578.578,0,0,0,4.185,4.8c-.356,0-.714.006-1.069-.021A1.5,1.5,0,0,1,1.781,3.439,1.533,1.533,0,0,1,2.76,1.876a1.419,1.419,0,0,1,1.714.535q1.1,1.622,2.2,3.245a2.17,2.17,0,0,0,1.5.909c.39,0,.783,0,1.184,0a.505.505,0,0,0-.142-.306c-.337-.506-.678-1.01-1.017-1.514C7.432,3.617,6.7,2.466,5.9,1.362A3.215,3.215,0,0,0,3.284,0,3.3,3.3,0,0,0,1.891.312" transform="translate(0 0)"/></g><g transform="translate(0 0.792)"><path class="c" d="M1.716,5.9c0-1.313.361-1.977,1.381-1.977.963,0,1.363.788,1.363,1.862,0,1.219-.476,2.034-1.383,2.034-1.04,0-1.361-.833-1.361-1.919M.012,1.264V6.981c0,.7,0,1.408-.012,2.107H1.706a3.191,3.191,0,0,0,.069-.611,1.752,1.752,0,0,0,1.693.76c1.853,0,2.8-1.64,2.8-3.486,0-1.808-.875-3.256-2.629-3.256A2.018,2.018,0,0,0,1.8,3.328V0C-.1,0,.012,1.264.012,1.264"/></g><g transform="translate(7.073 3.286)"><path class="c" d="M1.789,4.609c0-.621.4-.949,1.474-.949h.727V3.83c0,.851-.139,1.639-1.273,1.639a.827.827,0,0,1-.928-.86M.3,2.061H2c.082-.467.247-.787,1-.787.827,0,.992.451.992.909v.394H3.068C1.179,2.577,0,3.254,0,4.722A1.993,1.993,0,0,0,2.209,6.743a1.9,1.9,0,0,0,1.812-.78,2.639,2.639,0,0,0,.09.63h1.7a14.493,14.493,0,0,1-.087-1.665V2.22C5.728.685,4.789.011,3.063,0H3.029C1.1,0,.395.923.3,2.061" transform="translate(0 0)"/></g><g transform="translate(14.415 3.287)"><path class="c" d="M1.8.97A7.614,7.614,0,0,0,1.728.149H0C.012.625.012,1.225.012,1.773v4.82H1.8V3c0-1.138.434-1.559,1.192-1.559.787,0,1.029.525,1.029,1.249v3.9H5.8v-4.1C5.8.874,4.961,0,3.666,0A1.967,1.967,0,0,0,1.8.97"/></g><g transform="translate(21.799 0.792)"><path class="c" d="M0,0V9.088H1.784V7.02l.825-.8L4.24,9.088H6.261L3.8,5.077,6.049,2.644H4C3.114,3.719,2.258,4.719,1.784,5.363V0Z"/></g><g transform="translate(28.486 3.286)"><path class="c" d="M1.789,4.609c0-.621.4-.949,1.474-.949h.727V3.83c0,.851-.139,1.639-1.273,1.639a.827.827,0,0,1-.928-.86M.3,2.061H2c.082-.467.247-.787,1-.787.827,0,.992.451.992.909v.394h-.92C1.179,2.577,0,3.254,0,4.722A1.993,1.993,0,0,0,2.209,6.743a1.9,1.9,0,0,0,1.812-.78,2.639,2.639,0,0,0,.09.63h1.7a14.528,14.528,0,0,1-.087-1.665V2.22C5.728.685,4.789.011,3.063,0H3.029C1.1,0,.395.923.3,2.061" transform="translate(0 0)"/></g><g transform="translate(34.993 3.436)"><path class="c" d="M4.559,0C3.79,2.709,3.413,4.154,3.273,4.8H3.261c-.1-.6-.683-2.58-1.348-4.8H0L2.345,6.641a1.126,1.126,0,0,1-1.227.94c-.144,0-.341-.012-.462-.026V8.988c.309.036.677.049.836.049,1.548,0,2.062-.553,2.678-2.407L6.336,0Z" transform="translate(0 0)"/></g><path class="c" d="M0,0" transform="translate(50.605 8.506)"/><g transform="translate(51.466 9.122)"><path class="c" d="M.567,0a.558.558,0,1,0,0,1.116A.558.558,0,1,0,.567,0m0,1.023A.452.452,0,0,1,.112.556a.454.454,0,1,1,.907,0,.451.451,0,0,1-.452.467" transform="translate(0 0)"/><path class="c" d="M.473.183C.473.056.4,0,.245,0H0V.644H.1V.365H.21L.38.644H.489L.306.36A.168.168,0,0,0,.473.183M.1.282v-.2H.23C.3.083.371.1.371.178c0,.1-.074.1-.157.1Z" transform="translate(0.351 0.236)"/><path class="c" d="M0,0" transform="translate(1.132 0.556)"/></g><path class="c" d="M3.767,4.19C3.1,3.32,1.688,1.47,1.091.657.728.162.511,0,.366,0A.234.234,0,0,0,.175.126,1.508,1.508,0,0,0,0,.791C0,2.559,1.651,3.87,2.527,4.439A2.444,2.444,0,0,0,2.2,5.786,1.506,1.506,0,0,0,3.711,7.292c.832,0,1.518-.131,1.518-.963A3.078,3.078,0,0,0,3.767,4.19Z" transform="translate(46.519 0)"/></g><g class="e" transform="translate(3989.67 -433.862)"><g transform="translate(116.008 12.892)"><g transform="translate(5.105 151.796) rotate(-60)"><path class="f" d="M26.985,4.458A47.2,47.2,0,0,0,1.125,57.451C5.794,78.586,24.733,93.528,47.149,93.689c14.82.172,6.808.138,14.665.116V68.678a8.217,8.217,0,0,0-2.1-.216c-5.084.061-10.191.089-15.253-.3-9.814-.754-17.576-8.688-19.051-19.1-1.275-9.01,4.907-18.89,13.961-22.3a20.243,20.243,0,0,1,24.462,7.629q15.677,23.145,31.337,46.3s9.2,13.029,21.374,12.963c5.561-.028,11.166.033,16.9.033-.028-2.146-1.236-3.177-2.024-4.363-4.8-7.224-9.669-14.41-14.515-21.6C106.036,51.6,95.585,35.179,84.186,19.439A45.872,45.872,0,0,0,46.856,0,47.094,47.094,0,0,0,26.985,4.458" transform="translate(0 0)"/></g><path class="f" d="M53.753,59.779c-9.5-12.4-29.662-38.8-38.184-50.4C10.39,2.318,7.3,0,5.223,0A3.342,3.342,0,0,0,2.5,1.8,21.52,21.52,0,0,0,0,11.288C-.066,36.515,23.558,55.216,36.05,63.339c-3.4,4.868-4.6,12.22-4.6,19.217a21.488,21.488,0,0,0,21.49,21.49c11.871,0,21.662-1.874,21.662-13.745C74.605,80.676,64.065,65.263,53.753,59.779Z" transform="translate(0 64.61) rotate(-60)"/></g></g><g transform="translate(4110.285 -204.776) rotate(-30)"><path class="g" d="M35.907,13.816a5.757,5.757,0,0,1,.083,8.116L21.932,35.989a5.757,5.757,0,0,1-8.116-.083l-12.1-12.1a5.755,5.755,0,0,1-.083-8.115L15.69,1.633a5.755,5.755,0,0,1,8.115.083Z" transform="translate(1.194 0)"/><path class="h" d="M35.906,13.816a5.756,5.756,0,0,1,.083,8.116L21.932,35.989a5.757,5.757,0,0,1-8.116-.083l-12.1-12.1a5.756,5.756,0,0,1-.083-8.115L15.69,1.633a5.756,5.756,0,0,1,8.116.083Z" transform="translate(0 0)"/><path class="i" d="M35.907,13.816a5.757,5.757,0,0,1,.082,8.116L21.932,35.989a5.757,5.757,0,0,1-8.115-.083l-12.1-12.1a5.755,5.755,0,0,1-.082-8.115L15.691,1.633a5.755,5.755,0,0,1,8.115.083Z" transform="translate(0.597 0)"/><g class="j" transform="translate(5.378 4.781)"><rect width="31.24" height="0.844" transform="translate(0 22.09) rotate(-45)"/></g><g class="j" transform="translate(5.975 5.378)"><rect class="c" width="31.24" height="0.844" transform="translate(0 22.09) rotate(-45.001)"/></g><g class="j" transform="translate(1.497 1.497)"><rect width="24.486" height="0.844" transform="matrix(0.707, -0.707, 0.707, 0.707, 0, 17.315)"/></g><g class="j" transform="translate(2.094 2.094)"><rect class="c" width="24.486" height="0.844" transform="translate(0 17.314) rotate(-45.001)"/></g><g class="j" transform="translate(18.214 18.214)"><rect width="24.485" height="0.844" transform="translate(0 17.313) rotate(-44.999)"/></g><g class="j" transform="translate(18.811 18.811)"><rect class="c" width="24.485" height="0.845" transform="matrix(0.707, -0.707, 0.707, 0.707, 0, 17.313)"/></g><g class="j" transform="translate(8.363 7.766)"><rect width="31.24" height="0.844" transform="translate(0 22.09) rotate(-45.001)"/></g><g class="j" transform="translate(8.96 8.363)"><rect class="c" width="31.24" height="0.845" transform="matrix(0.707, -0.707, 0.707, 0.707, 0, 22.091)"/></g><g class="j" transform="translate(11.348 10.751)"><rect width="31.24" height="0.844" transform="matrix(0.707, -0.707, 0.707, 0.707, 0, 22.09)"/></g><g class="j" transform="translate(11.945 11.348)"><rect class="c" width="31.241" height="0.845" transform="matrix(0.707, -0.707, 0.707, 0.707, 0, 22.091)"/></g><path class="k" d="M6.568,0,5.373,1.194,4.179,0,0,4.179,1.194,5.374,0,6.567l10.15,10.15,1.194-1.194,1.194,1.194,4.179-4.179-1.194-1.195,1.194-1.193Z" transform="translate(11.348 10.154)"/><path class="l" d="M6.568,0,5.374,1.194,4.179,0,0,4.179,1.194,5.374,0,6.567l10.15,10.15,1.194-1.194,1.194,1.194,4.179-4.179-1.194-1.195,1.194-1.193Z" transform="translate(12.542 10.154)"/></g><g transform="translate(4215.444 -313.446) rotate(-76)"><path class="c" d="M0,10.762,1.833,0H4.768L2.931,10.762Z" transform="translate(12.764 0.187)"/><path class="c" d="M8.8.452A7.565,7.565,0,0,0,6.173,0c-2.9,0-4.94,1.459-4.958,3.552C1.2,5.1,2.672,5.961,3.785,6.475,4.927,7,5.311,7.34,5.306,7.81c-.008.721-.913,1.05-1.756,1.05A6.145,6.145,0,0,1,.789,8.3L.412,8.126,0,10.535a9.275,9.275,0,0,0,3.268.573c3.084,0,5.085-1.442,5.108-3.677.011-1.224-.77-2.155-2.462-2.923-1.026-.5-1.654-.83-1.648-1.334,0-.447.532-.926,1.681-.926A5.394,5.394,0,0,1,8.14,2.66l.264.124L8.8.452Z" transform="translate(17.533 0)"/><path class="c" d="M8.159,0H5.892A1.46,1.46,0,0,0,4.356.893L0,10.755H3.081s.5-1.326.617-1.617l3.757,0c.087.377.356,1.612.356,1.612h2.723L8.159,0ZM4.541,6.937c.243-.62,1.168-3.009,1.168-3.009-.016.029.241-.623.389-1.027l.2.928.679,3.108Z" transform="translate(25.698 0.197)"/><path class="c" d="M7.241,0,4.369,7.339,4.062,5.848A8.388,8.388,0,0,0,0,1.333l2.626,9.412,3.1,0L10.348,0Z" transform="translate(3.063 0.195)"/><path class="c" d="M4.768,0H.036L0,.224c3.68.891,6.115,3.044,7.124,5.631L6.1.908A1.228,1.228,0,0,0,4.768,0Z" transform="translate(0 0.188)"/></g></g></g></g></svg>