<svg xmlns="http://www.w3.org/2000/svg" width="169.016" height="40.079" viewBox="0 0 169.016 40.079"><defs><style>.a{fill:#fff;}</style></defs><path class="a" d="M328.846,425.283" transform="translate(-233.292 -397.946)"/><g transform="translate(133.053 10.814)"><path class="a" d="M364.954,413.054a10.54,10.54,0,0,0,4.541,20.1c3.338.039,1.533.031,3.3.026v-5.659a1.852,1.852,0,0,0-.472-.049c-1.145.014-2.3.02-3.435-.067a4.829,4.829,0,0,1-4.29-4.3,4.925,4.925,0,0,1,3.144-5.022,4.559,4.559,0,0,1,5.509,1.718q3.531,5.213,7.058,10.428s2.072,2.934,4.814,2.919c1.252-.006,2.515.008,3.806.008a1.624,1.624,0,0,0-.456-.983c-1.081-1.627-2.178-3.245-3.269-4.865-2.449-3.631-4.8-7.33-7.37-10.875a10.331,10.331,0,0,0-8.407-4.378,10.607,10.607,0,0,0-4.475,1" transform="translate(-358.877 -412.05)"/></g><g transform="translate(0 2.546)"><path class="a" d="M257.835,424.388c0-4.219,1.161-6.352,4.437-6.352,3.1,0,4.379,2.531,4.379,5.982,0,3.916-1.53,6.536-4.443,6.536-3.341,0-4.373-2.677-4.373-6.166m-5.473-14.9V427.86c0,2.245,0,4.525-.04,6.77H257.8a10.253,10.253,0,0,0,.221-1.963c1,1.506,2.361,2.444,5.439,2.444,5.954,0,9-5.269,9-11.2,0-5.809-2.811-10.464-8.447-10.464-3.356,0-5.071,1.347-5.925,2.678V405.429c-6.084,0-5.734,4.062-5.734,4.062" transform="translate(-252.322 -405.429)"/></g><g transform="translate(22.73 10.56)"><path class="a" d="M276.273,426.659c0-2,1.281-3.051,4.736-3.051h2.335v.544c0,2.735-.447,5.268-4.089,5.268a2.659,2.659,0,0,1-2.982-2.762m-4.787-8.189h5.452c.264-1.5.794-2.529,3.214-2.529,2.658,0,3.188,1.449,3.188,2.921v1.265h-2.954c-6.071,0-9.86,2.176-9.86,6.894,0,3.212,2.107,6.494,7.1,6.494,3.664,0,5.071-1.341,5.821-2.5a8.488,8.488,0,0,0,.29,2.024h5.478a46.581,46.581,0,0,1-.281-5.349v-8.706c0-4.93-3.018-7.1-8.565-7.131h-.11c-6.212,0-8.464,2.966-8.772,6.623" transform="translate(-270.525 -411.847)"/></g><g transform="translate(46.321 10.561)"><path class="a" d="M295.192,414.966a24.423,24.423,0,0,0-.221-2.638h-5.553c.04,1.53.04,3.456.04,5.217v15.49h5.734V421.5c0-3.656,1.394-5.011,3.83-5.011,2.53,0,3.305,1.687,3.305,4.015v12.535h5.734V419.862c0-5.2-2.7-8.014-6.863-8.014-3.627,0-5.3,1.818-6.006,3.118" transform="translate(-289.418 -411.848)"/></g><g transform="translate(70.048 2.546)"><path class="a" d="M308.42,405.429v29.2h5.734v-6.644l2.651-2.567,5.239,9.211h6.5l-7.9-12.886,7.217-7.82h-6.575c-2.856,3.455-5.6,6.67-7.127,8.737V405.429Z" transform="translate(-308.42 -405.429)"/></g><g transform="translate(91.537 10.56)"><path class="a" d="M331.377,426.659c0-2,1.281-3.051,4.736-3.051h2.335v.544c0,2.735-.447,5.268-4.091,5.268a2.658,2.658,0,0,1-2.981-2.762m-4.787-8.189h5.452c.263-1.5.794-2.529,3.214-2.529,2.658,0,3.189,1.449,3.189,2.921v1.265h-2.956c-6.071,0-9.86,2.176-9.86,6.894,0,3.212,2.106,6.494,7.1,6.494,3.662,0,5.071-1.341,5.821-2.5a8.483,8.483,0,0,0,.29,2.024h5.477a46.662,46.662,0,0,1-.28-5.349v-8.706c0-4.93-3.018-7.1-8.565-7.131h-.11c-6.212,0-8.464,2.966-8.772,6.623" transform="translate(-325.629 -411.847)"/></g><g transform="translate(112.445 11.041)"><path class="a" d="M357.024,412.232c-2.472,8.706-3.685,13.347-4.133,15.435h-.04c-.328-1.914-2.194-8.29-4.333-15.435h-6.145l7.536,21.341c-.775,2.289-1.837,3.019-3.942,3.019-.465,0-1.1-.04-1.483-.085v4.606c.991.116,2.176.156,2.686.156,4.973,0,6.625-1.778,8.6-7.734l6.958-21.3Z" transform="translate(-342.373 -412.232)"/></g><path class="a" d="M382.551,425.28" transform="translate(-219.937 -397.947)"/><g transform="translate(165.38 29.311)"><path class="a" d="M386.589,426.864a1.793,1.793,0,1,0,1.813,1.788,1.791,1.791,0,0,0-1.813-1.788m0,3.288a1.495,1.495,0,1,1,1.451-1.5,1.452,1.452,0,0,1-1.451,1.5" transform="translate(-384.766 -426.864)"/><path class="a" d="M387.19,428.06c0-.407-.242-.588-.732-.588h-.788v2.069h.315v-.9h.36l.547.9h.351l-.589-.912a.538.538,0,0,0,.537-.569m-1.2.318v-.641h.426c.219,0,.452.047.452.3,0,.316-.238.336-.5.336Z" transform="translate(-384.541 -426.713)"/><path class="a" d="M387.678,428.3" transform="translate(-384.042 -426.508)"/></g><path class="a" d="M384.141,416.853c-2.139-2.793-6.68-8.738-8.6-11.352-1.166-1.59-1.863-2.112-2.33-2.112a.753.753,0,0,0-.613.4,4.846,4.846,0,0,0-.563,2.138c-.015,5.682,5.306,9.893,8.119,11.723a7.854,7.854,0,0,0-1.035,4.328,4.839,4.839,0,0,0,4.84,4.84c2.673,0,4.879-.422,4.879-3.1C388.837,421.559,386.463,418.088,384.141,416.853Z" transform="translate(-222.552 -403.39)"/></svg>