<svg xmlns="http://www.w3.org/2000/svg" xmlns:xlink="http://www.w3.org/1999/xlink" width="237" height="56.2" viewBox="0 0 237 56.2"><defs><style>.a{fill:#fff;}.b{fill:url(#a);}.c{fill:url(#b);}.d{fill:url(#c);}.e{fill:url(#d);}.f{fill:url(#e);}.g{fill:url(#f);}.h{fill:url(#g);}.i{fill:#f06028;}.j{fill:url(#h);}</style><linearGradient id="a" x1="0.739" y1="-0.311" x2="-0.163" y2="3.538" gradientUnits="objectBoundingBox"><stop offset="0" stop-color="#f17b21"/><stop offset="0.017" stop-color="#f17b21"/><stop offset="0.305" stop-color="#ee3931"/><stop offset="0.74" stop-color="#eb2c4b"/><stop offset="1" stop-color="#ec1977"/></linearGradient><linearGradient id="b" x1="0.444" y1="0.5" x2="5.649" y2="0.5" gradientUnits="objectBoundingBox"><stop offset="0" stop-color="#04518f"/><stop offset="1" stop-color="#059ad6"/></linearGradient><linearGradient id="c" x1="-0.738" y1="0.5" x2="4.873" y2="0.5" xlink:href="#b"/><linearGradient id="d" x1="-2.005" y1="0.5" x2="3.62" y2="0.5" xlink:href="#b"/><linearGradient id="e" x1="-3.037" y1="0.5" x2="2.175" y2="0.5" xlink:href="#b"/><linearGradient id="f" x1="-4.42" y1="0.5" x2="1.191" y2="0.5" xlink:href="#b"/><linearGradient id="g" x1="0.764" y1="-0.547" x2="-0.568" y2="2.253" xlink:href="#a"/><linearGradient id="h" x1="0.613" y1="0.245" x2="-1.001" y2="3.716" xlink:href="#a"/></defs><path class="a" d="M328.846,425.283" transform="translate(-194.857 -386.95)"/><g transform="translate(186.571 15.163)"><path class="b" d="M367.4,413.458a14.779,14.779,0,0,0,6.368,28.18c4.68.054,2.15.044,4.631.037v-7.935a2.594,2.594,0,0,0-.662-.068c-1.606.019-3.218.028-4.817-.095a6.771,6.771,0,0,1-6.016-6.032,6.906,6.906,0,0,1,4.409-7.042,6.393,6.393,0,0,1,7.725,2.409q4.951,7.309,9.9,14.622s2.9,4.115,6.75,4.094c1.756-.009,3.526.011,5.337.011a2.278,2.278,0,0,0-.639-1.378c-1.516-2.281-3.054-4.551-4.584-6.822-3.434-5.092-6.734-10.278-10.334-15.249a14.487,14.487,0,0,0-11.789-6.139,14.873,14.873,0,0,0-6.275,1.408" transform="translate(-358.877 -412.05)"/></g><g transform="translate(0 3.57)"><path class="c" d="M260.052,432.013c0-5.916,1.628-8.907,6.221-8.907,4.341,0,6.141,3.549,6.141,8.389,0,5.491-2.145,9.164-6.23,9.164-4.686,0-6.132-3.754-6.132-8.646m-7.674-20.889v25.758c0,3.148,0,6.345-.056,9.494h7.688a14.377,14.377,0,0,0,.31-2.752c1.408,2.112,3.311,3.427,7.627,3.427,8.348,0,12.624-7.389,12.624-15.709,0-8.145-3.941-14.673-11.845-14.673-4.707,0-7.111,1.889-8.308,3.756v-15c-8.531,0-8.04,5.7-8.04,5.7" transform="translate(-252.322 -405.429)"/></g><g transform="translate(31.872 14.808)"><path class="d" d="M278.585,432.617c0-2.8,1.8-4.278,6.641-4.278H288.5v.763c0,3.835-.627,7.387-5.734,7.387-2.891,0-4.181-1.77-4.181-3.873m-6.713-11.483h7.645c.37-2.1,1.114-3.546,4.507-3.546,3.728,0,4.47,2.031,4.47,4.1v1.774H284.35c-8.513,0-13.825,3.052-13.825,9.667,0,4.5,2.954,9.107,9.954,9.107,5.137,0,7.111-1.881,8.163-3.512a11.9,11.9,0,0,0,.406,2.838h7.681a65.314,65.314,0,0,1-.394-7.5V421.848c0-6.913-4.232-9.951-12.01-10l-.154,0c-8.711,0-11.868,4.159-12.3,9.287" transform="translate(-270.525 -411.847)"/></g><g transform="translate(64.953 14.809)"><path class="e" d="M297.514,416.22a34.255,34.255,0,0,0-.31-3.7h-7.786c.056,2.145.056,4.847.056,7.315v21.72h8.04v-16.18c0-5.127,1.954-7.027,5.37-7.027,3.547,0,4.635,2.365,4.635,5.629v17.578h8.04V423.085c0-7.3-3.789-11.237-9.623-11.237-5.086,0-7.435,2.549-8.422,4.372" transform="translate(-289.418 -411.848)"/></g><g transform="translate(98.224 3.57)"><path class="f" d="M308.42,405.429v40.947h8.04V437.06l3.717-3.6,7.347,12.917h9.108l-11.078-18.07,10.12-10.966h-9.22c-4,4.845-7.858,9.354-9.994,12.251V405.429Z" transform="translate(-308.42 -405.429)"/></g><g transform="translate(128.356 14.808)"><path class="g" d="M333.689,432.617c0-2.8,1.8-4.278,6.641-4.278H343.6v.763c0,3.835-.627,7.387-5.736,7.387-2.889,0-4.179-1.77-4.179-3.873m-6.713-11.483h7.645c.37-2.1,1.114-3.546,4.507-3.546,3.728,0,4.472,2.031,4.472,4.1v1.774h-4.144c-8.513,0-13.825,3.052-13.825,9.667,0,4.5,2.954,9.107,9.954,9.107,5.136,0,7.111-1.881,8.163-3.512a11.9,11.9,0,0,0,.406,2.838h7.68a65.441,65.441,0,0,1-.392-7.5V421.848c0-6.913-4.232-9.951-12.01-10l-.154,0c-8.711,0-11.868,4.159-12.3,9.287" transform="translate(-325.629 -411.847)"/></g><g transform="translate(157.674 15.482)"><path class="h" d="M362.917,412.232c-3.467,12.208-5.167,18.716-5.8,21.643h-.056c-.46-2.684-3.076-11.624-6.076-21.643h-8.616l10.567,29.925c-1.087,3.209-2.576,4.234-5.528,4.234-.651,0-1.536-.056-2.08-.119v6.459c1.39.163,3.052.219,3.766.219,6.974,0,9.29-2.493,12.066-10.845l9.756-29.873Z" transform="translate(-342.373 -412.232)"/></g><path class="a" d="M382.551,425.28" transform="translate(-154.528 -386.952)"/><g transform="translate(231.901 41.102)"><path class="i" d="M387.322,426.864a2.514,2.514,0,1,0,2.542,2.507,2.511,2.511,0,0,0-2.542-2.507m0,4.61a2.1,2.1,0,1,1,2.035-2.1,2.035,2.035,0,0,1-2.035,2.1" transform="translate(-384.766 -426.864)"/><path class="i" d="M387.8,428.3c0-.571-.34-.825-1.026-.825h-1.1v2.9h.441v-1.257h.5l.767,1.257h.492l-.826-1.278a.755.755,0,0,0,.753-.8m-1.69.446v-.9h.6c.306,0,.634.067.634.427,0,.443-.334.471-.706.471Z" transform="translate(-384.087 -426.407)"/><path class="i" d="M387.678,428.3" transform="translate(-382.579 -425.789)"/></g><path class="j" d="M389.01,422.269c-3-3.917-9.368-12.253-12.059-15.918-1.635-2.229-2.612-2.961-3.267-2.961a1.055,1.055,0,0,0-.86.567,6.8,6.8,0,0,0-.79,3c-.021,7.967,7.44,13.873,11.385,16.438a11.014,11.014,0,0,0-1.452,6.069,6.786,6.786,0,0,0,6.787,6.787c3.749,0,6.841-.592,6.841-4.341C395.6,428.868,392.267,424,389.01,422.269Z" transform="translate(-162.425 -403.39)"/></svg>