<svg xmlns="http://www.w3.org/2000/svg" width="90" height="92" viewBox="0 0 90 92"><defs><style>.a{fill:#ebebeb;}.b{fill:#fbfbfb;}.c{fill:#ef572a;}.d{fill:#0586c3;}</style></defs><g transform="translate(-84 -2313)"><g transform="translate(4 -7)"><g transform="translate(-3293 3674)"><ellipse class="a" cx="45" cy="45.5" rx="45" ry="45.5" transform="translate(3373 -1353)"/></g><circle class="b" cx="45" cy="45" r="45" transform="translate(80 2320)"/></g><g transform="translate(100 2332.896)"><path class="c" d="M60.445,596.608a22.872,22.872,0,0,0,3.827.323c6.474-.008,12.948.048,19.422-.025a19.393,19.393,0,0,0,18.522-15.984,3.411,3.411,0,0,1,.313-1.457v-.571c-.133-.028-.108-.126-.1-.22-.018-.1-.008-.187.1-.235v-1.828c-.115-.076-.135-.152,0-.227V575.7a.311.311,0,0,1-.058-.2c-.178-.654-.188-1.341-.338-2-.581-2.556-1.526-5-2.331-7.483-1.446-4.468-2.937-8.92-4.389-13.385a.537.537,0,0,0-.624-.45c-4.078.013-8.153,0-12.229.018-.451,0-.551-.121-.546-.558.025-1.94,0-3.879.02-5.819.005-.4-.1-.492-.494-.492q-8.012.023-16.023,0c-.393,0-.5.088-.5.492.025,1.96,0,3.917.023,5.877,0,.394-.085.5-.489.5-4.078-.018-8.153-.005-12.229-.02a.6.6,0,0,0-.7.505q-3.1,9.508-6.228,19a18.305,18.305,0,0,0-.754,3.614c-.013.1.03.235-.115.288v.8c.135.076.115.151,0,.227v1.828c.108.048.115.136.093.237-.008.119.1.268-.093.333v.454a3.534,3.534,0,0,1,.313,1.457A19.482,19.482,0,0,0,60.445,596.608Zm14.893-47.764c.3-.265,1-.088,1.529-.076.576.013,1.348-.252,1.674.109.286.316.1,1.083.08,1.652-.013.543.241,1.268-.1,1.576-.3.268-1.005.091-1.529.078-.579-.015-1.351.253-1.674-.111-.281-.313-.058-1.081-.058-1.649C75.276,549.88,74.995,549.155,75.338,548.844Zm-6.825.028c.306-.346,1.028-.091,1.566-.1.561-.015,1.323-.2,1.637.081.358.328.1,1.106.11,1.687.013.531.188,1.24-.078,1.541-.308.351-1.028.051-1.566.081-.561,0-1.326.225-1.637-.058-.358-.326-.1-1.1-.11-1.687C68.423,549.885,68.248,549.173,68.513,548.872Zm-14.351,7a.308.308,0,0,1,.366-.26c.11.01.226,0,.338,0q18.662,0,37.322-.01c.461,0,.694.1.827.583.258.947.594,1.871.907,2.834H53.134C53.483,557.954,53.829,556.913,54.162,555.87Zm-5.406,16.435c1.02-3.111,2.058-6.22,3.06-9.336.14-.432.341-.52.759-.52q10.474.023,20.953.01t20.956-.01c.416,0,.619.086.757.518,1.1,3.465,2.368,6.884,3.331,10.387a16.01,16.01,0,0,1-12.88,19.941,17.329,17.329,0,0,1-2.7.212q-9.459,0-18.916,0a15.972,15.972,0,0,1-15.863-13.1A15.809,15.809,0,0,1,48.756,572.306Z" transform="translate(-44.53 -545.329)"/><path class="c" d="M44.588,558.553v-.015a.446.446,0,0,1-.058-.008v.344C44.623,558.78,44.575,558.661,44.588,558.553Z" transform="translate(-44.53 -525.191)"/><path class="c" d="M44.53,557.626v.227A.148.148,0,0,0,44.53,557.626Z" transform="translate(-44.53 -526.57)"/><path class="c" d="M67.7,557.853v-.227A.148.148,0,0,0,67.7,557.853Z" transform="translate(-9.703 -526.57)"/><path class="c" d="M44.588,558.634a.229.229,0,0,0-.058-.194v.227C44.553,558.634,44.57,558.627,44.588,558.634Z" transform="translate(-44.53 -525.329)"/><path class="c" d="M44.553,558.517v.04l.035,0A.07.07,0,0,0,44.553,558.517Z" transform="translate(-44.495 -525.211)"/><path class="c" d="M67.648,558.672l.058-.005v-.227c-.071.061-.056.146-.058.227Z" transform="translate(-9.706 -525.329)"/><path class="c" d="M67.648,558.565a.226.226,0,0,0,.058.192v-.227C67.688,558.56,67.668,558.57,67.648,558.565Z" transform="translate(-9.706 -525.191)"/><path class="c" d="M67.672,558.532l-.04,0a.116.116,0,0,0,.04.028Z" transform="translate(-9.73 -525.188)"/><path class="d" d="M53.935,567.226c3.081-.023,6.162,0,9.243-.02.391,0,.518.081.5.49-.038.836-.03,1.674,0,2.51.01.346-.071.447-.434.442-1.558-.023-3.119-.008-4.677-.008-1.578,0-3.157.01-4.735-.01-.343,0-.457.068-.444.432.03.856.025,1.712,0,2.568-.01.343.071.45.432.442,1.447-.023,2.892,0,4.336-.015.29,0,.391.063.384.374-.02.891.005,1.788-.013,2.68-.005.293.066.391.374.384.894-.02,1.788-.018,2.682,0,.293,0,.389-.068.381-.376-.02-.874.01-1.75-.015-2.624-.01-.346.076-.447.434-.439,1.407.023,2.816-.008,4.223.017.4.008.5-.088.5-.492q-.027-4.621,0-9.243c0-.437-.093-.561-.548-.558-3.081.023-6.162.005-9.243.023-.391,0-.52-.081-.5-.492.038-.8.038-1.6,0-2.394-.018-.437.1-.563.551-.561,3.081.023,6.162.005,9.243.023.391,0,.518-.081.5-.49-.038-.836-.03-1.674,0-2.51.01-.343-.071-.45-.434-.445-1.445.025-2.889,0-4.336.018-.288,0-.391-.066-.384-.374.023-.894,0-1.788.015-2.682.005-.29-.066-.391-.374-.384-.894.023-1.788.02-2.682,0-.293-.008-.389.068-.381.374.02.874-.013,1.75.015,2.624.01.349-.076.447-.434.442-1.407-.023-2.816.005-4.223-.02-.4-.007-.5.089-.5.493q.03,4.622,0,9.243C53.382,567.1,53.48,567.231,53.935,567.226Z" transform="translate(-31.244 -532.849)"/></g></g></svg>