<svg xmlns="http://www.w3.org/2000/svg" width="90" height="92" viewBox="0 0 90 92"><defs><style>.a{fill:#ebebeb;}.b{fill:#fbfbfb;}.c{fill:#ef572a;}.d{fill:#0586c3;}</style></defs><g transform="translate(-84 -2423)"><g transform="translate(4 103)"><g transform="translate(-3293 3674)"><ellipse class="a" cx="45" cy="45.5" rx="45" ry="45.5" transform="translate(3373 -1353)"/></g><circle class="b" cx="45" cy="45" r="45" transform="translate(80 2320)"/></g><g transform="translate(9.665 2357.583)"><g transform="translate(96.335 85.417)"><path class="c" d="M70.736,123.42l-.818,8.224a1.523,1.523,0,0,0,.545,1.318,1.426,1.426,0,0,0,.954.318l.454-.091,8.542-2.726a2.536,2.536,0,0,1,1.636-.045,22.822,22.822,0,0,0,9.587,1.091,23.117,23.117,0,0,0,12.721-40.482,22.866,22.866,0,0,0-18.128-5.407,23.133,23.133,0,0,0-15.948,36.029A2.607,2.607,0,0,1,70.736,123.42Zm-1.409-17.265A20.247,20.247,0,0,1,86.592,88.572a17.969,17.969,0,0,1,2.68-.136,20.089,20.089,0,0,1,2.045,40.073A20.592,20.592,0,0,1,83,127.6a5.572,5.572,0,0,0-3.544.045l-6.361,2,.591-5.906a5.593,5.593,0,0,0-.909-3.771A19.94,19.94,0,0,1,69.328,106.155Z" transform="translate(-66.206 -85.416)"/></g><g transform="translate(107.146 96.762)"><path class="d" d="M67.932,110.189a1.774,1.774,0,0,0,1.091-.454L90.512,88.2a1.453,1.453,0,0,0,0-2.09,1.507,1.507,0,0,0-2.135,0L66.887,107.6a1.508,1.508,0,0,0,0,2.135A1.564,1.564,0,0,0,67.932,110.189Z" transform="translate(-66.444 -85.666)"/></g><g transform="translate(120.572 110.199)"><path class="d" d="M68.341,87.6a5.543,5.543,0,0,0,3.953,9.45A5.508,5.508,0,0,0,76.2,95.412a5.542,5.542,0,0,0-7.86-7.814Zm5.725,5.724a2.568,2.568,0,1,1,0-3.589A2.523,2.523,0,0,1,74.066,93.322Z" transform="translate(-66.74 -85.962)"/></g><g transform="translate(107.169 96.819)"><path class="d" d="M71.954,96.685a5.654,5.654,0,0,0,3.907-1.59,5.539,5.539,0,0,0,0-7.86,5.542,5.542,0,1,0-3.907,9.45ZM70.182,89.37a2.523,2.523,0,0,1,3.544,0,2.523,2.523,0,0,1,0,3.589,2.469,2.469,0,0,1-3.544,0A2.523,2.523,0,0,1,70.182,89.37Z" transform="translate(-66.445 -85.668)"/></g></g></g></svg>