<svg xmlns="http://www.w3.org/2000/svg" width="90" height="92" viewBox="0 0 90 92"><defs><style>.a{fill:#ebebeb;}.b{fill:#fbfbfb;}.c{fill:#0586c3;}.d{fill:#ef572a;}.e{fill:#fff;}</style></defs><g transform="translate(-470 -2413)"><g transform="translate(390 93)"><g transform="translate(-3293 3674)"><ellipse class="a" cx="45" cy="45.5" rx="45" ry="45.5" transform="translate(3373 -1353)"/></g><circle class="b" cx="45" cy="45" r="45" transform="translate(80 2320)"/></g><g transform="translate(248.203 1811.156)"><path class="c" d="M245.1,654.235q18.819,0,37.639,0c1.862,0,2.072.176,2.021-2,0-.189-.006-.379,0-.568.029-.52.134-.629.664-.649s1.043,0,1.563-.012c.706-.017.959-.27.987-.984.017-.459,0-.917.006-1.376.008-.781.082-.852.88-.861a3.949,3.949,0,0,0,2.5-.417V625.84a2.261,2.261,0,0,0-.568-.568H249.816a1.17,1.17,0,0,0-.557,1.154c.021.538-.027,1.077.015,1.611.034.421-.124.494-.5.473-.584-.031-1.169-.015-1.753-.006a.871.871,0,0,0-.991.991c-.01.585-.038,1.173.01,1.753.036.446-.132.524-.524.5-.519-.033-1.043.007-1.563-.012a1.172,1.172,0,0,0-1.156.555v21.528A3.342,3.342,0,0,0,245.1,654.235Zm5.777-26.29c.036-1.058.012-1.058,1.052-1.058h18.394q9.458,0,18.916-.01c.408,0,.517.082.517.505q-.026,9.223,0,18.444c0,.436-.126.511-.522.5-1.1-.027-1.106-.008-1.106-1.093v-15.5c0-.991-.239-1.23-1.229-1.23q-17.731,0-35.464.011C250.968,628.514,250.855,628.4,250.873,627.945Zm-3.24,3.238c.038-1.064.012-1.064,1.1-1.064h18.348q9.458,0,18.916-.01c.4,0,.526.069.526.507q-.026,9.22,0,18.442c0,.442-.132.543-.526.5-.356-.044-.846.151-1.039-.08-.18-.216-.065-.689-.065-1.049q0-7.727,0-15.457c0-.987-.243-1.23-1.23-1.23q-17.731,0-35.464.011C247.732,631.75,247.617,631.639,247.633,631.183Zm-2.708,2.164q18.9.017,37.793,0c.465,0,.565.122.563.572q-.026,9.177,0,18.352c0,.4-.073.524-.507.522q-9.484-.026-18.966-.012-9.461,0-18.92.012c-.4,0-.482-.105-.482-.492q.02-9.223,0-18.446C244.4,633.418,244.525,633.348,244.925,633.348Z" transform="translate(0 0.014)"/><path class="d" d="M279.573,650.6a1.951,1.951,0,0,0,.532-.653v-.379c-.331-.054-.44-.377-.675-.553q-4.578-3.413-9.141-6.845a1.926,1.926,0,0,0-.32-.2.636.636,0,0,0-1,.578c-.038.677-.013,1.357-.012,2.036,0,1.305.038,1.24-1.248,1.24q-5.523,0-11.042,0c-1.338,0-1.558.224-1.558,1.579q0,2.368,0,4.738c0,.126,0,.253,0,.379.036.922.293,1.177,1.215,1.177q5.8.006,11.608,0c1.016,0,1.02.006,1.02,1.035,0,.6,0,1.2,0,1.8a3.629,3.629,0,0,0,.333,2.141h.475a21.941,21.941,0,0,0,2.421-1.931C274.656,654.7,277.11,652.643,279.573,650.6Zm-9.174,2.842c0-1.012-.22-1.236-1.211-1.236q-6.042,0-12.085.008c-.367,0-.482-.084-.475-.465.025-1.3.034-2.591,0-3.885-.013-.467.155-.526.559-.524,3.98.013,7.961.008,11.941.008,1.062,0,1.273-.214,1.275-1.276,0-.6,0-1.2.01-1.8,0-.023.029-.046.065-.1l7.517,5.634-7.591,6.328Z" transform="translate(11.251 15.174)"/><path class="d" d="M246.7,651.777c.536.023.781-.306.783-.863.01-2.019.013-4.038,0-6.057,0-.587-.233-.852-.819-.892-.959-.065-1.923-.036-2.884-.013-.388.009-.628.346-.986.411v7.017C244.033,652.153,245.4,651.721,246.7,651.777Zm-2.293-2.719c0-1.087.01-2.176-.006-3.263,0-.27.073-.358.343-.341.408.027.942-.138,1.192.065.266.212.069.767.084,1.173s0,.819,0,1.229c0,.695-.01,1.387,0,2.082.006.241-.063.316-.316.323C244.412,650.366,244.412,650.376,244.412,649.057Z" transform="translate(0 17.056)"/><path class="e" d="M268.443,625.854q.161-.729-.568-.568A.71.71,0,0,1,268.443,625.854Z" transform="translate(22.912 0)"/><path class="d" d="M249.848,644.837c-.258-.264-.8-.048-1.217-.092-.276-.029-.341.077-.337.341.013,1.087.006,2.176.006,3.265,0,1.315,0,1.307,1.309,1.265.256-.008.316-.09.31-.327-.013-.71,0-1.42,0-2.13,0-.394,0-.789,0-1.183S250.049,645.043,249.848,644.837Z" transform="translate(5.022 17.767)"/><path class="d" d="M254.143,647.142c0-.695-.008-1.389.006-2.086,0-.231-.038-.348-.306-.331a8.674,8.674,0,0,1-1,0c-.239-.011-.333.057-.331.316.012,1.407.01,2.813,0,4.218,0,.235.048.35.312.335a8.2,8.2,0,0,1,1,0c.247.013.327-.071.323-.32C254.135,648.563,254.143,647.853,254.143,647.142Z" transform="translate(8.88 17.785)"/><path class="c" d="M245.478,642.5a3.287,3.287,0,0,1,3.052,3.016c.073.85.3,1.016,1.152,1.016H275c.739,0,1.018-.241,1.062-.967a3.252,3.252,0,0,1,2.958-3.048c.88-.061,1.083-.323,1.085-1.206v-5.737c0-.888-.207-1.114-1.085-1.2a3.237,3.237,0,0,1-2.939-2.867c-.119-1.018-.283-1.165-1.317-1.165q-12.469,0-24.941,0a4.632,4.632,0,0,0-.564.031.754.754,0,0,0-.7.71c-.023.155-.044.312-.065.469a3.2,3.2,0,0,1-2.968,2.825c-.809.075-1.037.323-1.037,1.15q0,2.917,0,5.831C244.487,642.165,244.689,642.46,245.478,642.5Zm.616-6.187c0-.3.105-.391.377-.465a4.672,4.672,0,0,0,3.515-3.531c.084-.322.249-.358.532-.358q5.879.012,11.759.006c3.919,0,7.84.008,11.759-.011.383,0,.5.136.593.469a4.657,4.657,0,0,0,3.412,3.4c.314.088.461.19.454.557-.027,1.391-.019,2.782,0,4.174a.406.406,0,0,1-.362.48,4.691,4.691,0,0,0-3.527,3.523c-.075.278-.176.367-.467.366q-11.855-.011-23.708,0c-.289,0-.371-.105-.436-.348a4.69,4.69,0,0,0-3.556-3.548.381.381,0,0,1-.343-.448Q246.12,638.448,246.094,636.313Z" transform="translate(1.543 4.647)"/><path class="c" d="M255.662,640.538a4.038,4.038,0,0,0,.128-8.076,4.038,4.038,0,1,0-.128,8.076Zm.078-6.46a2.44,2.44,0,0,1,2.4,2.419,2.413,2.413,0,0,1-2.432,2.426,2.441,2.441,0,0,1-2.417-2.405A2.469,2.469,0,0,1,255.741,634.078Z" transform="translate(8.112 6.582)"/></g></g></svg>