<svg xmlns="http://www.w3.org/2000/svg" width="47.894" height="47.893" viewBox="0 0 47.894 47.893"><defs><style>.a{fill:none;stroke:#fff;stroke-miterlimit:10;stroke-width:1.43px;}.b{fill:#fff;}</style></defs><g transform="translate(-226.053 -138.751)"><path class="a" d="M250,185.929h0A23.232,23.232,0,0,1,226.768,162.7h0A23.231,23.231,0,0,1,250,139.466h0A23.232,23.232,0,0,1,273.232,162.7h0A23.232,23.232,0,0,1,250,185.929Z"/><path class="b" d="M246.861,175.148h5.015V162.591h3.5l.373-4.2h-3.871v-2.394c0-.992.2-1.383,1.157-1.383h2.714v-4.364h-3.472c-3.731,0-5.414,1.644-5.414,4.789v3.352h-2.608v4.257h2.608Z"/></g></svg>