<svg xmlns="http://www.w3.org/2000/svg" width="187.723" height="42.637" viewBox="0 0 187.723 42.637">
  <g id="fpop_icon" transform="translate(-8)">
    <text id="TELEFONÍA_CELULAR" data-name="TELEFONÍA CELULAR" transform="translate(163 40.637)" fill="#fff" font-size="11" font-family="Arial-BoldMT, Arial" font-weight="700"><tspan x="-117.53" y="0">TELEFONÍA CELULAR</tspan></text>
    <g id="LogoFreedom" transform="translate(8)">
      <path id="Trazado_5" data-name="Trazado 5" d="M112.428,63.949,108.45,87.834h5.7l1.522-9.023h8.689l.8-4.748h-8.695l.8-5.006h9.917l.862-5.108Z" transform="translate(-108.45 -63.948)" fill="#fff"/>
      <path id="Trazado_6" data-name="Trazado 6" d="M132.464,72.336c1.062-1.556,2.659-2.75,4.149-2.75a4.054,4.054,0,0,1,1.759.4l-1.263,5.042a4.709,4.709,0,0,0-1.729-.266,4.626,4.626,0,0,0-2.947,1.559l-1.887,11.211h-5.512l2.953-17.546h4.28Z" transform="translate(-107.557 -63.773)" fill="#fff"/>
      <path id="Trazado_7" data-name="Trazado 7" d="M151.767,85.5a14.508,14.508,0,0,1-7.556,2.189c-4.711,0-7.3-2.678-7.3-7.157,0-6.47,4.273-10.946,10.45-10.946,4.406,0,6.5,2.549,6.5,5.556,0,3.887-2.453,5.357-11.113,5.846,0,1.277,1,2.322,2.92,2.322a13.418,13.418,0,0,0,5.28-1.272ZM148.688,75.24c0-.886-.7-1.542-2-1.542-2.088,0-3.515,1.672-3.88,3.727,3.02-.227,5.876-.227,5.876-2.186" transform="translate(-107.218 -63.644)" fill="#fff"/>
      <path id="Trazado_8" data-name="Trazado 8" d="M168.66,85.5a14.506,14.506,0,0,1-7.561,2.189c-4.709,0-7.3-2.678-7.3-7.157,0-6.47,4.28-10.946,10.45-10.946,4.408,0,6.5,2.549,6.5,5.556,0,3.887-2.45,5.357-11.111,5.846,0,1.277,1,2.322,2.918,2.322a13.416,13.416,0,0,0,5.277-1.272ZM165.576,75.24c0-.886-.7-1.542-1.987-1.542-2.094,0-3.519,1.672-3.881,3.727,3.018-.227,5.868-.227,5.868-2.186" transform="translate(-106.486 -63.644)" fill="#fff"/>
      <path id="Trazado_9" data-name="Trazado 9" d="M182.183,85.707a7.293,7.293,0,0,1-5.574,2.556c-3.915,0-5.8-2.556-5.8-6.832,0-7.632,4.478-11.544,9.117-11.544a5.324,5.324,0,0,1,4.249,1.921l1.3-7.858h5.469l-3.98,23.882h-4.812Zm1.259-9.817a3.441,3.441,0,0,0-2.756-1.358c-2.481,0-3.944,2.121-3.944,5.868,0,1.893.663,3.251,2.487,3.251a4.75,4.75,0,0,0,3.184-1.493Z" transform="translate(-105.762 -63.948)" fill="#fff"/>
      <path id="Trazado_10" data-name="Trazado 10" d="M199.562,69.581c4.611,0,7.664,2.65,7.664,7.354a11.481,11.481,0,0,1-.132,1.769c-.959,6.695-5.411,8.982-10.385,8.982-4.943,0-7.63-2.61-7.63-7.221a15.719,15.719,0,0,1,.1-1.728c.825-6.573,5.533-9.157,10.38-9.157M194.753,80.2c0,2.126,1.1,3.008,2.753,3.008,1.822,0,3.346-1.176,3.884-4.507a9.955,9.955,0,0,0,.134-1.637c0-2.158-1.068-3.007-2.63-3.007-1.955,0-3.478,1.274-3.974,4.411a11.668,11.668,0,0,0-.165,1.733" transform="translate(-104.964 -63.645)" fill="#fff"/>
      <path id="Trazado_11" data-name="Trazado 11" d="M214.528,69.981l.132,2.053a7.889,7.889,0,0,1,5.508-2.452c2.028,0,3.221.834,3.787,2.359a8.583,8.583,0,0,1,5.8-2.359c3.152,0,4.545,1.958,3.914,5.743l-2.056,12.2h-5.505l1.854-11.045c.237-1.424.037-2.192-1.256-2.192a4.394,4.394,0,0,0-2.584,1.165L222.1,87.527h-5.514l1.827-10.848c.229-1.487.229-2.389-1.056-2.389a4.344,4.344,0,0,0-2.753,1.231l-2.028,12.006h-5.505l2.95-17.546Z" transform="translate(-104.241 -63.773)" fill="#fff"/>
      <path id="Trazado_12" data-name="Trazado 12" d="M237.735,63.948h9.155c4.711,0,7.333,2.459,7.333,6.6,0,5.71-3.453,9.725-10.352,9.725h-3.154l-1.254,7.558h-5.71Zm4.877,4.977-1.1,6.635h2.822c2.718,0,4.083-1.624,4.083-3.986,0-1.593-.9-2.649-2.856-2.649Z" transform="translate(-103.051 -63.948)" fill="#fff"/>
      <path id="Trazado_13" data-name="Trazado 13" d="M263.554,69.581c4.614,0,7.666,2.65,7.666,7.354a11.09,11.09,0,0,1-.131,1.769c-.963,6.695-5.411,8.982-10.383,8.982-4.945,0-7.632-2.61-7.632-7.221a14.528,14.528,0,0,1,.1-1.728c.828-6.573,5.537-9.157,10.378-9.157M258.75,80.2c0,2.126,1.094,3.008,2.75,3.008,1.831,0,3.355-1.176,3.881-4.507a9.957,9.957,0,0,0,.134-1.637c0-2.158-1.062-3.007-2.627-3.007-1.95,0-3.481,1.274-3.975,4.411a12.224,12.224,0,0,0-.162,1.733" transform="translate(-102.427 -63.645)" fill="#fff"/>
      <path id="Trazado_14" data-name="Trazado 14" d="M269.121,94.158l4.043-24.177h4.48l.272,2.025a8.358,8.358,0,0,1,5.83-2.419c3.25,0,5.54,2.185,5.54,6.862,0,6.7-3.15,11.479-8.953,11.479a5.635,5.635,0,0,1-4.377-1.857l-1.331,8.087Zm7.529-12.2a4,4,0,0,0,2.856,1.393c2.315,0,3.846-1.891,3.846-6.033,0-2.059-.7-3.155-2.258-3.155a5.763,5.763,0,0,0-3.415,1.659Z" transform="translate(-101.562 -63.916)" fill="#fff"/>
    </g>
  </g>
</svg>
