<svg xmlns="http://www.w3.org/2000/svg" width="200.465" height="32.281" viewBox="0 0 200.465 32.281"><defs><style>.a{fill:#fff;}</style></defs><path class="a" d="M232.195,854.243l-4.208,25.268h6.035l1.61-9.545h9.192l.849-5.024h-9.2l.843-5.3h10.491l.912-5.4Z" transform="translate(-227.987 -854.243)"/><g transform="translate(18.489)"><path class="a" d="M252.171,862.7c1.124-1.647,2.811-2.909,4.389-2.909a4.3,4.3,0,0,1,1.86.417l-1.334,5.334a5,5,0,0,0-1.832-.281,4.9,4.9,0,0,0-3.117,1.649l-2,11.861H244.31l3.124-18.563h4.529Z" transform="translate(-244.31 -853.506)"/><path class="a" d="M271.715,876.88a15.188,15.188,0,0,1-7.992,2.35c-4.984,0-7.724-2.876-7.724-7.685,0-6.948,4.522-11.754,11.056-11.754,4.66,0,6.874,2.738,6.874,5.966,0,4.175-2.6,5.752-11.756,6.277,0,1.372,1.057,2.492,3.09,2.492a14.022,14.022,0,0,0,5.585-1.365Zm-3.255-11.017c0-.951-.737-1.656-2.112-1.656-2.208,0-3.718,1.794-4.1,4,3.2-.245,6.217-.245,6.217-2.347" transform="translate(-242.759 -853.507)"/><path class="a" d="M288.345,876.88a15.2,15.2,0,0,1-8,2.35c-4.982,0-7.721-2.876-7.721-7.685,0-6.948,4.527-11.754,11.055-11.754,4.665,0,6.876,2.738,6.876,5.966,0,4.175-2.592,5.752-11.754,6.277,0,1.372,1.054,2.492,3.088,2.492a14.024,14.024,0,0,0,5.582-1.365Zm-3.262-11.017c0-.951-.737-1.656-2.1-1.656-2.213,0-3.721,1.794-4.1,4,3.193-.245,6.208-.245,6.208-2.347" transform="translate(-240.552 -853.507)"/><path class="a" d="M301.4,877.263a7.718,7.718,0,0,1-5.9,2.7c-4.141,0-6.138-2.7-6.138-7.229,0-8.074,4.737-12.213,9.645-12.213a5.631,5.631,0,0,1,4.5,2.033l1.374-8.313h5.785l-4.21,25.265h-5.09Zm1.332-10.386a3.638,3.638,0,0,0-2.916-1.437c-2.625,0-4.172,2.244-4.172,6.207,0,2,.7,3.441,2.631,3.441a5.026,5.026,0,0,0,3.369-1.58Z" transform="translate(-238.331 -854.243)"/><path class="a" d="M318.438,859.788c4.879,0,8.108,2.845,8.108,7.9a12.422,12.422,0,0,1-.139,1.9c-1.015,7.189-5.725,9.645-10.986,9.645-5.23,0-8.072-2.8-8.072-7.753a17.153,17.153,0,0,1,.109-1.855c.873-7.059,5.854-9.832,10.98-9.832m-5.087,11.406c0,2.284,1.16,3.228,2.912,3.228,1.927,0,3.54-1.262,4.108-4.839a10.782,10.782,0,0,0,.142-1.758c0-2.316-1.129-3.229-2.782-3.229-2.07,0-3.679,1.368-4.2,4.737a12.646,12.646,0,0,0-.176,1.861" transform="translate(-235.944 -853.507)"/><path class="a" d="M332.948,860.211l.138,2.171a8.356,8.356,0,0,1,5.828-2.595c2.144,0,3.407.882,4.005,2.5a9.079,9.079,0,0,1,6.135-2.5c3.335,0,4.809,2.073,4.142,6.075l-2.176,12.91H345.2l1.96-11.684c.251-1.508.04-2.32-1.329-2.32A4.654,4.654,0,0,0,343.095,866l-2.142,12.771h-5.833l1.934-11.475c.241-1.573.241-2.528-1.118-2.528a4.609,4.609,0,0,0-2.912,1.3l-2.144,12.7h-5.824l3.121-18.562Z" transform="translate(-233.595 -853.507)"/><path class="a" d="M355.533,854.243h9.685c4.984,0,7.758,2.6,7.758,6.981,0,6.042-3.653,10.289-10.951,10.289h-3.338l-1.325,8h-6.042Zm5.159,5.265-1.16,7.021h2.985c2.876,0,4.32-1.718,4.32-4.217,0-1.685-.952-2.8-3.021-2.8Z" transform="translate(-230.109 -854.243)"/><path class="a" d="M381.424,859.788c4.882,0,8.111,2.845,8.111,7.9a12.153,12.153,0,0,1-.139,1.9c-1.018,7.189-5.725,9.645-10.984,9.645-5.232,0-8.074-2.8-8.074-7.753a15.573,15.573,0,0,1,.109-1.855c.876-7.059,5.857-9.832,10.977-9.832m-5.08,11.406c0,2.284,1.157,3.228,2.909,3.228,1.936,0,3.549-1.262,4.1-4.839a10.785,10.785,0,0,0,.142-1.758c0-2.316-1.124-3.229-2.779-3.229-2.064,0-3.682,1.368-4.206,4.737a13.24,13.24,0,0,0-.171,1.861" transform="translate(-227.585 -853.507)"/><path class="a" d="M386.132,885.787l4.278-25.576h4.739l.287,2.141a8.847,8.847,0,0,1,6.169-2.558c3.438,0,5.861,2.311,5.861,7.258,0,7.086-3.332,12.144-9.471,12.144a5.961,5.961,0,0,1-4.63-1.964l-1.408,8.555Zm7.966-12.911a4.232,4.232,0,0,0,3.021,1.474c2.45,0,4.069-2,4.069-6.383,0-2.178-.74-3.338-2.389-3.338a6.1,6.1,0,0,0-3.613,1.756Z" transform="translate(-225.489 -853.506)"/></g></svg>