<svg xmlns="http://www.w3.org/2000/svg" width="329.963" height="53.134" viewBox="0 0 329.963 53.134"><defs><style>.a{fill:#00adee;}</style></defs><path class="a" d="M234.913,854.243l-6.926,41.592h9.934l2.65-15.712H255.7l1.4-8.269h-15.14l1.387-8.716h17.268l1.5-8.9Z" transform="translate(-227.987 -854.242)"/><g transform="translate(30.433)"><path class="a" d="M257.249,864.581c1.849-2.711,4.627-4.788,7.225-4.788a7.074,7.074,0,0,1,3.061.686l-2.2,8.779a8.225,8.225,0,0,0-3.015-.462c-1.838,0-4.091,1.506-5.131,2.715l-3.285,19.522h-9.6l5.142-30.554h7.454Z" transform="translate(-244.31 -849.445)"/><path class="a" d="M281.868,887.919a25,25,0,0,1-13.155,3.869c-8.2,0-12.714-4.734-12.714-12.65,0-11.436,7.443-19.347,18.2-19.347,7.67,0,11.315,4.506,11.315,9.82,0,6.872-4.271,9.468-19.351,10.333,0,2.258,1.739,4.1,5.086,4.1,2.77,0,5.261-.636,9.193-2.247Zm-5.358-18.133c0-1.566-1.214-2.726-3.477-2.726-3.634,0-6.119,2.953-6.757,6.589,5.261-.4,10.234-.4,10.234-3.863" transform="translate(-234.206 -849.447)"/><path class="a" d="M298.5,887.919a25.019,25.019,0,0,1-13.167,3.869c-8.2,0-12.708-4.734-12.708-12.65,0-11.436,7.452-19.347,18.2-19.347,7.678,0,11.317,4.506,11.317,9.82,0,6.872-4.266,9.468-19.347,10.333,0,2.258,1.736,4.1,5.082,4.1,2.763,0,5.256-.636,9.188-2.247Zm-5.37-18.133c0-1.566-1.214-2.726-3.462-2.726-3.643,0-6.125,2.953-6.757,6.589,5.256-.4,10.219-.4,10.219-3.863" transform="translate(-219.834 -849.447)"/><path class="a" d="M309.172,892.132a12.7,12.7,0,0,1-9.706,4.45c-6.816,0-10.1-4.45-10.1-11.9,0-13.289,7.8-20.1,15.875-20.1a9.269,9.269,0,0,1,7.4,3.347l2.262-13.683h9.522l-6.93,41.586h-8.379Zm2.193-17.095a5.987,5.987,0,0,0-4.8-2.366c-4.32,0-6.867,3.693-6.867,10.217,0,3.3,1.154,5.664,4.331,5.664a8.272,8.272,0,0,0,5.545-2.6Z" transform="translate(-205.365 -854.241)"/><path class="a" d="M325.6,859.788c8.03,0,13.345,4.683,13.345,13a20.451,20.451,0,0,1-.229,3.127c-1.671,11.834-9.423,15.876-18.083,15.876-8.608,0-13.286-4.613-13.286-12.762a28.221,28.221,0,0,1,.179-3.054c1.437-11.619,9.635-16.183,18.074-16.183m-8.373,18.775c0,3.759,1.909,5.314,4.793,5.314,3.171,0,5.826-2.077,6.762-7.965a17.749,17.749,0,0,0,.233-2.894c0-3.813-1.859-5.315-4.579-5.315-3.406,0-6.056,2.252-6.921,7.8a20.818,20.818,0,0,0-.289,3.063" transform="translate(-189.818 -849.45)"/><path class="a" d="M338.047,860.485l.227,3.574a13.752,13.752,0,0,1,9.592-4.271c3.529,0,5.608,1.452,6.593,4.107a14.945,14.945,0,0,1,10.1-4.107c5.489,0,7.916,3.412,6.818,10l-3.582,21.251h-9.585l3.225-19.231c.414-2.482.065-3.818-2.187-3.818a7.66,7.66,0,0,0-4.5,2.029l-3.526,21.021h-9.6l3.183-18.888c.4-2.59.4-4.161-1.84-4.161a7.587,7.587,0,0,0-4.793,2.142l-3.529,20.908h-9.587l5.136-30.552Z" transform="translate(-174.514 -849.45)"/><path class="a" d="M358.255,854.243H374.2c8.2,0,12.769,4.281,12.769,11.49,0,9.945-6.013,16.935-18.025,16.935h-5.494l-2.181,13.161h-9.945Zm8.492,8.666-1.909,11.556h4.913c4.734,0,7.111-2.828,7.111-6.941,0-2.774-1.566-4.614-4.972-4.614Z" transform="translate(-151.81 -854.243)"/><path class="a" d="M388.585,859.788c8.036,0,13.351,4.683,13.351,13a19.993,19.993,0,0,1-.229,3.127c-1.676,11.834-9.423,15.876-18.079,15.876-8.612,0-13.29-4.613-13.29-12.762a25.646,25.646,0,0,1,.179-3.054c1.441-11.619,9.641-16.183,18.068-16.183m-8.362,18.775c0,3.759,1.9,5.314,4.788,5.314,3.186,0,5.841-2.077,6.757-7.965a17.743,17.743,0,0,0,.233-2.894c0-3.813-1.85-5.315-4.573-5.315-3.4,0-6.061,2.252-6.923,7.8a21.792,21.792,0,0,0-.281,3.063" transform="translate(-135.369 -849.45)"/><path class="a" d="M386.132,902.578l7.042-42.1h7.8l.472,3.524a14.563,14.563,0,0,1,10.154-4.21c5.658,0,9.646,3.8,9.646,11.947,0,11.664-5.485,19.988-15.588,19.988a9.813,9.813,0,0,1-7.622-3.233l-2.317,14.082Zm13.112-21.251a6.966,6.966,0,0,0,4.972,2.426c4.033,0,6.7-3.291,6.7-10.506,0-3.585-1.218-5.495-3.932-5.495-2.248,0-4.853,1.8-5.948,2.89Z" transform="translate(-121.717 -849.444)"/></g></svg>