<?xml version="1.0" encoding="utf-8"?>
<!-- Generator: Adobe Illustrator 26.0.2, SVG Export Plug-In . SVG Version: 6.00 Build 0)  -->
<svg version="1.1" id="Capa_1" xmlns="http://www.w3.org/2000/svg" xmlns:xlink="http://www.w3.org/1999/xlink" x="0px" y="0px"
	 viewBox="0 0 248.6 40" style="enable-background:new 0 0 248.6 40;" xml:space="preserve">
<style type="text/css">
	.st0{fill:#FFFFFF;}
</style>
<g>
	<path class="st0" d="M25.4,3.4l-4.3,26h6.2l1.6-9.8h9.4l0.9-5.2h-9.4L30.7,9h10.8l0.9-5.6H25.4z"/>
	<g transform="translate(30.433)">
		<path class="st0" d="M17.8,12.8c1.1-1.7,2.9-3,4.5-3c0.7,0,1.3,0.1,1.9,0.4l-1.4,5.5c-0.6-0.2-1.3-0.3-1.9-0.3
			c-1.1,0-2.6,0.9-3.2,1.7l-2.1,12.3h-6l3.2-19.1h4.7L17.8,12.8z"/>
		<path class="st0" d="M39.5,27.5c-2.4,1.6-5.3,2.4-8.3,2.4c-5.1,0-7.9-2.9-7.9-7.9c0-7.1,4.6-12.1,11.4-12.1c4.8,0,7.1,2.8,7.1,6.1
			c0,4.3-2.7,5.9-12.1,6.4c0,1.4,1.1,2.6,3.2,2.6c1.8,0,3.3-0.4,5.8-1.4L39.5,27.5z M36.2,16.1c0-1-0.8-1.7-2.2-1.7
			c-2.3,0-3.8,1.9-4.3,4.1C33,18.3,36.2,18.3,36.2,16.1"/>
		<path class="st0" d="M58.9,27.5c-2.4,1.6-5.3,2.4-8.3,2.4c-5.1,0-7.9-2.9-7.9-7.9c0-7.1,4.7-12.1,11.4-12.1c4.8,0,7.1,2.8,7.1,6.1
			c0,4.3-2.7,5.9-12.1,6.4c0,1.4,1.1,2.6,3.2,2.6c1.8,0,3.3-0.4,5.8-1.4L58.9,27.5z M55.6,16.1c0-1-0.8-1.7-2.2-1.7
			c-2.3,0-3.8,1.9-4.3,4.1C52.4,18.3,55.6,18.3,55.6,16.1"/>
		<path class="st0" d="M74.6,27.1c-1.5,1.8-3.8,2.8-6.1,2.8c-4.3,0-6.3-2.8-6.3-7.4c0-8.3,4.9-12.6,9.9-12.6
			c1.8-0.1,3.5,0.8,4.6,2.1l1.4-8.6h5.9l-4.3,26h-5.3L74.6,27.1z M76,16.4c-0.7-0.9-1.8-1.5-3-1.5c-2.7,0-4.3,2.3-4.3,6.4
			c0,2.1,0.8,3.6,2.7,3.6c1.3-0.1,2.6-0.7,3.4-1.6L76,16.4z"/>
		<path class="st0" d="M94.7,9.8c5,0,8.3,2.9,8.3,8.1c0,0.6-0.1,1.3-0.1,1.9c-1.1,7.4-5.9,9.9-11.3,9.9c-5.4,0-8.3-2.9-8.3-8
			c0-0.6,0.1-1.3,0.1-1.9C84.2,12.7,89.3,9.8,94.7,9.8 M89.4,21.6c0,2.4,1.2,3.3,3,3.3c2,0,3.6-1.3,4.3-5c0.1-0.6,0.1-1.2,0.1-1.8
			c0-2.4-1.2-3.3-2.9-3.3c-2.1,0-3.8,1.4-4.3,4.9C89.5,20.3,89.4,21,89.4,21.6"/>
		<path class="st0" d="M112,10.3l0.1,2.3c1.6-1.6,3.8-2.6,6-2.7c2.2,0,3.5,0.9,4.1,2.6c1.7-1.6,3.9-2.6,6.3-2.6
			c3.4,0,4.9,2.1,4.3,6.3l-2.3,13.3h-6l2-12c0.3-1.6,0.1-2.4-1.4-2.4c-1.1,0.1-2.1,0.6-2.8,1.3l-2.2,13.1h-6l2-11.8
			c0.3-1.6,0.3-2.6-1.1-2.6c-1.1,0.1-2.2,0.6-3,1.3l-2.2,13.1h-6l3.2-19.1L112,10.3z"/>
		<path class="st0" d="M138.8,3.4h9.9c5.1,0,8,2.7,8,7.2c0,6.2-3.8,10.6-11.3,10.6h-3.4l-1.4,8.3h-6.2L138.8,3.4z M144.1,8.8
			l-1.2,7.2h3.1c2.9,0,4.4-1.8,4.4-4.3c0-1.8-1-2.9-3.1-2.9L144.1,8.8z"/>
		<path class="st0" d="M168.1,9.8c5,0,8.4,2.9,8.4,8.1c0,0.6-0.1,1.3-0.1,1.9c-1.1,7.4-5.9,9.9-11.3,9.9c-5.4,0-8.3-2.9-8.3-8
			c0-0.6,0.1-1.3,0.1-1.9C157.7,12.7,162.8,9.8,168.1,9.8 M162.9,21.6c0,2.4,1.2,3.3,3,3.3c2,0,3.6-1.3,4.3-5
			c0.1-0.6,0.1-1.2,0.1-1.8c0-2.4-1.1-3.3-2.9-3.3c-2.1,0-3.8,1.4-4.3,4.9C163,20.3,162.9,21,162.9,21.6"/>
		<path class="st0" d="M175.1,36.6l4.4-26.3h4.9l0.3,2.2c1.7-1.7,3.9-2.6,6.4-2.6c3.6,0,6,2.4,6,7.4c0,7.3-3.4,12.5-9.8,12.5
			c-1.8,0.1-3.6-0.7-4.8-2l-1.4,8.8H175.1z M183.3,23.3c0.8,0.9,1.9,1.4,3.1,1.5c2.5,0,4.2-2.1,4.2-6.6c0-2.3-0.8-3.4-2.4-3.4
			c-1.4,0-3.1,1.1-3.7,1.8L183.3,23.3z"/>
	</g>
</g>
</svg>
