<svg xmlns="http://www.w3.org/2000/svg" xmlns:xlink="http://www.w3.org/1999/xlink" width="105.208" height="35.424" viewBox="0 0 105.208 35.424"><defs><style>.a{fill:none;}.b{fill:#1a1818;stroke:#fff;stroke-width:1.5px;}.c{clip-path:url(#a);}.d{fill:url(#b);}.e{clip-path:url(#c);}.f{fill:url(#d);}.g{clip-path:url(#e);}.h{fill:url(#f);}.i{clip-path:url(#g);}.j{fill:url(#h);}.k{clip-path:url(#i);}.l{fill:#f5f5f6;}.m{fill:#fff;font-size:7px;font-family:MyriadPro-Regular, Myriad Pro;}</style><clipPath id="a"><path class="a" d="M137.616,235.312v21.219a.467.467,0,0,0,.288.485l11.3-11.2L138,234.707a.564.564,0,0,0-.382.605" transform="translate(-137.616 -234.707)"/></clipPath><linearGradient id="b" x1="-3.968" y1="-3.587" x2="-3.95" y2="-3.587" gradientUnits="objectBoundingBox"><stop offset="0" stop-color="#006aa1"/><stop offset="0.364" stop-color="#328fa6"/><stop offset="0.791" stop-color="#67b6ac"/><stop offset="1" stop-color="#7cc6af"/></linearGradient><clipPath id="c"><path class="a" d="M138.732,234.666l11.2,11.109,3.112-3.086-4.676-2.7-.055-.031h0l-.018-.011h0l0,0h0l0,0h0l0,0-.014-.008h0l-.005,0h0l-.025-.014h0l-.028-.016h0l-8.869-5.121a.921.921,0,0,0-.441-.127.585.585,0,0,0-.161.022" transform="translate(-138.732 -234.644)"/></clipPath><linearGradient id="d" x1="-3.283" y1="-7.364" x2="-3.268" y2="-7.364" gradientUnits="objectBoundingBox"><stop offset="0" stop-color="#4ab59d"/><stop offset="1" stop-color="#dfe385"/></linearGradient><clipPath id="e"><path class="a" d="M138.457,278.382a.623.623,0,0,0,.5-.088l9.186-5.3h0l.006,0,.007,0h0l.013-.007,0,0,0,0h0l0,0h0l4.676-2.7-3.112-3.085Z" transform="translate(-138.457 -267.181)"/></clipPath><linearGradient id="f" x1="-3.143" y1="-8.081" x2="-3.129" y2="-8.081" gradientUnits="objectBoundingBox"><stop offset="0" stop-color="#e4282d"/><stop offset="0.316" stop-color="#ba2d4e"/><stop offset="0.777" stop-color="#83357b"/><stop offset="1" stop-color="#6e388d"/></linearGradient><clipPath id="g"><path class="a" d="M171.481,261.246l3.111,3.085h0l.038-.022.009-.005,0,0,.038-.022.007,0,.006,0,.008,0,.006,0,.007,0,4.316-2.491.059-.034c.5-.291.479-.686.086-.929l-.055-.032c-.445-.24-4.526-2.613-4.526-2.613Z" transform="translate(-171.481 -258.161)"/></clipPath><linearGradient id="h" x1="-6.744" y1="-14.19" x2="-6.719" y2="-14.19" gradientUnits="objectBoundingBox"><stop offset="0" stop-color="#f07165"/><stop offset="0.659" stop-color="#faa460"/><stop offset="1" stop-color="#ffba5e"/></linearGradient><clipPath id="i"><rect class="a" width="103.708" height="33.924"/></clipPath></defs><g transform="translate(0.75 0.75)"><g transform="translate(0 0)"><rect class="b" width="103.708" height="33.924" rx="4"/><rect class="a" width="103.708" height="33.924" transform="translate(0 0)"/></g><g transform="translate(8.65 6.888)"><g transform="translate(0 0.022)"><g class="c"><rect class="d" width="11.584" height="22.31" transform="translate(0 0)"/></g></g><g class="e" transform="translate(0.382)"><rect class="f" width="14.314" height="11.13" transform="translate(0 0)"/></g><g transform="translate(0.288 11.13)"><g class="g"><rect class="h" width="14.408" height="11.248" transform="translate(0 0)"/></g></g><g transform="translate(11.584 8.045)"><g class="i"><rect class="j" width="8.111" height="6.17" transform="translate(0 0)"/></g></g></g><g transform="translate(0 0)"><g class="k"><path class="l" d="M344.842,273.113a2.888,2.888,0,0,1-1.191-.24,2.242,2.242,0,0,1-.906-.741h-.073a8.988,8.988,0,0,1,.073,1.109v2.749h-1.011v-9.68h.823l.14.915h.049a2.355,2.355,0,0,1,.909-.792,2.763,2.763,0,0,1,1.189-.244,2.47,2.47,0,0,1,2.051.909,4.837,4.837,0,0,1-.012,5.105,2.474,2.474,0,0,1-2.039.911m-.146-6.065a1.794,1.794,0,0,0-1.481.567,2.921,2.921,0,0,0-.47,1.8v.226a3.344,3.344,0,0,0,.47,2.015,1.786,1.786,0,0,0,1.505.606,1.566,1.566,0,0,0,1.357-.7,3.323,3.323,0,0,0,.491-1.933,3.2,3.2,0,0,0-.491-1.917,1.615,1.615,0,0,0-1.381-.667" transform="translate(-264.132 -248.51)"/><rect class="l" width="1.012" height="9.485" transform="translate(84.816 14.996)"/><path class="l" d="M373.922,273.015l-.2-.951h-.049a2.806,2.806,0,0,1-1,.851,3.035,3.035,0,0,1-1.24.222,2.231,2.231,0,0,1-1.557-.512,1.867,1.867,0,0,1-.564-1.457q0-2.023,3.237-2.121l1.134-.037V268.6a1.693,1.693,0,0,0-.339-1.161,1.39,1.39,0,0,0-1.082-.375,4.406,4.406,0,0,0-1.89.512l-.311-.774a4.767,4.767,0,0,1,1.082-.421,4.684,4.684,0,0,1,1.18-.152,2.545,2.545,0,0,1,1.771.53,2.215,2.215,0,0,1,.576,1.7v4.56Zm-2.286-.713a2.056,2.056,0,0,0,1.484-.518,1.918,1.918,0,0,0,.539-1.451v-.6l-1.012.042a3.682,3.682,0,0,0-1.74.376,1.13,1.13,0,0,0-.533,1.033,1.041,1.041,0,0,0,.332.835,1.379,1.379,0,0,0,.93.287" transform="translate(-282.277 -248.533)"/><path class="l" d="M386.7,266.545h1.085l1.463,3.81a14.649,14.649,0,0,1,.6,1.884h.049q.079-.311.332-1.064t1.655-4.63h1.085l-2.872,7.608a3.794,3.794,0,0,1-1,1.6,2.119,2.119,0,0,1-1.4.472,4.094,4.094,0,0,1-.915-.1v-.811a3.52,3.52,0,0,0,.75.074,1.546,1.546,0,0,0,1.487-1.171l.372-.951Z" transform="translate(-293.713 -248.745)"/><path class="l" d="M286,267.392a2.276,2.276,0,0,1-.182,3.871.983.983,0,0,0-.391.686.767.767,0,0,0,.364.6l.5.391a2.432,2.432,0,0,1,1.173,1.957c0,1.313-1.272,2.641-3.675,2.641-2.027,0-3-.964-3-2a2.011,2.011,0,0,1,1.076-1.7,6.029,6.029,0,0,1,2.669-.643,1.462,1.462,0,0,1-.419-.949,1.263,1.263,0,0,1,.14-.546c-.154.014-.308.028-.448.028a2.209,2.209,0,0,1-2.319-2.193,2.515,2.515,0,0,1,.894-1.872,3.811,3.811,0,0,1,2.5-.769h2.878l-.894.5ZM285,273.6a2.145,2.145,0,0,0-.321-.015,5.577,5.577,0,0,0-1.467.225,1.569,1.569,0,0,0-1.2,1.439c0,.992.965,1.706,2.46,1.706,1.341,0,2.054-.644,2.054-1.51,0-.714-.461-1.09-1.524-1.844m.406-2.656a1.414,1.414,0,0,0,.349-1.02c0-1.006-.6-2.571-1.76-2.571a1.306,1.306,0,0,0-.978.461,1.615,1.615,0,0,0-.308,1.034c0,.936.545,2.487,1.748,2.487a1.431,1.431,0,0,0,.95-.391" transform="translate(-224.032 -248.971)"/><path class="l" d="M263.757,272.991a3.292,3.292,0,0,1-3.4-3.293,3.457,3.457,0,0,1,3.614-3.39A3.262,3.262,0,0,1,267.3,269.6a3.409,3.409,0,0,1-3.544,3.39m1.744-1.13a2.525,2.525,0,0,0,.419-1.55c0-1.228-.586-3.572-2.316-3.572a1.944,1.944,0,0,0-1.256.476,2.11,2.11,0,0,0-.642,1.7c0,1.38.683,3.654,2.372,3.654a1.783,1.783,0,0,0,1.422-.711" transform="translate(-210.589 -248.589)"/><path class="l" d="M241.65,272.991a3.292,3.292,0,0,1-3.4-3.293,3.457,3.457,0,0,1,3.614-3.39,3.262,3.262,0,0,1,3.334,3.293,3.409,3.409,0,0,1-3.544,3.39m1.744-1.13a2.53,2.53,0,0,0,.419-1.55c0-1.228-.586-3.572-2.317-3.572a1.944,1.944,0,0,0-1.255.476,2.11,2.11,0,0,0-.642,1.7c0,1.38.683,3.654,2.372,3.654a1.785,1.785,0,0,0,1.423-.711" transform="translate(-196.044 -248.589)"/><path class="l" d="M216.542,266.7l-2.006.463a14.863,14.863,0,0,1-2.314.238,4.984,4.984,0,0,1-5.344-5.078,5.3,5.3,0,0,1,5.667-5.245,8.092,8.092,0,0,1,2.145.294,5.467,5.467,0,0,1,1.852.87l-1.164,1.108-.491.112.351-.561a4.007,4.007,0,0,0-3-1.318,3.874,3.874,0,0,0-3.886,4.138,4.96,4.96,0,0,0,4.965,5.119,4.178,4.178,0,0,0,1.782-.351v-2.258l-2.117.112,1.121-.6h2.974l-.364.351a.328.328,0,0,0-.141.224c-.015.127-.028.534-.028.674Z" transform="translate(-175.406 -242.515)"/><path class="l" d="M303.253,265.694c-.463-.042-.56-.126-.56-.674v-7.939c0-.03,0-.061.008-.091.057-.491.2-.575.632-.828h-2.007l-1.053.5h1.072v8.661c0,.28-.056.323-.378.743h2.483l.519-.308c-.238-.029-.477-.043-.716-.07" transform="translate(-236.853 -241.914)"/><path class="l" d="M315.89,272.506c-.153.083-.306.182-.459.251a3.25,3.25,0,0,1-1.353.265,2.976,2.976,0,0,1-1.853-.544,3.606,3.606,0,0,1-1.42-2.939,3.157,3.157,0,0,1,3.19-3.217,2.707,2.707,0,0,1,1.435.39,2.3,2.3,0,0,1,.974,1.378l-3.273,1.324-1.073.083a3.094,3.094,0,0,0,2.87,2.8,3.6,3.6,0,0,0,1.7-.486Zm-1.309-4.152c.264-.1.4-.181.4-.376a1.382,1.382,0,0,0-1.379-1.2,1.716,1.716,0,0,0-1.6,1.936c0,.237.028.487.042.739Z" transform="translate(-243.783 -248.597)"/><path class="l" d="M328.8,266.416v.919h-.112v-.919h-.3v-.1h.72v.1Z" transform="translate(-255.348 -248.597)"/><path class="l" d="M331.789,267.336v-.928h-.005l-.283.928h-.087l-.285-.928h0v.928h-.1v-1.014h.174l.259.82h0l.255-.82h.176v1.014Z" transform="translate(-257.085 -248.597)"/></g></g><text class="m" transform="translate(32.112 10.832)"><tspan x="0" y="0">Disponible en </tspan></text></g></svg>