<svg xmlns="http://www.w3.org/2000/svg" width="90" height="92" viewBox="0 0 90 92"><defs><style>.a{fill:#ebebeb;}.b{fill:#fbfbfb;}.c{fill:#ef572a;}.d{fill:#fff;}.e{fill:#0586c3;}</style></defs><g transform="translate(-470 -2283)"><g transform="translate(390 -37)"><g transform="translate(-3293 3674)"><ellipse class="a" cx="45" cy="45.5" rx="45" ry="45.5" transform="translate(3373 -1353)"/></g><circle class="b" cx="45" cy="45" r="45" transform="translate(80 2320)"/></g><g transform="translate(243.283 1766.516)"><g transform="translate(242.717 536.484)"><path class="c" d="M300.017,557.489c-.849-.005-1.7,0-2.55,0s-.842,0-1.078-.834a20.69,20.69,0,0,0-4.441-8.2.919.919,0,0,1-.224-.943c.146-.536.268-1.08.4-1.618q.963-3.913,1.923-7.823c.1-.395.171-.742-.366-.9a14.143,14.143,0,0,0-6.49-.509,12.486,12.486,0,0,0-7.115,3.859,1.273,1.273,0,0,1-1.366.481,34.22,34.22,0,0,0-10.4-.573,28.179,28.179,0,0,0-8.72,2.1,22.646,22.646,0,0,0-7.051,4.611,20.829,20.829,0,0,0-4.365,5.974c-.251.526-.359.536-.776.132A3.284,3.284,0,0,1,249,547.551c.422-.07.656-.258.661-.7.01-.864.012-1.727,0-2.591-.007-.355-.161-.5-.529-.5a5.932,5.932,0,0,0-3.113.931,6.266,6.266,0,0,0-3.243,4.966l0,.04a.129.129,0,0,0,.049-.017.644.644,0,0,1-.1.588v.921a.62.62,0,0,1,.1.6,6.63,6.63,0,0,0,3.589,5.125c.366.2.405.357.315.74a22.263,22.263,0,0,0-.337,8.741,20.9,20.9,0,0,0,9.562,14.738.754.754,0,0,1,.376.742c-.015,2.149,0,4.3-.015,6.451,0,.35.054.489.449.486,2.886-.02,5.775-.015,8.661,0a.6.6,0,0,0,.647-.4c.459-.985.961-1.948,1.427-2.931a.441.441,0,0,1,.512-.313,36.89,36.89,0,0,0,7.178,0,.476.476,0,0,1,.554.335c.454.968.954,1.911,1.4,2.882a.64.64,0,0,0,.688.424q4.3-.022,8.605,0c.425.005.478-.144.476-.518-.017-2.055.012-4.11-.022-6.163a1.154,1.154,0,0,1,.6-1.142,20.567,20.567,0,0,0,7.707-9.032.663.663,0,0,1,.725-.449c1.6-.007,3.2.074,4.8-.04V557.643A.928.928,0,0,0,300.017,557.489Zm-3.074,10.58c-1.132-.015-2.267.012-3.4-.017a.582.582,0,0,0-.676.486,17.692,17.692,0,0,1-4.982,7.818,19.89,19.89,0,0,1-4,2.787.623.623,0,0,0-.4.653c.027.844.01,1.69.01,2.534s-.015,1.69,0,2.534c.01.345-.042.5-.444.491-1.076-.032-2.152-.02-3.228-.005a.523.523,0,0,1-.559-.355c-.512-1.085-1.066-2.152-1.576-3.239a.5.5,0,0,0-.651-.325,32.627,32.627,0,0,1-10.872,0,.531.531,0,0,0-.683.367c-.505,1.07-1.047,2.122-1.552,3.189a.53.53,0,0,1-.556.365c-1.093-.017-2.189-.022-3.284,0-.337.007-.4-.112-.4-.422.015-1.633-.02-3.266.022-4.9a.953.953,0,0,0-.59-1,17.832,17.832,0,0,1-7.644-7.682c-3.455-6.768-2.562-16.43,3.935-22.079a21.2,21.2,0,0,1,9.9-4.758,30.093,30.093,0,0,1,15.1.663.608.608,0,0,0,.849-.318,9.348,9.348,0,0,1,6.112-4.557,10.686,10.686,0,0,1,1.964-.216c.412-.015.551.05.427.536-.686,2.688-1.318,5.388-2,8.076a.734.734,0,0,0,.256.834,17.533,17.533,0,0,1,5.258,9.384,13.465,13.465,0,0,1,.278,1.641c.041.5.242.628.712.606.886-.042,1.774,0,2.662-.02.293,0,.385.079.385.385q-.022,3.083,0,6.165C297.328,568,297.226,568.072,296.943,568.069Z" transform="translate(-242.717 -536.484)"/><path class="d" d="M242.774,541.811a.114.114,0,0,1-.057,0v.576C242.831,542.2,242.762,542,242.774,541.811Z" transform="translate(-242.717 -528.597)"/><path class="d" d="M242.717,542.409v.576l.045.03.055-.005C242.712,542.821,242.854,542.593,242.717,542.409Z" transform="translate(-242.717 -527.703)"/><path class="e" d="M257.607,554a1.7,1.7,0,0,1-1.678-1.641,1.726,1.726,0,0,1,1.427-1.76,1.677,1.677,0,0,1,1.976,1.333c.087.335.231.362.506.357.844-.012,1.69-.032,2.534.007.452.02.5-.164.452-.533a4.581,4.581,0,0,0-2.2-3.661c-1.152-.615-1.494-1.36-1.236-2.293,0-.74-.025-1.239.01-1.737.025-.375-.119-.444-.459-.437-.864.022-1.73.022-2.594,0-.32-.007-.429.077-.422.412.022.921-.017,1.844.02,2.765a.728.728,0,0,1-.5.812,5.128,5.128,0,0,0-2.134,7.458,5.213,5.213,0,0,0,4.408,2.405,1.688,1.688,0,0,1,1.67,1.651,1.72,1.72,0,0,1-1.435,1.752,1.674,1.674,0,0,1-1.968-1.343c-.084-.345-.233-.357-.5-.355-.826.012-1.653.04-2.477-.01-.511-.03-.566.184-.5.6a5.119,5.119,0,0,0,3.023,4.123.62.62,0,0,1,.419.69c-.025.94.01,1.881-.02,2.822-.01.372.114.442.454.434.864-.025,1.73-.03,2.591,0,.382.012.437-.127.429-.459-.022-.9.015-1.807-.017-2.708a.724.724,0,0,1,.494-.817A5.188,5.188,0,0,0,257.607,554Z" transform="translate(-228.768 -525.889)"/><path class="e" d="M265.852,541.715a28.2,28.2,0,0,0-13.946.02c-.273.07-.37.149-.266.464.273.817.519,1.646.717,2.482.1.437.285.459.663.355a19.888,19.888,0,0,1,4.309-.668,24.542,24.542,0,0,1,7.7.695c.139.037.32.176.4-.114.273-.975.563-1.948.864-2.986C266.3,541.7,266.023,541.757,265.852,541.715Z" transform="translate(-230.052 -530.015)"/><path class="e" d="M262.894,545.349c0-.439-.017-.881,0-1.32.015-.3-.069-.4-.38-.395q-1.352.026-2.7,0c-.3-.007-.4.08-.39.385q.026,1.351,0,2.7c-.007.3.075.392.38.385.9-.02,1.8-.015,2.7,0,.288.005.409-.06.39-.377C262.872,546.27,262.894,545.808,262.894,545.349Z" transform="translate(-218.699 -525.888)"/></g></g></g></svg>