<svg xmlns="http://www.w3.org/2000/svg" width="209.328" height="55.344" viewBox="0 0 209.328 55.344"><defs><style>.a,.d{fill:#fff;}.b{fill:#fdfdfd;}.c,.e{fill:none;}.c{stroke:#fdfdfd;stroke-miterlimit:10;}.d{font-size:2px;font-family:Poppins-Bold, Poppins;font-weight:700;}.e{stroke:#fff;stroke-width:1.5px;}</style></defs><g transform="translate(-856.534 -641.727)"><g transform="translate(1021.387 656.338)"><path class="a" d="M-569.792,11.036A6.422,6.422,0,0,1-570.9,9.5c-.481-1.451-1.437-1.745-2.825-1.6a5.153,5.153,0,0,1-2.193-.363,2.137,2.137,0,0,0-1.94.215,9.646,9.646,0,0,0-5.088,7.82c-.019.186-.023.374-.039.56-.083.973-.611,1.536-1.422,1.519a1.361,1.361,0,0,1-1.351-1.661,25.351,25.351,0,0,1,1.193-4.96,11.542,11.542,0,0,1,5.038-5.58c-.184-.226-.334-.406-.479-.589a8.382,8.382,0,0,1-1.258-9.206,8.233,8.233,0,0,1,7.853-5.107,8.25,8.25,0,0,1,7.837,4.828c.377.741.776.771,1.523.871,1.66.221,2.317-.561,3.135-1.853a8.582,8.582,0,0,1,12.4-2.114,8.7,8.7,0,0,1,1.462,12.537l-.507.607c.305.213.585.4.859.6a12.425,12.425,0,0,1,5.386,9.906,1.446,1.446,0,0,1-1.318,1.72c-.838.052-1.395-.533-1.48-1.554-.018-.218-.031-.436-.055-.653a9.419,9.419,0,0,0-5.287-7.76,3.128,3.128,0,0,0-1.568-.143c-1.2.086-2.4.3-3.607.349a.954.954,0,0,0-1,.568c-.468.9-1.055,1.747-1.631,2.678.2.141.481.329.753.527a12.3,12.3,0,0,1,5.361,9.811c.051,1.148-.406,1.761-1.283,1.812-.91.053-1.449-.549-1.52-1.727a9.4,9.4,0,0,0-5.386-8.273,2.2,2.2,0,0,0-1.477-.1,9.7,9.7,0,0,1-5.534-.024,1.949,1.949,0,0,0-1.3.057,9.37,9.37,0,0,0-5.483,8.109,6.5,6.5,0,0,1-.064.745,1.337,1.337,0,0,1-1.518,1.2,1.239,1.239,0,0,1-1.221-1.387,19.1,19.1,0,0,1,.521-3.591,11.919,11.919,0,0,1,5.015-6.772c.18-.122.362-.241.541-.364C-569.84,11.141-569.832,11.1-569.792,11.036Zm6.267-.26a5.886,5.886,0,0,0,5.884-5.893,5.948,5.948,0,0,0-5.886-5.919,5.946,5.946,0,0,0-5.93,5.968A5.886,5.886,0,0,0-563.525,10.776Zm-4.352-13.562A5.788,5.788,0,0,0-575-6.436,5.927,5.927,0,0,0-579.042.851a5.746,5.746,0,0,0,6.684,4.116C-571.509.423-571.376.192-567.877-2.786Zm8.64.066a8.94,8.94,0,0,1,4.452,7.735A5.84,5.84,0,0,0-547.949.3a5.911,5.911,0,0,0-4.337-6.788A5.789,5.789,0,0,0-559.238-2.72Z" transform="translate(585.787 9.487)"/></g><g transform="translate(942.146 652.49)"><path class="a" d="M279.892,777.078a4.96,4.96,0,0,0,.57-.179,3.13,3.13,0,0,0,2.057-2.519.41.41,0,0,1,.062-.378V756.26a1.436,1.436,0,0,1,0-1.376v-.652c-.112-.109-.084-.242-.065-.375a3.1,3.1,0,0,0-.964-1.849q-2.456-2.454-4.909-4.909c-1.832-1.832-3.677-3.653-5.491-5.5a4.661,4.661,0,0,0-2.474-1.558h-.652a.412.412,0,0,1-.372.065,3.287,3.287,0,0,0-1.862,1.024q-3.154,3.164-6.319,6.321-2.891,2.891-5.778,5.786a.723.723,0,0,1-.57.233q-2.133-.014-4.268,0a3.24,3.24,0,0,0-3.291,2.713.413.413,0,0,1-.063.375v17.889c.108.036.074.141.1.215a3.253,3.253,0,0,0,2.5,2.392c.057.013.122,0,.153.071h31.5A.174.174,0,0,1,279.892,777.078Zm-1.531-25.013c.066-.067.119-.059.18,0q.686.683,1.372,1.364c-.979-.021-1.918.058-2.941.013C277.468,752.953,277.916,752.51,278.36,752.066Zm-4.471-1.671c.445-.443.892-.883,1.329-1.332.115-.119.187-.141.313-.008.4.416.812.826,1.228,1.228.122.117.133.191.006.315q-1.374,1.362-2.739,2.735a.33.33,0,0,1-.247.127q-1.424,0-2.849,0l-.036-.082Q272.392,751.885,273.889,750.395Zm-11.255-3.041,4.708-4.708a1.106,1.106,0,0,1,1.761-.011q2.269,2.262,4.533,4.525c.16.158.185.242.009.415q-2.864,2.843-5.708,5.7a.525.525,0,0,1-.405.185q-5.389-.007-10.782,0c-.044,0-.09-.01-.2-.021C258.611,751.377,260.622,749.365,262.634,747.354Zm16.487,27.59H249c-.921,0-1.323-.4-1.323-1.318V756.935a1.134,1.134,0,0,1,1.305-1.3H279.1a1.134,1.134,0,0,1,1.305,1.3v16.729A1.125,1.125,0,0,1,279.121,774.944Z" transform="translate(-245.497 -740.037)"/><path class="a" d="M269.977,761.735l-.028.017h-.009a2.991,2.991,0,0,1-2.58,2.7l-.07,0-.136.038c.881,0,1.762,0,2.644,0,.155,0,.187-.03.185-.185C269.972,763.448,269.977,762.592,269.977,761.735Z" transform="translate(-232.894 -727.407)"/><path class="a" d="M245.5,761.781c0,.832,0,1.666,0,2.5,0,.155.03.187.187.185.856-.009,1.713,0,2.571,0A3.075,3.075,0,0,1,245.5,761.781Z" transform="translate(-245.499 -727.38)"/><path class="a" d="M268.97,750.8v-1.376A2.8,2.8,0,0,0,268.97,750.8Z" transform="translate(-231.887 -734.575)"/><path class="a" d="M259.534,740.072c.112-.006.229.035.337-.035h-.362C259.526,740.049,259.534,740.062,259.534,740.072Z" transform="translate(-237.344 -740.037)"/><path class="a" d="M259.538,740.059l-.021,0a.061.061,0,0,1-.014.028.043.043,0,0,0,.03-.017Z" transform="translate(-237.347 -740.024)"/><path class="a" d="M268.953,749.142v-.362c-.014.016-.025.024-.036.022C268.929,748.916,268.88,749.035,268.953,749.142Z" transform="translate(-231.87 -734.948)"/><path class="a" d="M268.926,748.807v-.013l0-.013-.027-.01C268.9,748.794,268.914,748.805,268.926,748.807Z" transform="translate(-231.879 -734.952)"/><path class="a" d="M245.538,750.267a.052.052,0,0,1-.036-.022v.362C245.573,750.5,245.53,750.381,245.538,750.267Z" transform="translate(-245.497 -734.095)"/><path class="a" d="M245.527,750.246l0,.025c.011,0,.021-.013.027-.035l-.025,0Z" transform="translate(-245.484 -734.1)"/><path class="a" d="M268.918,761.848c.01,0,.021,0,.035.021v-.362C268.884,761.613,268.925,761.734,268.918,761.848Z" transform="translate(-231.87 -727.54)"/><path class="a" d="M268.926,761.722c-.011,0-.021.013-.027.036h.024l0-.011Z" transform="translate(-231.878 -727.414)"/><path class="a" d="M253.711,751.73c-1.194-.011-2.387-.009-3.582,0a1.809,1.809,0,0,0-1.88,1.9c0,.892,0,1.784,0,2.677a1.806,1.806,0,0,0,1.9,1.94c.579.009,1.158,0,1.737,0v0c.615,0,1.229.013,1.845,0a1.78,1.78,0,0,0,1.838-1.854q.012-1.393,0-2.786A1.793,1.793,0,0,0,253.711,751.73Zm-.54,4.345c-.422-.006-.845,0-1.267,0s-.845-.01-1.266,0c-.18.006-.225-.052-.222-.225q.017-.868,0-1.737c0-.182.068-.218.233-.217q1.267.01,2.535,0c.179,0,.225.063.223.231-.008.579-.013,1.16,0,1.737C253.414,756.06,253.328,756.077,253.171,756.074Z" transform="translate(-243.899 -733.235)"/><path class="a" d="M252.984,758.65c-.737.011-1.473,0-2.209,0-.772,0-1.546.006-2.318-.006-.207,0-.263.058-.258.261.013.555.009,1.111,0,1.666,0,.172.024.258.231.256q2.3-.012,4.6,0c.191,0,.247-.058.244-.247-.011-.555-.017-1.111,0-1.666C253.285,758.677,253.188,758.646,252.984,758.65Z" transform="translate(-243.927 -729.204)"/><path class="a" d="M258.22,758.894c0-.188-.051-.247-.242-.245q-2.3.012-4.6,0c-.2,0-.239.068-.234.248.009.555.017,1.111,0,1.664-.009.247.093.271.3.269.736-.011,1.473,0,2.209,0,.759,0,1.52-.006,2.28,0,.209,0,.3-.032.294-.272C258.2,760,258.207,759.448,258.22,758.894Z" transform="translate(-241.05 -729.203)"/><path class="a" d="M263.163,758.912c0-.2-.047-.267-.258-.264-.759.013-1.52.006-2.28.006s-1.5.011-2.245-.006c-.247-.006-.3.076-.293.3q.024.8,0,1.593c-.006.217.047.29.278.288q2.262-.017,4.525,0c.236,0,.278-.081.272-.291C263.151,760,263.151,759.455,263.163,758.912Z" transform="translate(-238.171 -729.204)"/><path class="a" d="M267.8,758.649c-.737.011-1.473,0-2.209,0h-2.281c-.141,0-.286-.036-.28.2.014.59.01,1.182,0,1.774,0,.168.071.2.217.2q2.316-.007,4.634,0c.18,0,.223-.062.221-.231-.009-.555-.019-1.111,0-1.664C268.119,758.679,268.021,758.644,267.8,758.649Z" transform="translate(-235.293 -729.203)"/></g><g transform="translate(856.534 642.227)"><g transform="translate(0 10.683)"><path class="b" d="M68.234,1109.5a2.11,2.11,0,0,0,1.423-2.091q0-15.917,0-31.837a2.119,2.119,0,0,0-2.277-2.238q-7.45-.008-14.9,0c-.356,0-.713,0-1.07,0a2.116,2.116,0,0,0-2.206,2.238q-.006,9.288,0,18.574c0,4.349.009,8.7-.005,13.048a2.207,2.207,0,0,0,1.53,2.343c.095.034.215.057.218.2H67.916C67.94,1109.552,68.11,1109.552,68.234,1109.5Zm-17.941-33c.027-.343,0-.688.009-1.033a.983.983,0,0,1,1.029-1.032c.809-.01,1.616,0,2.424,0H67.3c.92,0,1.259.342,1.261,1.268,0,.285-.018.572.005.856.02.247-.052.316-.306.314-1.235-.015-2.472-.008-3.707-.008H59.418c-2.923,0-5.845-.005-8.768.009C50.343,1076.878,50.271,1076.792,50.293,1076.5Zm.385,1.575q8.754.015,17.509,0c.328,0,.38.094.38.394q-.013,11.8,0,23.607c0,.293-.067.371-.367.37q-8.771-.015-17.545,0c-.308,0-.361-.089-.361-.375q.015-5.9.006-11.8c0-3.934.005-7.869-.008-11.8C50.29,1078.154,50.361,1078.078,50.677,1078.079Zm16.74,30.445q-7.987,0-15.976,0a1.011,1.011,0,0,1-1.142-1.137c0-1.129.009-2.258-.008-3.387,0-.276.065-.349.346-.348,2.936.01,5.872.006,8.808.006s5.848,0,8.773-.006c.277,0,.351.067.347.347-.016,1.128-.005,2.258-.008,3.387A1.01,1.01,0,0,1,67.418,1108.524Z" transform="translate(-49.194 -1073.334)"/><path class="b" d="M58.533,1097.77c-.4-.016-.808,0-1.211,0a1.749,1.749,0,0,0-1.956,2.078,1.642,1.642,0,0,0,1.523,1.556c.295.021.594,0,.89,0a4.59,4.59,0,0,0,1.171-.037,1.771,1.771,0,0,0,1.261-2.1A1.69,1.69,0,0,0,58.533,1097.77Zm.473,1.935a.458.458,0,0,1-.489.492c-.248.008-.5,0-.746,0s-.475.006-.711,0a.458.458,0,0,1-.486-.494c-.024-.438.091-.678.419-.7a13.237,13.237,0,0,1,1.6,0C58.917,1099.025,59.03,1099.268,59.006,1099.7Z" transform="translate(-47.556 -1066.843)"/><path class="b" d="M54.849,1075.865a1.75,1.75,0,0,0,.423.043q2.776,0,5.553,0a1.682,1.682,0,0,0,.421-.044.589.589,0,0,0-.039-1.147,2.092,2.092,0,0,0-.39-.025q-1.388,0-2.776,0t-2.777,0a2.37,2.37,0,0,0-.354.02.548.548,0,0,0-.5.553A.54.54,0,0,0,54.849,1075.865Z" transform="translate(-47.809 -1072.974)"/><path class="b" d="M62.589,1075.877a2.744,2.744,0,0,0,.42.033c.6,0,.9-.206.9-.614s-.294-.6-1-.6a2.19,2.19,0,0,0-.252.013.575.575,0,0,0-.556.576A.559.559,0,0,0,62.589,1075.877Z" transform="translate(-45.765 -1072.973)"/></g><path class="c" d="M83.909,1064.894H71.4a5.157,5.157,0,0,0-5.157,5.158v3.911A5.123,5.123,0,0,0,68.1,1077.9l-1.858,3.683a29.376,29.376,0,0,0,5.52-2.459H83.909a5.158,5.158,0,0,0,5.158-5.156v-3.911A5.159,5.159,0,0,0,83.909,1064.894Z" transform="translate(-44.664 -1064.894)"/><text class="d" transform="translate(25.017 6.622)"><tspan x="0" y="0">55 55...</tspan></text></g><line class="e" y2="51.958" transform="translate(917.151 645.113)"/><line class="e" y2="51.958" transform="translate(1003.106 645.113)"/></g></svg>