<svg xmlns="http://www.w3.org/2000/svg" width="47.894" height="47.893" viewBox="0 0 47.894 47.893"><defs><style>.a{fill:none;stroke:#fff;stroke-miterlimit:10;stroke-width:1.43px;}.b{fill:#fff;}</style></defs><g transform="translate(-69.008 -216.128)"><path class="a" d="M92.955,263.306h0a23.232,23.232,0,0,1-23.232-23.232h0a23.231,23.231,0,0,1,23.232-23.231h0a23.232,23.232,0,0,1,23.232,23.231h0A23.232,23.232,0,0,1,92.955,263.306Z"/><path class="b" d="M92.955,230.815c3.016,0,3.373.011,4.564.066a6.233,6.233,0,0,1,2.1.389,3.735,3.735,0,0,1,2.144,2.143,6.286,6.286,0,0,1,.389,2.1c.054,1.191.065,1.549.065,4.564s-.011,3.373-.065,4.564a6.286,6.286,0,0,1-.389,2.1,3.74,3.74,0,0,1-2.144,2.144,6.233,6.233,0,0,1-2.1.389c-1.191.054-1.548.066-4.564.066s-3.373-.012-4.564-.066a6.233,6.233,0,0,1-2.1-.389,3.74,3.74,0,0,1-2.144-2.144,6.285,6.285,0,0,1-.389-2.1c-.054-1.191-.065-1.548-.065-4.564s.011-3.373.065-4.564a6.286,6.286,0,0,1,.389-2.1,3.735,3.735,0,0,1,2.144-2.143,6.233,6.233,0,0,1,2.1-.389c1.191-.055,1.548-.066,4.564-.066m0-2.035c-3.067,0-3.452.013-4.657.068a8.293,8.293,0,0,0-2.741.525,5.773,5.773,0,0,0-3.3,3.3,8.249,8.249,0,0,0-.525,2.742c-.055,1.2-.068,1.589-.068,4.656s.013,3.452.068,4.657a8.255,8.255,0,0,0,.525,2.742,5.773,5.773,0,0,0,3.3,3.3,8.294,8.294,0,0,0,2.741.525c1.205.055,1.59.068,4.657.068s3.452-.013,4.657-.068a8.293,8.293,0,0,0,2.741-.525,5.773,5.773,0,0,0,3.3-3.3,8.255,8.255,0,0,0,.525-2.742c.055-1.205.068-1.589.068-4.657s-.013-3.452-.068-4.656a8.249,8.249,0,0,0-.525-2.742,5.773,5.773,0,0,0-3.3-3.3,8.293,8.293,0,0,0-2.741-.525c-1.205-.055-1.59-.068-4.657-.068"/><path class="b" d="M92.955,234.275a5.8,5.8,0,1,0,5.8,5.8,5.8,5.8,0,0,0-5.8-5.8m0,9.564a3.765,3.765,0,1,1,3.765-3.765,3.765,3.765,0,0,1-3.765,3.765"/><path class="b" d="M100.339,234.045a1.355,1.355,0,1,1-1.355-1.355,1.355,1.355,0,0,1,1.355,1.355"/></g></svg>