<svg xmlns="http://www.w3.org/2000/svg" xmlns:xlink="http://www.w3.org/1999/xlink" width="161.357" height="170.744" viewBox="0 0 161.357 170.744"><defs><style>.a{fill:#fdfdfd;}.b{fill:#04518f;}.c{fill:#72d4fd;}.d{fill:url(#c);}.e{fill:#0595d1;}.f{fill:#fff;}.g{fill:#fb6b18;}.h{fill:#fd5415;}.i{filter:url(#a);}</style><filter id="a" x="0" y="0" width="161.357" height="170.743" filterUnits="userSpaceOnUse"><feOffset dy="10" input="SourceAlpha"/><feGaussianBlur stdDeviation="3" result="b"/><feFlood flood-opacity="0.161"/><feComposite operator="in" in2="b"/><feComposite in="SourceGraphic"/></filter><linearGradient id="c" x1="0.5" x2="0.5" y2="1" gradientUnits="objectBoundingBox"><stop offset="0" stop-color="#0596d2"/><stop offset="1" stop-color="#04518f"/></linearGradient></defs><g transform="translate(-683 -2947.224)"><g class="i" transform="matrix(1, 0, 0, 1, 683, 2947.22)"><path class="a" d="M-3237.767,149.1v-21.37a50.31,50.31,0,0,1-16.709-24.181v0h-11.554A47.935,47.935,0,0,1-3268,90.074a45.57,45.57,0,0,1,1.969-13.153h11.442a50.027,50.027,0,0,1,16.278-23.777l-5.207-18.787h0s0,0,0,0c.281.1,13.428,4.663,19.2,10.235a65.365,65.365,0,0,1,26.173-5.377,65.467,65.467,0,0,1,25.336,5.019l0,0c19.3,8.1,32.7,25.161,33.063,44.978a8.274,8.274,0,0,1,1.784-.172c.149,0,.3,0,.445.016.28.01.555.049.831.078.274.048.549.082.811.149a12.939,12.939,0,0,1,1.558.445c.2.075.407.151.607.231q.271-.34.572-.657a8.623,8.623,0,0,1,2.556-1.831,8.825,8.825,0,0,1,2.969-.779,9.755,9.755,0,0,1,1.5-.005,10.775,10.775,0,0,1,1.468.221c-.246.037-.488.057-.727.1s-.479.076-.715.118c-.473.09-.935.2-1.384.334a10.014,10.014,0,0,0-2.5,1.139,8.592,8.592,0,0,0-2.225,2.07c.014.01.03.019.046.028l.356.2.176.1c.061.035.117.075.174.109s.122.078.185.118a9.865,9.865,0,0,1,2.318,2.09l.253.35.124.175.114.186c.072.124.151.246.219.374l.2.391a7.127,7.127,0,0,1,.55,1.678,6.03,6.03,0,0,1-.385,3.585,4.5,4.5,0,0,1-1.156,1.562,3.913,3.913,0,0,1-1.832.889,4.16,4.16,0,0,1-1.964-.118c-.147-.049-.3-.1-.443-.149-.079-.032-.163-.073-.244-.112s-.158-.086-.238-.128a3.764,3.764,0,0,1-.8-.65,4.363,4.363,0,0,1-.569-.766,5.386,5.386,0,0,1-.4-.806,7.214,7.214,0,0,1-.424-1.635,10.369,10.369,0,0,1,.059-3.209,11.582,11.582,0,0,1,.8-2.683c-.038-.013-.075-.026-.112-.04a10.367,10.367,0,0,0-1.24-.346c-.208-.051-.416-.076-.621-.112-.046-.006-.088-.009-.13-.014-.163-.018-.326-.039-.486-.043a5.846,5.846,0,0,0-2.115.248,44.722,44.722,0,0,1-1.43,9.5.023.023,0,0,1,0,.007c-3.187,12.117-11.346,22.582-22.509,29.684v17.967s-6.429,4.5-13.28,1.768l-1.341-7.359-.97-5.312a66.219,66.219,0,0,1-18.838,2.7c-.253,0-.508,0-.76,0-.187,0-.373,0-.559,0a62.874,62.874,0,0,1-22.458-4.091l-1.2,6.6-1.364,7.467a12.461,12.461,0,0,1-4.641.879A16.633,16.633,0,0,1-3237.767,149.1Zm31.46-117.2a16.508,16.508,0,0,1-9.74-21.011,16.067,16.067,0,0,1,20.64-9.917,16.512,16.512,0,0,1,9.743,21.011,16.166,16.166,0,0,1-15.194,10.886A15.869,15.869,0,0,1-3206.307,31.9Z" transform="translate(3277)"/></g><g transform="translate(0 4)"><g transform="translate(3 4.457)"><g transform="translate(689 2973.123)"><path class="b" d="M17.748.027a9.836,9.836,0,0,0-1.5,0A8.832,8.832,0,0,0,13.275.81a8.62,8.62,0,0,0-2.556,1.831c-.2.21-.391.429-.571.657-.2-.081-.4-.158-.607-.233a13.015,13.015,0,0,0-1.558-.445c-.262-.065-.537-.1-.811-.149-.275-.029-.551-.068-.831-.079-.149-.011-.3-.016-.445-.016a8.1,8.1,0,0,0-2.949.513A7.092,7.092,0,0,0,.68,4.274c-.111.1-.219.21-.327.323C.3,4.658.244,4.714.19,4.78c-.027.032-.054.063-.084.1l-.045.056L0,5.012,2.1,6.521,2.1,6.514l.034-.041.084-.088c.061-.061.124-.124.194-.183a4.484,4.484,0,0,1,.443-.339,5.075,5.075,0,0,1,1.012-.515A5.744,5.744,0,0,1,6.2,5.026c.16,0,.323.025.485.043l.131.014c.205.036.413.061.621.113a10.05,10.05,0,0,1,1.24.345l.113.041a11.511,11.511,0,0,0-.8,2.683,10.38,10.38,0,0,0-.059,3.209,7.244,7.244,0,0,0,.425,1.635,5.317,5.317,0,0,0,.4.806,4.365,4.365,0,0,0,.569.765,3.712,3.712,0,0,0,.8.65c.079.043.154.09.237.129s.165.079.244.111c.147.052.3.1.443.151A4.208,4.208,0,0,0,13,15.837a3.944,3.944,0,0,0,1.831-.89,4.517,4.517,0,0,0,1.156-1.563A6.026,6.026,0,0,0,16.375,9.8a7.131,7.131,0,0,0-.551-1.678l-.2-.391c-.068-.129-.147-.251-.219-.375L15.3,7.173,15.172,7l-.253-.35A9.852,9.852,0,0,0,12.6,4.558l-.185-.117c-.056-.036-.113-.075-.174-.111l-.176-.1-.357-.2-.045-.027a8.609,8.609,0,0,1,2.224-2.071A10.035,10.035,0,0,1,16.389.8c.449-.131.912-.244,1.384-.334.237-.043.474-.088.716-.117s.481-.061.727-.1A10.6,10.6,0,0,0,17.748.027Z" transform="translate(124.141 52.31)"/><path class="c" d="M16.716,5.693,14.641,17.073l-1.364,7.467C6.426,27.271,0,22.773,0,22.773V0Z" transform="translate(30.233 91.966)"/><path class="b" d="M0,0,16.716,5.693,14.641,17.075A57.446,57.446,0,0,1,0,9.525V0Z" transform="translate(30.233 91.964)"/><path class="c" d="M16.719,0V22.773s-6.429,4.5-13.28,1.768L2.1,17.182,0,5.693Z" transform="translate(87.563 91.964)"/><path class="b" d="M16.719,0V10.572A40.254,40.254,0,0,1,2.1,17.182L0,5.693Z" transform="translate(87.563 91.964)"/><path class="d" d="M116.819,50.84a44.666,44.666,0,0,1-1.47,11.381.018.018,0,0,1,0,.007c-5.941,22.594-29.176,39.451-56.937,39.451-26.891,0-49.537-15.818-56.327-37.346A44.588,44.588,0,0,1,0,50.84C0,22.764,26.153,0,58.409,0A65.47,65.47,0,0,1,83.745,5.02l0,0C103.315,13.237,116.819,30.667,116.819,50.84Z" transform="translate(11.443 4.859)"/><path class="b" d="M110.618,3.389c-5.8,22.6-28.493,39.451-55.607,39.451C28.751,42.84,6.631,27.022,0,5.494V0S17.837,34.6,56.019,36.294C93.909,37.976,110.369,3.945,110.618,3.389Z" transform="translate(13.523 63.696)"/><path class="b" d="M13.523,0V26.627H1.969A46,46,0,0,1,1.969,0Z" transform="translate(0 42.565)"/><path class="c" d="M1.969,26.627A46,46,0,0,1,1.969,0S6.128,13.135,1.969,26.627Z" transform="translate(0 42.565)"/><path class="b" d="M1.2,4.43C1.2,6.878,1,8.863.749,8.863S.3,6.878.3,4.43.5,0,.749,0,1.2,1.985,1.2,4.43Z" transform="translate(1.158 51.506)"/><path class="c" d="M19.833,41.368l.007,5.539-7.027.007,0-5.288C7.824,41.329,2.99,39.986,0,38.143l3.778-8.587A23.9,23.9,0,0,0,15.292,32.74c3.337,0,4.532-.7,4.532-1.9,0-4.392-19.284-.831-19.3-13.855C.524,11.345,4.6,6.6,12.776,5.444l0-5.44L19.8,0l0,5.338A26,26,0,0,1,29.919,8.224l-3.532,8.535a21.491,21.491,0,0,0-9.716-2.585c-3.439,0-4.534,1-4.534,2.2,0,4.193,19.284.682,19.3,13.557C31.439,35.321,27.555,40.015,19.833,41.368Z" transform="translate(53.014 30.699)"/><path class="b" d="M19.487,10.523A20.34,20.34,0,0,1,10.414,17.7,18.843,18.843,0,0,1,5.25,18.936L0,0C.181.061,13.86,4.8,19.487,10.523Z" transform="translate(24.481 0)"/><path class="e" d="M10.414,17.7A18.843,18.843,0,0,1,5.25,18.936L0,0H0C.138.126,8.892,9.251,10.414,17.7Z" transform="translate(24.481 0)"/><path class="c" d="M39.261,2.627l-.44,2.305c-.885-.257-1.775-.492-2.66-.7q-2.263-.545-4.5-.917c-2.15-.361-4.272-.614-6.338-.777-.113-.009-.224-.018-.334-.025Q23.6,2.4,22.246,2.35l-.1,0c-1.039-.041-2.059-.061-3.053-.065h-.382c-.061,0-.122,0-.183,0-2.423.007-4.7.117-6.761.28q-.115.007-.224.02c-.671.052-1.316.113-1.937.176l-.138.014c-.747.079-1.456.16-2.127.248-1.865.239-3.419.5-4.588.718-1.508.282-2.371.495-2.412.5L0,2.192c.3-.072.845-.2,1.617-.366h0L1.9,1.763C2.915,1.555,4.259,1.3,5.88,1.045,7.558.787,9.531.53,11.731.34l.131-.014h0c.208-.016.418-.036.632-.052q.627-.051,1.278-.093c.07,0,.14-.009.21-.011l.167-.011c2.025-.124,4.207-.185,6.5-.149.183,0,.368,0,.551.009q1.274.027,2.588.1.793.041,1.6.1c.524.038,1.052.081,1.585.135.113.009.23.02.345.034,1.942.19,3.934.465,5.948.84q2.086.383,4.207.919C38.066,2.3,38.663,2.456,39.261,2.627Z" transform="translate(50.23 8.669)"/></g><ellipse class="c" cx="3.05" cy="5.084" rx="3.05" ry="5.084" transform="translate(716.451 3001.466)"/></g><g transform="translate(1880.385 -8350.286)"><path class="f" d="M31.336,21.981A16.511,16.511,0,0,0,21.592.969,16.064,16.064,0,0,0,.952,10.887,16.506,16.506,0,0,0,10.693,31.9,16.066,16.066,0,0,0,31.336,21.981Z" transform="translate(-1137.385 11293.51)"/><path class="g" d="M16.464,29.65A14.833,14.833,0,0,0,29.128,13.011,14.677,14.677,0,0,0,12.783.12,14.835,14.835,0,0,0,.118,16.759,14.673,14.673,0,0,0,16.464,29.65Z" transform="translate(-1135.879 11295.051)"/><path class="f" d="M20.379,15.359A10.936,10.936,0,0,0,15.091.979,10.591,10.591,0,0,0,.961,6.363a10.937,10.937,0,0,0,5.292,14.38A10.587,10.587,0,0,0,20.379,15.359Z" transform="translate(-1131.927 11299.083)"/><path class="h" d="M5.291,16.609,4.859,14.6a5.745,5.745,0,0,1-3.178-.2l.181-1.436a5.255,5.255,0,0,0,3,.224,2.132,2.132,0,0,0,1.9-2.466c-.237-1.093-1.143-1.6-2.717-1.87C1.879,8.5.453,7.867.078,6.138A3.344,3.344,0,0,1,2.334,2.279L1.9.273,3.111,0l.415,1.926a5.261,5.261,0,0,1,2.687.128l-.2,1.419a4.731,4.731,0,0,0-2.6-.125c-1.5.339-1.87,1.38-1.7,2.173.224,1.034,1.057,1.386,2.911,1.722,2.19.382,3.428,1.189,3.81,2.957a3.544,3.544,0,0,1-2.351,4.067l.448,2.068Z" transform="translate(-1125.296 11301.089)"/></g></g></g></svg>