<svg xmlns="http://www.w3.org/2000/svg" width="268.305" height="71.928" viewBox="0 0 268.305 71.928"><defs><style>.a{fill:#fff;}</style></defs><g transform="translate(0)"><g transform="translate(0)"><path class="a" d="M252.557-352h7.161c5.008,0,7.162,2.328,7.162,7.073v1.889c0,3.162-1.011,5.184-3.163,6.062v.088c2.416.748,3.207,3.032,3.207,6.5v5.4a9.062,9.062,0,0,0,.527,3.734H262.53a9.469,9.469,0,0,1-.439-3.779v-5.624c0-2.855-.835-3.778-3.032-3.778h-1.67v13.18h-4.833Zm6.59,13.18c1.8,0,2.9-.791,2.9-3.252v-2.372c0-2.2-.747-3.163-2.46-3.163h-2.2v8.787Z" transform="translate(-174.964 354.122)"/><path class="a" d="M275.432-352h13.18v4.393h-8.348v8.128H286.9v4.393h-6.634v9.446h8.348v4.393h-13.18Z" transform="translate(-180.134 354.122)"/><path class="a" d="M295.64-328.487v-16.52c0-4.745,2.46-7.556,7.117-7.556s7.117,2.812,7.117,7.556v3.251H305.3v-3.559c0-2.021-.966-2.855-2.416-2.855s-2.416.834-2.416,2.855v17.179c0,2.021.967,2.811,2.416,2.811s2.416-.79,2.416-2.811v-4.7h4.569v4.35c0,4.744-2.46,7.556-7.117,7.556s-7.117-2.812-7.117-7.556" transform="translate(-184.701 354.25)"/><path class="a" d="M317.436-328.663v-16.168c0-4.92,2.592-7.732,7.337-7.732s7.337,2.812,7.337,7.732v16.168c0,4.921-2.592,7.733-7.337,7.733s-7.337-2.812-7.337-7.733m9.841.308v-16.783c0-2.2-.967-3.031-2.5-3.031s-2.5.834-2.5,3.031v16.783c0,2.2.966,3.032,2.5,3.032s2.5-.835,2.5-3.032" transform="translate(-189.628 354.25)"/><path class="a" d="M340.595-352h6.9l3.075,22.011h.088L353.731-352h6.9v30.754h-4.569v-23.285h-.088l-3.515,23.285h-4.042L344.9-344.526h-.088v23.285h-4.218Z" transform="translate(-194.862 354.122)"/><path class="a" d="M371.133-352h7.117c4.833,0,7.2,2.68,7.2,7.6v3.032c0,4.92-2.372,7.6-7.2,7.6h-2.284v12.521h-4.833Zm7.117,13.839c1.538,0,2.373-.7,2.373-2.9V-344.7c0-2.2-.835-2.9-2.373-2.9h-2.284v9.446Z" transform="translate(-201.764 354.122)"/><path class="a" d="M393.042-352h13.18v4.393h-8.348v8.128h6.634v4.393h-6.634v9.446h8.348v4.393h-13.18Z" transform="translate(-206.716 354.122)"/><path class="a" d="M413.647-352h6.063l4.7,18.408h.088V-352H428.8v30.754h-4.965l-5.8-22.45h-.088v22.45h-4.305Z" transform="translate(-211.373 354.122)"/><path class="a" d="M436.8-328.663v-1.757h4.569v2.109c0,2.2.967,2.988,2.5,2.988s2.5-.791,2.5-3.076c0-2.548-.967-4.173-4.13-6.942-4.042-3.558-5.36-6.063-5.36-9.577,0-4.833,2.5-7.645,7.2-7.645s7.03,2.812,7.03,7.732v1.274h-4.57v-1.581c0-2.2-.878-3.031-2.416-3.031s-2.416.834-2.416,2.943c0,2.24,1.01,3.866,4.173,6.634,4.042,3.559,5.316,6.019,5.316,9.841,0,5.008-2.548,7.82-7.292,7.82s-7.118-2.811-7.118-7.732" transform="translate(-216.607 354.25)"/><path class="a" d="M462.191-352h6.546l5.009,30.753h-4.833l-.879-6.107v.088h-5.491l-.878,6.018h-4.481Zm5.271,20.561-2.152-15.2h-.088l-2.108,15.2Z" transform="translate(-221.213 354.122)"/><path class="a" d="M480.341-328.663v-1.757h4.57v2.109c0,2.2.966,2.988,2.5,2.988s2.5-.791,2.5-3.076c0-2.548-.967-4.173-4.13-6.942-4.043-3.558-5.36-6.063-5.36-9.577,0-4.833,2.5-7.645,7.205-7.645s7.029,2.812,7.029,7.732v1.274h-4.569v-1.581c0-2.2-.878-3.031-2.416-3.031s-2.416.834-2.416,2.943c0,2.24,1.011,3.866,4.173,6.634,4.043,3.559,5.317,6.019,5.317,9.841,0,5.008-2.549,7.82-7.293,7.82s-7.118-2.811-7.118-7.732" transform="translate(-226.447 354.25)"/><g transform="translate(76.677 36.848)"><path class="a" d="M251.373-306.568h7.381a7.042,7.042,0,0,1,5.4,1.933,8.03,8.03,0,0,1,1.8,5.667v15.552a8.028,8.028,0,0,1-1.8,5.667,7.039,7.039,0,0,1-5.4,1.933h-7.381Zm7.292,26.36a2.334,2.334,0,0,0,1.824-.7,3.357,3.357,0,0,0,.637-2.285v-15.992a3.356,3.356,0,0,0-.637-2.284,2.337,2.337,0,0,0-1.824-.7h-2.46v21.967Z" transform="translate(-251.373 307.007)"/><path class="a" d="M274.417-306.568h4.833v30.753h-4.833Z" transform="translate(-256.581 307.007)"/><path class="a" d="M286.038-277.5a8.279,8.279,0,0,1-1.8-5.733v-1.758h4.569v2.109q0,2.987,2.5,2.988a2.354,2.354,0,0,0,1.867-.725,3.528,3.528,0,0,0,.637-2.351,6.52,6.52,0,0,0-.879-3.4,16.235,16.235,0,0,0-3.251-3.536,19.482,19.482,0,0,1-4.173-4.767,9.717,9.717,0,0,1-1.186-4.811,8.019,8.019,0,0,1,1.844-5.645,6.937,6.937,0,0,1,5.361-2,6.666,6.666,0,0,1,5.25,2,8.349,8.349,0,0,1,1.779,5.734v1.274h-4.57v-1.581a3.53,3.53,0,0,0-.615-2.306,2.229,2.229,0,0,0-1.8-.725q-2.416,0-2.416,2.943a5.8,5.8,0,0,0,.9,3.119,17.173,17.173,0,0,0,3.273,3.515,18.105,18.105,0,0,1,4.173,4.789,10.629,10.629,0,0,1,1.142,5.053,8.243,8.243,0,0,1-1.867,5.8,7.022,7.022,0,0,1-5.426,2.02A6.788,6.788,0,0,1,286.038-277.5Z" transform="translate(-258.801 307.135)"/><path class="a" d="M306.431-306.568h4.833v12.521h5.184v-12.521h4.833v30.753h-4.833v-13.839h-5.184v13.839h-4.833Z" transform="translate(-263.817 307.007)"/></g><path class="a" d="M188.269-354.743a35.8,35.8,0,0,0-18.668,5.218,12.433,12.433,0,0,1,8.252,6.9A39.108,39.108,0,0,1,180.1-331.76l15.473-6.543a7.029,7.029,0,0,1,8.934,2.916,6.753,6.753,0,0,1,.419,5.46,6.025,6.025,0,0,1,3.3,3.253,6.087,6.087,0,0,1-.974,6.317,6.045,6.045,0,0,1,1.648,2.256,6.091,6.091,0,0,1-.976,6.321,6.12,6.12,0,0,1,2.044,3.571,6.254,6.254,0,0,1-3.825,6.776l-22.992,9.724a17.81,17.81,0,0,1-6.888,1.168L164.9-317.388l.237-.28.6-18.678-3.2-7.563a35.841,35.841,0,0,0-10.241,25.13,36.293,36.293,0,0,0,.286,4.557l9.075-3.838,13.235,31.3a6.961,6.961,0,0,1-.765,1.065,35.846,35.846,0,0,0,14.133,2.885,35.964,35.964,0,0,0,35.964-35.964,35.963,35.963,0,0,0-35.964-35.964" transform="translate(-152.305 354.743)"/></g></g></svg>