<svg xmlns="http://www.w3.org/2000/svg" width="332.727" height="89.198" viewBox="0 0 332.727 89.198"><defs><style>.a{fill:#ed1420;}</style></defs><g transform="translate(0)"><g transform="translate(0)"><path class="a" d="M252.557-352h8.88c6.211,0,8.881,2.887,8.881,8.772v2.343c0,3.922-1.254,6.429-3.923,7.517v.109c3,.927,3.978,3.76,3.978,8.064v6.7a11.238,11.238,0,0,0,.654,4.631h-6.1c-.326-.98-.544-1.58-.544-4.686v-6.974c0-3.541-1.036-4.685-3.76-4.685h-2.07v16.345h-5.993Zm8.172,16.345c2.234,0,3.6-.981,3.6-4.032v-2.942c0-2.724-.926-3.923-3.051-3.923H258.55v10.9Z" transform="translate(-156.333 354.633)"/><path class="a" d="M275.432-352h16.345v5.448H281.425v10.08h8.227v5.448h-8.227v11.714h10.352v5.448H275.432Z" transform="translate(-157.252 354.633)"/><path class="a" d="M295.64-322.706v-20.487c0-5.884,3.05-9.371,8.826-9.371s8.826,3.487,8.826,9.371v4.032h-5.666v-4.413c0-2.506-1.2-3.541-3-3.541s-3,1.035-3,3.541v21.3c0,2.506,1.2,3.486,3,3.486s3-.98,3-3.486v-5.83h5.666v5.394c0,5.884-3.05,9.371-8.826,9.371s-8.826-3.487-8.826-9.371" transform="translate(-158.064 354.655)"/><path class="a" d="M317.436-322.925v-20.05c0-6.1,3.214-9.589,9.1-9.589s9.1,3.487,9.1,9.589v20.05c0,6.1-3.214,9.59-9.1,9.59s-9.1-3.487-9.1-9.59m12.2.382v-20.813c0-2.724-1.2-3.759-3.106-3.759s-3.105,1.035-3.105,3.759v20.813c0,2.724,1.2,3.76,3.105,3.76s3.106-1.036,3.106-3.76" transform="translate(-158.94 354.655)"/><path class="a" d="M340.595-352h8.554l3.814,27.3h.109l3.814-27.3h8.554v38.138h-5.666v-28.876h-.109L355.3-313.857h-5.012l-4.359-28.876h-.109v28.876h-5.23Z" transform="translate(-159.87 354.633)"/><path class="a" d="M371.133-352h8.825c5.993,0,8.935,3.323,8.935,9.426v3.76c0,6.1-2.942,9.424-8.935,9.424h-2.832v15.528h-5.993Zm8.825,17.162c1.907,0,2.943-.872,2.943-3.6v-4.523c0-2.724-1.036-3.6-2.943-3.6h-2.832v11.714Z" transform="translate(-161.097 354.633)"/><path class="a" d="M393.042-352h16.345v5.448H399.035v10.08h8.227v5.448h-8.227v11.714h10.352v5.448H393.042Z" transform="translate(-161.978 354.633)"/><path class="a" d="M413.647-352h7.518l5.83,22.828h.109V-352h5.34v38.138h-6.157L419.095-341.7h-.109v27.841h-5.339Z" transform="translate(-162.805 354.633)"/><path class="a" d="M436.8-322.925V-325.1h5.666v2.616c0,2.724,1.2,3.7,3.106,3.7s3.105-.981,3.105-3.814c0-3.16-1.2-5.175-5.122-8.609-5.012-4.412-6.647-7.518-6.647-11.877,0-5.993,3.106-9.48,8.935-9.48s8.718,3.487,8.718,9.589v1.58H448.9v-1.961c0-2.724-1.089-3.759-3-3.759s-3,1.035-3,3.65c0,2.778,1.253,4.794,5.175,8.227,5.012,4.413,6.592,7.465,6.592,12.2,0,6.211-3.16,9.7-9.043,9.7s-8.827-3.486-8.827-9.589" transform="translate(-163.736 354.655)"/><path class="a" d="M463.394-352h8.117l6.212,38.138H471.73l-1.09-7.573v.109h-6.81l-1.089,7.463h-5.557Zm6.537,25.5-2.669-18.851h-.109L464.538-326.5Z" transform="translate(-164.555 354.633)"/><path class="a" d="M480.341-322.925V-325.1h5.667v2.616c0,2.724,1.2,3.7,3.1,3.7s3.106-.981,3.106-3.814c0-3.16-1.2-5.175-5.121-8.609-5.013-4.412-6.647-7.518-6.647-11.877,0-5.993,3.105-9.48,8.935-9.48s8.717,3.487,8.717,9.589v1.58h-5.666v-1.961c0-2.724-1.089-3.759-3-3.759s-3,1.035-3,3.65c0,2.778,1.254,4.794,5.175,8.227,5.013,4.413,6.593,7.465,6.593,12.2,0,6.211-3.161,9.7-9.044,9.7s-8.827-3.486-8.827-9.589" transform="translate(-165.485 354.655)"/><g transform="translate(95.088 45.695)"><path class="a" d="M251.373-306.568h9.153q4.466,0,6.7,2.4t2.233,7.028v19.287q0,4.632-2.233,7.028t-6.7,2.4h-9.153Zm9.043,32.69a2.9,2.9,0,0,0,2.261-.871,4.164,4.164,0,0,0,.79-2.833v-19.832a4.162,4.162,0,0,0-.79-2.832,2.9,2.9,0,0,0-2.261-.872h-3.05v27.242Z" transform="translate(-251.373 307.112)"/><path class="a" d="M274.417-306.568h5.994v38.137h-5.994Z" transform="translate(-252.299 307.112)"/><path class="a" d="M286.471-270.387q-2.235-2.479-2.234-7.109v-2.18H289.9v2.615q0,3.7,3.106,3.7a2.92,2.92,0,0,0,2.315-.9,4.375,4.375,0,0,0,.79-2.915,8.086,8.086,0,0,0-1.089-4.222,20.131,20.131,0,0,0-4.032-4.385,24.159,24.159,0,0,1-5.175-5.912,12.051,12.051,0,0,1-1.47-5.966q0-4.521,2.287-7t6.648-2.478q4.3,0,6.51,2.478t2.207,7.11v1.58h-5.667v-1.961a4.378,4.378,0,0,0-.763-2.86,2.764,2.764,0,0,0-2.234-.9q-3,0-3,3.65a7.2,7.2,0,0,0,1.117,3.868,21.3,21.3,0,0,0,4.059,4.359,22.452,22.452,0,0,1,5.175,5.938,13.181,13.181,0,0,1,1.417,6.266q0,4.686-2.315,7.192t-6.728,2.505Q288.7-267.909,286.471-270.387Z" transform="translate(-252.693 307.135)"/><path class="a" d="M306.431-306.568h5.993v15.527h6.429v-15.527h5.993v38.137h-5.993v-17.162h-6.429v17.162h-5.993Z" transform="translate(-253.585 307.112)"/></g><path class="a" d="M196.9-354.743a44.391,44.391,0,0,0-23.15,6.471,15.418,15.418,0,0,1,10.234,8.56c1.8,4.25,2.512,10.183,2.782,13.471l19.188-8.114a8.717,8.717,0,0,1,11.079,3.616,8.374,8.374,0,0,1,.519,6.771,7.472,7.472,0,0,1,4.09,4.034,7.549,7.549,0,0,1-1.208,7.834,7.5,7.5,0,0,1,2.043,2.8,7.554,7.554,0,0,1-1.21,7.839,7.59,7.59,0,0,1,2.535,4.429,7.756,7.756,0,0,1-4.743,8.4l-28.512,12.058a22.087,22.087,0,0,1-8.541,1.448l-14.081-33.292.294-.347.75-23.162L165-341.308a44.447,44.447,0,0,0-12.7,31.164,45,45,0,0,0,.355,5.651l11.254-4.76,16.413,38.809a8.63,8.63,0,0,1-.949,1.321,44.453,44.453,0,0,0,17.526,3.577,44.6,44.6,0,0,0,44.6-44.6,44.6,44.6,0,0,0-44.6-44.6" transform="translate(-152.305 354.743)"/></g></g></svg>