<svg xmlns="http://www.w3.org/2000/svg" xmlns:xlink="http://www.w3.org/1999/xlink" width="363.409" height="38.389" viewBox="0 0 363.409 38.389"><defs><style>.a{fill:#fff;}.b{fill:#fdf98c;}.c{fill:#f6e253;}.d{fill:#fdfacf;}.e{fill:#e2b839;}.f{fill:#c29130;}.g{filter:url(#ag);}.h{filter:url(#ae);}.i{filter:url(#ac);}.j{filter:url(#aa);}.k{filter:url(#y);}.l{filter:url(#w);}.m{filter:url(#u);}.n{filter:url(#s);}.o{filter:url(#q);}.p{filter:url(#o);}.q{filter:url(#m);}.r{filter:url(#k);}.s{filter:url(#i);}.t{filter:url(#g);}.u{filter:url(#e);}.v{filter:url(#c);}.w{filter:url(#a);}</style><filter id="a" x="0" y="0.372" width="35.134" height="36.624" filterUnits="userSpaceOnUse"><feOffset dy="3" input="SourceAlpha"/><feGaussianBlur stdDeviation="3" result="b"/><feFlood flood-opacity="0.333"/><feComposite operator="in" in2="b"/><feComposite in="SourceGraphic"/></filter><filter id="c" x="19.129" y="0.372" width="33.085" height="36.624" filterUnits="userSpaceOnUse"><feOffset dy="3" input="SourceAlpha"/><feGaussianBlur stdDeviation="3" result="d"/><feFlood flood-opacity="0.333"/><feComposite operator="in" in2="d"/><feComposite in="SourceGraphic"/></filter><filter id="e" x="36.236" y="0" width="35.852" height="37.369" filterUnits="userSpaceOnUse"><feOffset dy="3" input="SourceAlpha"/><feGaussianBlur stdDeviation="3" result="f"/><feFlood flood-opacity="0.333"/><feComposite operator="in" in2="f"/><feComposite in="SourceGraphic"/></filter><filter id="g" x="55.657" y="0" width="38.06" height="37.369" filterUnits="userSpaceOnUse"><feOffset dy="3" input="SourceAlpha"/><feGaussianBlur stdDeviation="3" result="h"/><feFlood flood-opacity="0.333"/><feComposite operator="in" in2="h"/><feComposite in="SourceGraphic"/></filter><filter id="i" x="78.404" y="0.372" width="37.794" height="36.624" filterUnits="userSpaceOnUse"><feOffset dy="3" input="SourceAlpha"/><feGaussianBlur stdDeviation="3" result="j"/><feFlood flood-opacity="0.333"/><feComposite operator="in" in2="j"/><feComposite in="SourceGraphic"/></filter><filter id="k" x="101.604" y="0.372" width="23.188" height="36.624" filterUnits="userSpaceOnUse"><feOffset dy="3" input="SourceAlpha"/><feGaussianBlur stdDeviation="3" result="l"/><feFlood flood-opacity="0.333"/><feComposite operator="in" in2="l"/><feComposite in="SourceGraphic"/></filter><filter id="m" x="110.197" y="0.372" width="33.085" height="36.624" filterUnits="userSpaceOnUse"><feOffset dy="3" input="SourceAlpha"/><feGaussianBlur stdDeviation="3" result="n"/><feFlood flood-opacity="0.333"/><feComposite operator="in" in2="n"/><feComposite in="SourceGraphic"/></filter><filter id="o" x="127.942" y="0.372" width="35.586" height="36.624" filterUnits="userSpaceOnUse"><feOffset dy="3" input="SourceAlpha"/><feGaussianBlur stdDeviation="3" result="p"/><feFlood flood-opacity="0.333"/><feComposite operator="in" in2="p"/><feComposite in="SourceGraphic"/></filter><filter id="q" x="148.827" y="0.372" width="35.692" height="36.624" filterUnits="userSpaceOnUse"><feOffset dy="3" input="SourceAlpha"/><feGaussianBlur stdDeviation="3" result="r"/><feFlood flood-opacity="0.333"/><feComposite operator="in" in2="r"/><feComposite in="SourceGraphic"/></filter><filter id="s" x="167.69" y="0.24" width="38.832" height="36.756" filterUnits="userSpaceOnUse"><feOffset dy="3" input="SourceAlpha"/><feGaussianBlur stdDeviation="3" result="t"/><feFlood flood-opacity="0.333"/><feComposite operator="in" in2="t"/><feComposite in="SourceGraphic"/></filter><filter id="u" x="195.997" y="0.372" width="37.342" height="36.624" filterUnits="userSpaceOnUse"><feOffset dy="3" input="SourceAlpha"/><feGaussianBlur stdDeviation="3" result="v"/><feFlood flood-opacity="0.333"/><feComposite operator="in" in2="v"/><feComposite in="SourceGraphic"/></filter><filter id="w" x="222.815" y="0.24" width="38.832" height="36.756" filterUnits="userSpaceOnUse"><feOffset dy="3" input="SourceAlpha"/><feGaussianBlur stdDeviation="3" result="x"/><feFlood flood-opacity="0.333"/><feComposite operator="in" in2="x"/><feComposite in="SourceGraphic"/></filter><filter id="y" x="245.455" y="0.372" width="34.948" height="36.624" filterUnits="userSpaceOnUse"><feOffset dy="3" input="SourceAlpha"/><feGaussianBlur stdDeviation="3" result="z"/><feFlood flood-opacity="0.333"/><feComposite operator="in" in2="z"/><feComposite in="SourceGraphic"/></filter><filter id="aa" x="287.81" y="0.372" width="35.134" height="36.624" filterUnits="userSpaceOnUse"><feOffset dy="3" input="SourceAlpha"/><feGaussianBlur stdDeviation="3" result="ab"/><feFlood flood-opacity="0.333"/><feComposite operator="in" in2="ab"/><feComposite in="SourceGraphic"/></filter><filter id="ac" x="306.938" y="0.372" width="35.134" height="36.624" filterUnits="userSpaceOnUse"><feOffset dy="3" input="SourceAlpha"/><feGaussianBlur stdDeviation="3" result="ad"/><feFlood flood-opacity="0.333"/><feComposite operator="in" in2="ad"/><feComposite in="SourceGraphic"/></filter><filter id="ae" x="324.577" y="0.24" width="38.832" height="36.756" filterUnits="userSpaceOnUse"><feOffset dy="3" input="SourceAlpha"/><feGaussianBlur stdDeviation="3" result="af"/><feFlood flood-opacity="0.333"/><feComposite operator="in" in2="af"/><feComposite in="SourceGraphic"/></filter><filter id="ag" x="267.264" y="16.642" width="35.407" height="21.747" filterUnits="userSpaceOnUse"><feOffset dy="3" input="SourceAlpha"/><feGaussianBlur stdDeviation="3" result="ah"/><feFlood flood-opacity="0.161"/><feComposite operator="in" in2="ah"/><feComposite in="SourceGraphic"/></filter></defs><g transform="translate(-887.669 -1027.962)"><g transform="translate(896.669 1033.962)"><g transform="translate(0)"><g class="w" transform="matrix(1, 0, 0, 1, -9, -6)"><path class="a" d="M31.331,47.282h8.806a10.914,10.914,0,0,1,3.645.532A6.246,6.246,0,0,1,46.2,49.3a5.755,5.755,0,0,1,1.649,4.337v.053a5.858,5.858,0,0,1-1.038,3.565,6.564,6.564,0,0,1-2.794,2.155l4.443,6.492H42.5l-3.751-5.64H36.492v5.64H31.331Zm8.567,8.94a3.118,3.118,0,0,0,2.049-.6,1.987,1.987,0,0,0,.718-1.609V53.96A1.926,1.926,0,0,0,41.92,52.3a3.408,3.408,0,0,0-2.049-.546H36.492v4.47Z" transform="translate(-22.33 -40.91)"/></g><g class="v" transform="matrix(1, 0, 0, 1, -9, -6)"><path class="a" d="M117.24,47.282h14.952v4.39h-9.87v2.82h8.939v4.071h-8.939v2.953h10v4.39H117.24Z" transform="translate(-89.11 -40.91)"/></g><g class="u" transform="matrix(1, 0, 0, 1, -9, -6)"><path class="a" d="M203.671,64.978a9.809,9.809,0,0,1-3.751-.719,9.155,9.155,0,0,1-3.046-2.008,9.678,9.678,0,0,1-2.807-6.9v-.053a9.713,9.713,0,0,1,2.794-6.877,9.341,9.341,0,0,1,3.1-2.062,10.151,10.151,0,0,1,3.924-.745,11.257,11.257,0,0,1,2.607.279,8.926,8.926,0,0,1,2.142.8,8.571,8.571,0,0,1,1.756,1.237,10.2,10.2,0,0,1,1.4,1.57L207.9,52.5a6.713,6.713,0,0,0-1.756-1.6,4.357,4.357,0,0,0-2.315-.585,4.131,4.131,0,0,0-1.8.386,4.3,4.3,0,0,0-1.4,1.051,4.917,4.917,0,0,0-.918,1.57,5.506,5.506,0,0,0-.332,1.915v.053a5.7,5.7,0,0,0,.332,1.956,4.879,4.879,0,0,0,.918,1.583,4.286,4.286,0,0,0,1.4,1.051,4.125,4.125,0,0,0,1.8.386,5.092,5.092,0,0,0,1.317-.16,3.994,3.994,0,0,0,1.091-.465,5.909,5.909,0,0,0,.931-.718,10.837,10.837,0,0,0,.865-.918l3.884,2.767a13.836,13.836,0,0,1-1.45,1.676,8.329,8.329,0,0,1-1.782,1.33,9.317,9.317,0,0,1-2.235.878A11.14,11.14,0,0,1,203.671,64.978Z" transform="translate(-148.83 -39.61)"/></g><g class="t" transform="matrix(1, 0, 0, 1, -9, -6)"><path class="a" d="M291.294,64.978a10.348,10.348,0,0,1-3.991-.758,9.826,9.826,0,0,1-3.166-2.062,9.516,9.516,0,0,1-2.088-3.06,9.356,9.356,0,0,1-.758-3.751v-.053a9.493,9.493,0,0,1,2.874-6.851,10.02,10.02,0,0,1,3.193-2.075,10.876,10.876,0,0,1,7.981,0,9.831,9.831,0,0,1,3.166,2.062,9.527,9.527,0,0,1,2.088,3.06,9.361,9.361,0,0,1,.758,3.751v.053a9.492,9.492,0,0,1-2.873,6.851,10.024,10.024,0,0,1-3.193,2.075A10.347,10.347,0,0,1,291.294,64.978Zm.04-4.656a4.663,4.663,0,0,0,1.947-.4,4.482,4.482,0,0,0,1.494-1.077,5,5,0,0,0,.96-1.583,5.3,5.3,0,0,0,.347-1.916v-.053a5.308,5.308,0,0,0-.347-1.916,4.927,4.927,0,0,0-.987-1.6,4.863,4.863,0,0,0-1.521-1.1,4.844,4.844,0,0,0-3.882-.014,4.638,4.638,0,0,0-2.455,2.661,5.491,5.491,0,0,0-.334,1.915v.053a5.3,5.3,0,0,0,.347,1.916,5.027,5.027,0,0,0,.974,1.6,4.692,4.692,0,0,0,1.507,1.1A4.533,4.533,0,0,0,291.334,60.322Z" transform="translate(-216.63 -39.61)"/></g><g class="s" transform="matrix(1, 0, 0, 1, -9, -6)"><path class="a" d="M383.449,47.282H388.9l4.443,7.21,4.443-7.21h5.454V65.906h-5.135V55.21l-4.749,7.29h-.106l-4.723-7.237V65.906h-5.081Z" transform="translate(-296.04 -40.91)"/></g><g class="r" transform="matrix(1, 0, 0, 1, -9, -6)"><path class="a" d="M487.639,47.282h5.188V65.906h-5.188Z" transform="translate(-377.04 -40.91)"/></g><g class="q" transform="matrix(1, 0, 0, 1, -9, -6)"><path class="a" d="M526.232,47.282h14.952v4.39h-9.87v2.82h8.939v4.071h-8.939v2.953h10v4.39H526.232Z" transform="translate(-407.04 -40.91)"/></g><g class="p" transform="matrix(1, 0, 0, 1, -9, -6)"><path class="a" d="M605.928,47.282h4.826l7.679,9.844V47.282h5.082V65.906h-4.532l-7.972-10.216V65.906h-5.081Z" transform="translate(-468.99 -40.91)"/></g><g class="o" transform="matrix(1, 0, 0, 1, -9, -6)"><path class="a" d="M699.722,47.282h7.183a13.562,13.562,0,0,1,4.456.678,9.41,9.41,0,0,1,3.3,1.9,8.129,8.129,0,0,1,2.049,2.913,9.553,9.553,0,0,1,.705,3.711v.053a9.584,9.584,0,0,1-.718,3.738,8.4,8.4,0,0,1-2.075,2.967,9.607,9.607,0,0,1-3.339,1.955,13.325,13.325,0,0,1-4.483.7h-7.077Zm7.271,14.047a5.513,5.513,0,0,0,3.738-1.224,4.358,4.358,0,0,0,1.415-3.485v-.053a4.367,4.367,0,0,0-1.415-3.472,5.475,5.475,0,0,0-3.738-1.237h-2.11v9.471Z" transform="translate(-541.9 -40.91)"/></g><g class="n" transform="matrix(1, 0, 0, 1, -9, -6)"><path class="a" d="M792.364,46.686h4.975l7.928,18.756h-5.534l-1.357-3.326h-7.183l-1.33,3.326h-5.427Zm4.523,11.44-2.075-5.294-2.1,5.294Z" transform="translate(-607.75 -40.45)"/></g><g class="m" transform="matrix(1, 0, 0, 1, -9, -6)"><path class="a" d="M918.643,58.935l-7.077-11.653h5.88l3.831,6.784,3.858-6.784h5.773l-7.077,11.573v7.05h-5.188Z" transform="translate(-706.57 -40.91)"/></g><g class="l" transform="matrix(1, 0, 0, 1, -9, -6)"><path class="a" d="M1039.933,46.686h4.975l7.928,18.756H1047.3l-1.357-3.326h-7.183l-1.33,3.326h-5.427Zm4.523,11.44-2.075-5.294-2.1,5.294Z" transform="translate(-800.19 -40.45)"/></g><g class="k" transform="matrix(1, 0, 0, 1, -9, -6)"><path class="a" d="M1133.686,47.282h5.161v6.971h6.625V47.282h5.161V65.906h-5.161V58.829h-6.625v7.077h-5.161Z" transform="translate(-879.23 -40.91)"/></g><g class="j" transform="matrix(1, 0, 0, 1, -9, -6)"><path class="a" d="M1323.9,47.282h8.806a10.916,10.916,0,0,1,3.645.532,6.245,6.245,0,0,1,2.421,1.49,5.756,5.756,0,0,1,1.65,4.337v.053a5.856,5.856,0,0,1-1.038,3.565,6.562,6.562,0,0,1-2.794,2.155l4.443,6.492h-5.959l-3.751-5.64h-2.261v5.64H1323.9Zm8.567,8.94a3.117,3.117,0,0,0,2.048-.6,1.987,1.987,0,0,0,.719-1.609V53.96a1.926,1.926,0,0,0-.745-1.663,3.409,3.409,0,0,0-2.049-.546h-3.379v4.47Z" transform="translate(-1027.09 -40.91)"/></g><g class="i" transform="matrix(1, 0, 0, 1, -9, -6)"><path class="a" d="M1409.81,47.282h8.806a10.915,10.915,0,0,1,3.645.532,6.245,6.245,0,0,1,2.421,1.49,5.756,5.756,0,0,1,1.65,4.337v.053a5.856,5.856,0,0,1-1.038,3.565,6.565,6.565,0,0,1-2.793,2.155l4.443,6.492h-5.96l-3.751-5.64h-2.261v5.64h-5.161Zm8.567,8.94a3.118,3.118,0,0,0,2.048-.6,1.986,1.986,0,0,0,.718-1.609V53.96a1.925,1.925,0,0,0-.745-1.663,3.408,3.408,0,0,0-2.049-.546h-3.379v4.47Z" transform="translate(-1093.87 -40.91)"/></g><g class="h" transform="matrix(1, 0, 0, 1, -9, -6)"><path class="a" d="M1496.956,46.686h4.975l7.928,18.756h-5.534l-1.357-3.326h-7.183l-1.33,3.326h-5.427Zm4.523,11.44-2.075-5.294-2.1,5.294Z" transform="translate(-1155.45 -40.45)"/></g></g></g><g transform="translate(1158.935 1031.419)"><g transform="translate(0.697 0)"><path class="b" d="M1244.589,36.752c-5.069-3.427-11.545-3.357-15.636-.154l16.912,1.12A14.881,14.881,0,0,0,1244.589,36.752Z" transform="translate(-1225.248 -34.189)"/><path class="c" d="M1242.688,46.128l-16.912-1.12a10.122,10.122,0,0,0-.91.805l18.823,1.247Q1243.218,46.577,1242.688,46.128Z" transform="translate(-1222.072 -42.599)"/><path class="c" d="M1238.418,53.656l-20.383-1.35q-.082.1-.162.207a9.687,9.687,0,0,0-.848,1.331l22.561,1.495A13.168,13.168,0,0,0,1238.418,53.656Z" transform="translate(-1215.976 -48.272)"/><path class="b" d="M1237.315,64.287a11.963,11.963,0,0,0-1.392-3.58l-22.561-1.495a9.569,9.569,0,0,0-1.049,3.435Z" transform="translate(-1212.313 -53.64)"/><path class="b" d="M1241.121,49.871,1222.3,48.624a9.932,9.932,0,0,0-.736.82l20.382,1.35Q1241.558,50.32,1241.121,49.871Z" transform="translate(-1219.503 -45.41)"/></g><path class="d" d="M1237.105,76.277l-25-1.64a10.268,10.268,0,0,0,0,2.259l25.225,1.655A10.677,10.677,0,0,0,1237.105,76.277Z" transform="translate(-1211.407 -65.631)"/><path class="b" d="M1237.559,86.436l-25.225-1.655a11.015,11.015,0,0,0,.2,1.2l24.944,1.636A10,10,0,0,0,1237.559,86.436Z" transform="translate(-1211.632 -73.516)"/><path class="b" d="M1239.041,96.62l-24.45-1.6a12.565,12.565,0,0,0,1.923,3.626l20.951,1.375A9.522,9.522,0,0,0,1239.041,96.62Z" transform="translate(-1213.387 -81.472)"/><g class="g" transform="matrix(1, 0, 0, 1, -271.27, -3.46)"><path class="b" d="M1231.63,120.351a14.865,14.865,0,0,0,1.528,1.184c5.171,3.5,11.805,3.352,15.879-.042Z" transform="translate(-955.37 -97.71)"/></g><path class="d" d="M1238.184,91.791l-24.944-1.636q.123.544.3,1.082l24.45,1.6A9.665,9.665,0,0,0,1238.184,91.791Z" transform="translate(-1212.337 -77.693)"/><path class="d" d="M1244.071,112.822c.037-.049.073-.1.108-.147l-20.951-1.375a13.909,13.909,0,0,0,1.871,2.015l17.407,1.142A9.987,9.987,0,0,0,1244.071,112.822Z" transform="translate(-1220.102 -94.13)"/><path class="e" d="M1228.062,60.8c-4.746-3.209-6.2-8.992-3.24-12.892s9.229-4.463,13.975-1.254,6.2,8.992,3.241,12.892S1232.808,64,1228.062,60.8Z" transform="translate(-1220.147 -42.257)"/><path class="f" d="M1243.342,47.049c4.665,3.154,6.146,8.793,3.386,12.689.052-.065.107-.128.157-.2,2.96-3.9,1.506-9.683-3.241-12.892S1232.629,44,1229.669,47.9c-.051.067-.1.136-.145.2C1232.543,44.387,1238.677,43.9,1243.342,47.049Z" transform="translate(-1224.995 -42.257)"/><path class="f" d="M1248.033,74.98a2.7,2.7,0,0,0,.953-2.833,6.461,6.461,0,0,0-.325-1.159c-.065-.172-.139-.356-.216-.548l3.291-2.423c.609.841.609,1.511.2,1.814a1.25,1.25,0,0,1-1.036.222,1.177,1.177,0,0,0,.353,1.2,1.079,1.079,0,0,0,1.62.077c.985-.725.749-2.407-.372-3.872l.59-.434-.788-.889-.605.446c-1.616-1.511-3.366-1.759-4.7-.777-1.14.839-1.18,2.091-.771,3.434.1.339.247.7.391,1.082l-3.323,2.446c-.609-.841-.609-1.51-.2-1.814a1.251,1.251,0,0,1,1.036-.222,1.178,1.178,0,0,0-.353-1.2,1.079,1.079,0,0,0-1.62-.077c-.985.725-.749,2.407.372,3.872l-.589.434.788.89.605-.446C1244.95,75.714,1246.7,75.962,1248.033,74.98Zm.426-8.093a1.889,1.889,0,0,1,2.462.261l-2.9,2.134C1247.751,68.366,1247.691,67.452,1248.458,66.887Zm-4.351,6.747,2.913-2.145a3.189,3.189,0,0,1,.106,1.639,1.437,1.437,0,0,1-.557.767A1.89,1.89,0,0,1,1244.107,73.633Z" transform="translate(-1234.334 -58.306)"/><path class="b" d="M1247.694,73.375a2.7,2.7,0,0,0,.953-2.833,6.466,6.466,0,0,0-.325-1.159c-.065-.172-.139-.356-.216-.548l3.291-2.423c.609.841.61,1.51.2,1.813a1.251,1.251,0,0,1-1.036.222,1.179,1.179,0,0,0,.353,1.2,1.079,1.079,0,0,0,1.62.077c.985-.725.749-2.407-.372-3.872l.589-.434-.788-.89-.605.446c-1.617-1.511-3.366-1.759-4.7-.777-1.14.839-1.18,2.091-.771,3.434.1.339.247.7.392,1.082l-3.323,2.446c-.609-.841-.61-1.511-.2-1.814a1.251,1.251,0,0,1,1.036-.222,1.178,1.178,0,0,0-.353-1.2,1.079,1.079,0,0,0-1.62-.077c-.985.725-.749,2.407.372,3.872l-.589.434.788.89.6-.446C1244.611,74.109,1246.36,74.357,1247.694,73.375Zm.425-8.093a1.89,1.89,0,0,1,2.462.261l-2.9,2.133C1247.412,66.762,1247.352,65.847,1248.12,65.282Zm-4.351,6.747,2.913-2.145a3.188,3.188,0,0,1,.106,1.639,1.437,1.437,0,0,1-.557.767A1.889,1.889,0,0,1,1243.768,72.029Z" transform="translate(-1234.07 -57.059)"/><g transform="translate(7.182 9.711)"><path class="d" d="M1263.785,79.865l2.378-1.751-1.833-.12-.967.712a4.51,4.51,0,0,1-.167-.786l-1.827-.12a5.722,5.722,0,0,0,.2.86c.1.339.247.7.391,1.082l-.442.326,2.415.158C1263.883,80.109,1263.835,79.99,1263.785,79.865Z" transform="translate(-1256.931 -77.8)"/><path class="d" d="M1284.107,80.657a1.25,1.25,0,0,1-1.036.222,1.07,1.07,0,0,0,.136.909l2.083.137a2.263,2.263,0,0,0,.161-2.248l-1.135-.074A.881.881,0,0,1,1284.107,80.657Z" transform="translate(-1273.765 -79.201)"/><path class="d" d="M1243.623,81.582A1.079,1.079,0,0,0,1242,81.5a1.488,1.488,0,0,0-.567.889l2.58.169A1.236,1.236,0,0,0,1243.623,81.582Z" transform="translate(-1241.436 -80.426)"/><path class="d" d="M1266.3,94.645l1.881.123a4.021,4.021,0,0,0-.058-.93c-.008-.046-.019-.092-.028-.139l-1.841-.121A2.961,2.961,0,0,1,1266.3,94.645Z" transform="translate(-1260.729 -90.066)"/><path class="d" d="M1252.595,92.986l-1.833-.12-1.325.976,1.833.12Z" transform="translate(-1247.656 -89.511)"/><path class="d" d="M1242.789,92.039l-1.181-.078a4.479,4.479,0,0,0,.437,1.091l1.181.077A2.141,2.141,0,0,1,1242.789,92.039Z" transform="translate(-1241.57 -88.808)"/></g><g transform="translate(0 4.508)"><path class="f" d="M1212.681,93.907l-.446,1.813a12.476,12.476,0,0,0,2.128,3.724l.388-1.576A12.53,12.53,0,0,1,1212.681,93.907Z" transform="translate(-1211.555 -85.118)"/><path class="e" d="M1210.535,84.584l-.51,2.071a11.71,11.71,0,0,0,.492,1.818l.446-1.813A11.113,11.113,0,0,1,1210.535,84.584Z" transform="translate(-1209.838 -77.87)"/><path class="f" d="M1211.583,54.433c-.074.091-.146.183-.217.276a10.709,10.709,0,0,0-2,8.508l.51-2.071A9.7,9.7,0,0,1,1211.583,54.433Z" transform="translate(-1209.183 -54.433)"/><path class="f" d="M1230.389,120.373l-.362,1.472q.347.286.72.553l.353-1.436Q1230.732,120.677,1230.389,120.373Z" transform="translate(-1225.386 -105.691)"/><path class="e" d="M1222.181,111.7l-.388,1.576a13.448,13.448,0,0,0,1.833,1.829l.362-1.472A13.943,13.943,0,0,1,1222.181,111.7Z" transform="translate(-1218.985 -98.947)"/><path class="e" d="M1251.457,119.584q.106-.141.207-.283c-3.806,4.682-11.442,5.337-17.239,1.418q-.42-.284-.812-.589l-.353,1.436c.112.081.225.161.341.239C1239.5,125.795,1247.5,124.8,1251.457,119.584Z" transform="translate(-1227.899 -104.857)"/></g></g></g></svg>