<svg xmlns="http://www.w3.org/2000/svg" xmlns:xlink="http://www.w3.org/1999/xlink" width="102.576" height="182.152" viewBox="0 0 102.576 182.152"><defs><style>.a{fill:#fff;}.b{fill:url(#c);}.c{filter:url(#a);}</style><filter id="a" x="0" y="0" width="102.576" height="182.152" filterUnits="userSpaceOnUse"><feOffset dy="8" input="SourceAlpha"/><feGaussianBlur stdDeviation="3" result="b"/><feFlood flood-opacity="0.18"/><feComposite operator="in" in2="b"/><feComposite in="SourceGraphic"/></filter><linearGradient id="c" x1="0.5" y1="0.181" x2="0.5" y2="1.035" gradientUnits="objectBoundingBox"><stop offset="0" stop-color="#fd6e08"/><stop offset="1" stop-color="#fd3328"/></linearGradient></defs><g transform="translate(-524 -2968.348)"><g class="c" transform="matrix(1, 0, 0, 1, 524, 2968.35)"><path class="a" d="M71.157,164.152l-58.474-.257C5.649,163.867-.025,158.412,0,151.712L.62,12.084C.652,5.381,6.382-.028,13.42,0L71.893.257C78.927.286,84.6,5.741,84.576,12.44l-.62,139.628C83.928,158.775,78.194,164.184,71.157,164.152Z" transform="translate(9 1)"/></g><path class="b" d="M67.925.261,56.589.212a2.748,2.748,0,0,0-2.766,2.731L53.812,4.9A2.75,2.75,0,0,1,51.045,7.63l-22.1-.1A2.745,2.745,0,0,1,26.2,4.779l.011-1.956A2.754,2.754,0,0,0,23.477.067L19.488.046,9.568,0A8.725,8.725,0,0,0,.606,8.461L0,144.749a8.708,8.708,0,0,0,8.877,8.532l58.358.254a8.723,8.723,0,0,0,8.962-8.461L76.8,8.789A8.7,8.7,0,0,0,67.925.261Z" transform="translate(537 2974.166)"/><g transform="translate(9)"><path class="a" d="M13.191,6.059V1.117a1.117,1.117,0,0,0-2.234,0V6.059a4.9,4.9,0,0,1-4.9,4.9H1.117a1.117,1.117,0,0,0,0,2.234H6.059a7.141,7.141,0,0,0,7.133-7.133" transform="translate(574.809 3041.809)"/><path class="a" d="M13.191,12.074a1.117,1.117,0,0,0-1.117-1.117H7.133a4.9,4.9,0,0,1-4.9-4.9V1.117A1.117,1.117,0,0,0,0,1.117V6.059a7.141,7.141,0,0,0,7.133,7.133h4.941a1.117,1.117,0,0,0,1.117-1.117" transform="translate(544 3041.809)"/><path class="a" d="M2.234,12.074V7.133a4.9,4.9,0,0,1,4.9-4.9h4.941a1.117,1.117,0,1,0,0-2.234H7.133A7.141,7.141,0,0,0,0,7.133v4.941a1.117,1.117,0,1,0,2.234,0" transform="translate(544 3011)"/><path class="a" d="M13.191,12.074V7.133A7.141,7.141,0,0,0,6.059,0H1.117a1.117,1.117,0,0,0,0,2.234H6.059a4.9,4.9,0,0,1,4.9,4.9v4.941a1.117,1.117,0,1,0,2.234,0" transform="translate(574.809 3011)"/><path class="a" d="M15.793,2.012a1.16,1.16,0,0,0-1.574-1.7,9.017,9.017,0,0,1-6.135,2.4A9.017,9.017,0,0,1,1.947.308a1.16,1.16,0,0,0-1.574,1.7,11.331,11.331,0,0,0,7.71,3.015,11.331,11.331,0,0,0,7.71-3.015" transform="translate(557.917 3041.508)"/><path class="a" d="M5.07,9.41V1.16a1.16,1.16,0,1,0-2.32,0V9.41a.645.645,0,0,1-.645.645H1.16a1.16,1.16,0,1,0,0,2.32h.945A2.968,2.968,0,0,0,5.07,9.41" transform="translate(563.25 3026.426)"/><path class="a" d="M2.191,4.4V1.1A1.1,1.1,0,1,0,0,1.1V4.4a1.1,1.1,0,1,0,2.191,0" transform="translate(574.121 3026.426)"/><path class="a" d="M1.1,5.5h0A1.1,1.1,0,0,1,0,4.4V1.1a1.1,1.1,0,1,1,2.191,0V4.4A1.1,1.1,0,0,1,1.1,5.5" transform="translate(555.945 3026.426)"/></g></g></svg>