<svg xmlns="http://www.w3.org/2000/svg" width="90" height="92" viewBox="0 0 90 92"><defs><style>.a{fill:#ebebeb;}.b{fill:#fbfbfb;}.c{fill:#ef572a;}.d{fill:#0586c3;}</style></defs><g transform="translate(-84 -2596)"><g transform="translate(4 276)"><g transform="translate(-3293 3674)"><ellipse class="a" cx="45" cy="45.5" rx="45" ry="45.5" transform="translate(3373 -1353)"/></g><circle class="b" cx="45" cy="45" r="45" transform="translate(80 2320)"/></g><g transform="translate(32.998 2527.856)"><g transform="translate(105.523 95.144)"><path class="c" d="M83.972,101.5a.952.952,0,0,0,.98-.98V97.1a1.953,1.953,0,0,0-1.931-1.961H67.543a.946.946,0,0,0-.951.98.964.964,0,0,0,.951.98H83.022v3.417A.946.946,0,0,0,83.972,101.5Z" transform="translate(-66.592 -95.144)"/></g><g transform="translate(71.119 95.144)"><path class="c" d="M67.365,100.522V97.1h9a.989.989,0,0,0,.98-.98.97.97,0,0,0-.98-.98h-9A1.953,1.953,0,0,0,65.434,97.1v3.417a.97.97,0,0,0,.981.98A.946.946,0,0,0,67.365,100.522Z" transform="translate(-65.434 -95.144)"/></g><g transform="translate(71.119 119.328)"><path class="c" d="M66.415,95.958a.984.984,0,0,0-.981.951v13.964a1.927,1.927,0,0,0,1.931,1.931H99.957a.964.964,0,0,0,.98-.951.989.989,0,0,0-.98-.98H67.365V96.909A.957.957,0,0,0,66.415,95.958Z" transform="translate(-65.434 -95.958)"/></g><g transform="translate(120.289 119.328)"><path class="c" d="M68.753,112.8a1.927,1.927,0,0,0,1.931-1.931V96.909a.966.966,0,0,0-1.931,0v13.964H68.07a.989.989,0,0,0-.981.98.964.964,0,0,0,.981.951Z" transform="translate(-67.089 -95.958)"/></g><g transform="translate(65.236 95.144)"><path class="c" d="M128.786,104.444H108.465a16.232,16.232,0,0,0-29.354,0H66.216a.989.989,0,0,0-.98.98v9.983a.964.964,0,0,0,.98.951H78.279a16.28,16.28,0,0,0,23.085,9.448l9.151,9.151a4.089,4.089,0,0,0,2.941,1.218,4.156,4.156,0,0,0,2.971-1.218l.921-.921a4.16,4.16,0,0,0,0-5.883l-9.18-9.181a12.783,12.783,0,0,0,1.1-2.614h19.52a.964.964,0,0,0,.98-.951v-9.983A.989.989,0,0,0,128.786,104.444ZM67.2,114.426V106.4H78.309a16.4,16.4,0,0,0-.8,4.991,16.907,16.907,0,0,0,.3,3.03Zm12.27-3.03a14.32,14.32,0,1,1,14.32,14.32A14.322,14.322,0,0,1,79.467,111.4Zm36.485,18.123a2.109,2.109,0,0,1,.653,1.575,2,2,0,0,1-.653,1.545l-.921.98a2.206,2.206,0,0,1-3.12,0l-8.854-8.854a15.6,15.6,0,0,0,4.07-4.07ZM109.267,106.4h8.556v8.022h-8.051a16.907,16.907,0,0,0,.3-3.03A16.406,16.406,0,0,0,109.267,106.4Zm18.539,8.022h-8.022V106.4h8.022Z" transform="translate(-65.236 -95.144)"/></g><path class="d" d="M53.817,564.286c2.421-.018,4.841,0,7.262-.016.308,0,.407.064.395.385-.03.657-.024,1.315,0,1.972.008.272-.056.351-.341.347-1.224-.018-2.45-.006-3.675-.006-1.24,0-2.48.008-3.72-.008-.27,0-.359.054-.349.34.024.673.02,1.345,0,2.018-.008.27.056.353.339.347,1.137-.018,2.272,0,3.407-.012.228,0,.308.05.3.294-.016.7,0,1.4-.01,2.105,0,.23.052.307.294.3.7-.016,1.4-.014,2.107,0,.23,0,.306-.053.3-.3-.016-.686.008-1.375-.012-2.061-.008-.272.06-.351.341-.345,1.105.018,2.212-.006,3.317.014.312.006.393-.069.391-.387q-.021-3.631,0-7.262c0-.343-.073-.44-.431-.438-2.421.018-4.841,0-7.262.018-.308,0-.409-.063-.395-.387.03-.625.03-1.256,0-1.881-.014-.343.075-.443.433-.44,2.421.018,4.841,0,7.262.018.308,0,.407-.063.395-.385-.03-.657-.024-1.315,0-1.972.008-.27-.056-.353-.341-.349-1.135.02-2.27,0-3.407.014-.226,0-.308-.052-.3-.294.018-.7,0-1.4.012-2.107,0-.228-.052-.307-.294-.3-.7.018-1.4.016-2.107,0-.23-.006-.306.054-.3.294.016.686-.01,1.375.012,2.062.008.274-.06.351-.341.347-1.105-.018-2.212,0-3.317-.016-.312-.006-.395.069-.393.387q.024,3.631,0,7.262C53.382,564.191,53.459,564.29,53.817,564.286Z" transform="translate(34.623 -452.008)"/></g></g></svg>