<svg xmlns="http://www.w3.org/2000/svg" xmlns:xlink="http://www.w3.org/1999/xlink" width="373" height="497" viewBox="0 0 373 497"><defs><style>.a,.d,.g{fill:#fff;}.a{stroke:#707070;}.b{fill:url(#a);}.c{clip-path:url(#b);}.e{clip-path:url(#f);}.f{fill:url(#g);}.g,.h{opacity:0.5;}.i{fill:url(#i);}.j,.k,.l{opacity:0.2;}.k,.l{fill:none;stroke-miterlimit:10;}.k{stroke:#000;}.l{stroke:#fff;}.m{filter:url(#d);}</style><linearGradient id="a" x1="0.787" y1="0.537" x2="0.833" y2="0.196" gradientUnits="objectBoundingBox"><stop offset="0" stop-color="#ed230a"/><stop offset="1" stop-color="#ee7b00"/></linearGradient><clipPath id="b"><rect class="a" width="373" height="497" transform="translate(3484.672 4617)"/></clipPath><filter id="d" x="-144.833" y="-82.799" width="661.845" height="662.845" filterUnits="userSpaceOnUse"><feOffset dy="10" input="SourceAlpha"/><feGaussianBlur stdDeviation="3" result="e"/><feFlood flood-color="#141313" flood-opacity="0.204"/><feComposite operator="in" in2="e"/><feComposite in="SourceGraphic"/></filter><clipPath id="f"><path class="b" d="M466.7,169.617a15.9,15.9,0,0,1,0,22.422L192.038,466.7a15.9,15.9,0,0,1-22.422,0L4.624,301.71a15.9,15.9,0,0,1,0-22.422L279.288,4.627a15.9,15.9,0,0,1,22.423,0Z" transform="translate(0 235.664) rotate(-30)"/></clipPath><linearGradient id="g" x1="0.449" y1="-0.184" x2="0.982" y2="1.237" gradientUnits="objectBoundingBox"><stop offset="0" stop-color="#e64618"/><stop offset="0.225" stop-color="#f17e6d"/><stop offset="0.466" stop-color="#ee432b"/><stop offset="1" stop-color="#ed2106"/></linearGradient><linearGradient id="i" x1="-0.889" y1="-1.158" x2="-0.059" y2="-1.158" gradientUnits="objectBoundingBox"><stop offset="0" stop-color="#ffff57"/><stop offset="0.091" stop-color="#ffffc7"/><stop offset="0.1" stop-color="#836d16"/><stop offset="0.121" stop-color="#ffff8d"/><stop offset="0.207" stop-color="#ffe680"/><stop offset="0.49" stop-color="#ffe76b"/><stop offset="0.838" stop-color="#ffe680"/><stop offset="0.87" stop-color="#b59824"/><stop offset="0.884" stop-color="#ffffc7"/><stop offset="0.96" stop-color="#debf43"/></linearGradient></defs><g class="c" transform="translate(-3484.672 -4617)"><g transform="translate(3348.839 4534.201)"><g class="m" transform="matrix(1, 0, 0, 1, 135.83, 82.8)"><path class="b" d="M466.7,169.617a15.9,15.9,0,0,1,0,22.422L192.038,466.7a15.9,15.9,0,0,1-22.422,0L4.624,301.71a15.9,15.9,0,0,1,0-22.422L279.288,4.627a15.9,15.9,0,0,1,22.423,0Z" transform="translate(-135.83 152.86) rotate(-30)"/></g><g transform="translate(169.806 469.519) rotate(-76)"><path class="d" d="M0,0" transform="translate(58.639 16.776)"/><g transform="translate(81.651 6.636)"><path class="d" d="M3.73.616A6.468,6.468,0,0,0,6.517,12.949c2.048.024.941.019,2.027.016V9.492a1.137,1.137,0,0,0-.29-.03c-.7.008-1.408.012-2.108-.041a2.963,2.963,0,0,1-2.633-2.64A3.022,3.022,0,0,1,5.442,3.7,2.8,2.8,0,0,1,8.823,4.753q2.167,3.2,4.331,6.4s1.271,1.8,2.954,1.792c.769,0,1.543,0,2.336,0a1,1,0,0,0-.28-.6c-.664-1-1.336-1.992-2.006-2.985-1.5-2.228-2.947-4.5-4.522-6.674A6.34,6.34,0,0,0,6.476,0,6.508,6.508,0,0,0,3.73.616" transform="translate(0 0)"/></g><g transform="translate(0 1.562)"><path class="d" d="M3.383,11.634c0-2.589.713-3.9,2.723-3.9,1.9,0,2.687,1.553,2.687,3.671,0,2.4-.939,4.011-2.726,4.011-2.051,0-2.684-1.643-2.684-3.784M.025,2.493V13.765c0,1.378,0,2.777-.025,4.155H3.365a6.3,6.3,0,0,0,.136-1.2c.616.924,1.449,1.5,3.338,1.5,3.654,0,5.525-3.234,5.525-6.875,0-3.565-1.725-6.421-5.184-6.421A3.979,3.979,0,0,0,3.543,6.562V0C-.19,0,.025,2.493.025,2.493" transform="translate(0 0)"/></g><g transform="translate(13.949 6.48)"><path class="d" d="M3.527,9.09c0-1.225.786-1.872,2.906-1.872H7.867v.334c0,1.678-.274,3.233-2.51,3.233a1.632,1.632,0,0,1-1.83-1.7M.589,4.064H3.935c.162-.92.487-1.552,1.972-1.552,1.631,0,1.956.889,1.956,1.792v.776H6.051C2.325,5.081,0,6.417,0,9.312,0,11.283,1.293,13.3,4.356,13.3c2.248,0,3.112-.823,3.572-1.537A5.207,5.207,0,0,0,8.106,13h3.362A28.585,28.585,0,0,1,11.3,9.719V4.377C11.3,1.352,9.444.022,6.04,0H5.972C2.16,0,.779,1.82.589,4.064" transform="translate(0 0)"/></g><g transform="translate(28.426 6.481)"><path class="d" d="M3.543,1.913A14.988,14.988,0,0,0,3.408.294H0c.025.939.025,2.121.025,3.2V13H3.543V5.92c0-2.244.855-3.075,2.35-3.075,1.552,0,2.028,1.035,2.028,2.464V13h3.519V4.918C11.441,1.724,9.782,0,7.229,0A3.878,3.878,0,0,0,3.543,1.913" transform="translate(0 0)"/></g><g transform="translate(42.987 1.562)"><path class="d" d="M0,0V17.92H3.519V13.843l1.627-1.576L8.361,17.92h3.986L7.5,10.012l4.429-4.8H7.893C6.14,7.333,4.454,9.306,3.519,10.575V0Z" transform="translate(0 0)"/></g><g transform="translate(56.174 6.48)"><path class="d" d="M3.527,9.09c0-1.225.786-1.872,2.906-1.872H7.867v.334c0,1.678-.274,3.233-2.51,3.233a1.631,1.631,0,0,1-1.829-1.7M.589,4.064H3.935c.162-.92.487-1.552,1.972-1.552,1.631,0,1.957.889,1.957,1.792v.776H6.051C2.325,5.081,0,6.417,0,9.312,0,11.283,1.293,13.3,4.356,13.3c2.248,0,3.112-.823,3.572-1.537A5.209,5.209,0,0,0,8.107,13h3.361A28.646,28.646,0,0,1,11.3,9.719V4.377C11.3,1.352,9.444.022,6.04,0H5.972C2.16,0,.779,1.82.589,4.064" transform="translate(0 0)"/></g><g transform="translate(69.004 6.775)"><path class="d" d="M8.991,0C7.474,5.342,6.729,8.191,6.454,9.472H6.43C6.228,8.3,5.084,4.385,3.771,0H0L4.624,13.1a2.219,2.219,0,0,1-2.419,1.853c-.285,0-.672-.025-.91-.052v2.827c.608.071,1.336.1,1.648.1,3.052,0,4.066-1.091,5.28-4.746L12.493,0Z" transform="translate(0 0)"/></g><path class="d" d="M0,0" transform="translate(99.792 16.774)"/><g transform="translate(101.489 17.988)"><path class="d" d="M1.119,0a1.1,1.1,0,1,0,0,2.2,1.1,1.1,0,1,0,0-2.2m0,2.018a.891.891,0,0,1-.9-.92.894.894,0,1,1,1.789,0,.889.889,0,0,1-.89.92" transform="translate(0 0)"/><path class="d" d="M.933.361C.933.111.784,0,.484,0H0V1.27H.193V.72H.414l.336.55H.965L.6.71A.33.33,0,0,0,.933.361m-.739.2V.163H.454C.588.163.732.192.732.35.732.544.585.556.423.556Z" transform="translate(0.693 0.466)"/><path class="d" d="M0,0" transform="translate(2.231 1.097)"/></g><path class="d" d="M7.429,8.262C6.116,6.548,3.33,2.9,2.152,1.3,1.436.32,1.008,0,.722,0A.462.462,0,0,0,.346.248,2.975,2.975,0,0,0,0,1.56C-.009,5.047,3.256,7.631,4.982,8.754a4.82,4.82,0,0,0-.635,2.656,2.97,2.97,0,0,0,2.97,2.97c1.641,0,2.994-.259,2.994-1.9A6.07,6.07,0,0,0,7.429,8.262Z" transform="translate(91.734 0)"/></g><g class="e" transform="translate(0 0)"><g transform="translate(228.762 25.423)"><g transform="translate(10.066 299.335) rotate(-60)"><path class="f" d="M53.212,8.791C14.06,27.006-7.2,70.618,2.219,113.291c9.206,41.677,46.554,71.143,90.758,71.46,29.224.339,13.426.273,28.918.23V135.431a16.2,16.2,0,0,0-4.133-.427c-10.026.12-20.1.175-30.078-.591-19.352-1.487-34.659-17.132-37.567-37.665C47.6,78.982,59.795,59.5,77.649,52.775c18.248-6.877,37.4-.941,48.237,15.044q30.914,45.641,61.795,91.3s18.138,25.693,42.148,25.562c10.966-.055,22.019.066,33.325.066-.054-4.231-2.438-6.265-3.991-8.6-9.468-14.246-19.068-28.416-28.623-42.6-21.44-31.794-42.049-64.178-64.528-95.218C147.84,13.251,120.573,0,92.4,0A92.867,92.867,0,0,0,53.212,8.791" transform="translate(0 0)"/></g><path class="f" d="M106,117.882C87.27,93.425,47.505,41.371,30.7,18.488,20.489,4.57,14.389,0,10.3,0,7.982,0,6.331,1.476,4.931,3.542A42.436,42.436,0,0,0,0,22.26C-.131,72.007,46.455,108.884,71.088,124.9c-6.7,9.6-9.064,24.1-9.064,37.895A42.373,42.373,0,0,0,104.4,205.174c23.408,0,42.716-3.7,42.717-27.1C147.118,159.09,126.334,128.7,106,117.882Z" transform="translate(0 127.408) rotate(-60)"/></g></g><g transform="translate(237.849 451.748) rotate(-30)"><path class="g" d="M70.807,27.245a11.352,11.352,0,0,1,.163,16L43.249,70.97a11.353,11.353,0,0,1-16-.163L3.383,46.943a11.349,11.349,0,0,1-.163-16L30.941,3.22a11.349,11.349,0,0,1,16,.163Z" transform="translate(2.355 0)"/><path class="h" d="M70.806,27.245a11.351,11.351,0,0,1,.163,16L43.249,70.97a11.353,11.353,0,0,1-16-.163L3.383,46.943a11.35,11.35,0,0,1-.163-16L30.94,3.22a11.351,11.351,0,0,1,16,.163Z" transform="translate(0 0)"/><path class="i" d="M70.807,27.245a11.352,11.352,0,0,1,.162,16L43.248,70.97a11.352,11.352,0,0,1-16-.163L3.382,46.943a11.349,11.349,0,0,1-.162-16L30.941,3.22a11.349,11.349,0,0,1,16,.163Z" transform="translate(1.177 0)"/><g class="j" transform="translate(10.605 9.428)"><rect width="61.604" height="1.665" transform="translate(0 43.561) rotate(-45)"/></g><g class="j" transform="translate(11.783 10.605)"><rect class="d" width="61.604" height="1.665" transform="translate(0 43.562) rotate(-45.001)"/></g><g class="j" transform="translate(2.953 2.952)"><rect width="48.285" height="1.665" transform="matrix(0.707, -0.707, 0.707, 0.707, 0, 34.144)"/></g><g class="j" transform="translate(4.13 4.13)"><rect class="d" width="48.285" height="1.665" transform="translate(0 34.143) rotate(-45.001)"/></g><g class="j" transform="translate(35.917 35.918)"><rect width="48.284" height="1.665" transform="translate(0 34.141) rotate(-44.999)"/></g><g class="j" transform="translate(37.094 37.095)"><rect class="d" width="48.284" height="1.666" transform="matrix(0.707, -0.707, 0.707, 0.707, 0, 34.141)"/></g><g class="j" transform="translate(16.492 15.314)"><rect width="61.604" height="1.664" transform="translate(0 43.561) rotate(-45.001)"/></g><g class="j" transform="translate(17.669 16.491)"><rect class="d" width="61.605" height="1.666" transform="matrix(0.707, -0.707, 0.707, 0.707, 0, 43.562)"/></g><g class="j" transform="translate(22.378 21.201)"><rect width="61.605" height="1.665" transform="matrix(0.707, -0.707, 0.707, 0.707, 0, 43.562)"/></g><g class="j" transform="translate(23.555 22.378)"><rect class="d" width="61.605" height="1.665" transform="matrix(0.707, -0.707, 0.707, 0.707, 0, 43.562)"/></g><path class="k" d="M12.951,0,10.6,2.355,8.241,0,0,8.241,2.354,10.6,0,12.951,20.015,32.966l2.354-2.354,2.355,2.354,8.241-8.241-2.355-2.356,2.355-2.353Z" transform="translate(22.378 20.023)"/><path class="l" d="M12.951,0,10.6,2.355,8.241,0,0,8.241,2.355,10.6,0,12.951,20.015,32.966l2.355-2.354,2.355,2.354,8.241-8.241-2.355-2.356,2.355-2.353Z" transform="translate(24.733 20.023)"/></g><g transform="translate(445.218 237.455) rotate(-76)"><path class="d" d="M0,21.221,3.615,0H9.4L5.78,21.221Z" transform="translate(25.17 0.369)"/><path class="d" d="M17.357.892A14.917,14.917,0,0,0,12.172,0C6.457,0,2.43,2.878,2.395,7c-.032,3.049,2.874,4.751,5.068,5.766,2.253,1.04,3.01,1.7,3,2.633-.016,1.423-1.8,2.071-3.463,2.071A12.119,12.119,0,0,1,1.557,16.36l-.744-.337L0,20.775a18.29,18.29,0,0,0,6.444,1.131c6.081,0,10.026-2.844,10.072-7.251.023-2.413-1.518-4.249-4.855-5.765C9.638,7.907,8.4,7.253,8.412,6.258c0-.882,1.049-1.826,3.314-1.826a10.638,10.638,0,0,1,4.327.813l.521.245.783-4.6Z" transform="translate(34.575 0)"/><path class="d" d="M16.088,0H11.619A2.879,2.879,0,0,0,8.59,1.76L0,21.209H6.075s.99-2.615,1.217-3.189c.663,0,6.563.009,7.408.009.172.743.7,3.18.7,3.18h5.369L16.088,0ZM8.955,13.68c.479-1.223,2.3-5.933,2.3-5.933-.032.057.476-1.229.767-2.026l.392,1.83s1.107,5.066,1.34,6.129Z" transform="translate(50.676 0.389)"/><path class="d" d="M14.279,0,8.615,14.473l-.605-2.94C6.958,8.141,3.673,4.467,0,2.629L5.178,21.19l6.12-.008L20.405,0Z" transform="translate(6.039 0.384)"/><path class="d" d="M9.4,0H.071L0,.441c7.256,1.758,12.059,6,14.049,11.1L12.023,1.791C11.674.447,10.658.047,9.4,0Z" transform="translate(0 0.371)"/></g></g></g></svg>