<svg xmlns="http://www.w3.org/2000/svg" width="90" height="92" viewBox="0 0 90 92"><defs><style>.a{fill:#ebebeb;}.b{fill:#fbfbfb;}.c{fill:#0586c3;}.d{fill:#fff;}.e{fill:#ef572a;}</style></defs><g transform="translate(-470 -2527)"><g transform="translate(390 207)"><g transform="translate(-3293 3674)"><ellipse class="a" cx="45" cy="45.5" rx="45" ry="45.5" transform="translate(3373 -1353)"/></g><circle class="b" cx="45" cy="45" r="45" transform="translate(80 2320)"/></g><g transform="translate(247.501 1810.963)"><path class="c" d="M286.872,784.6a5.975,5.975,0,0,0,.685-.215,3.766,3.766,0,0,0,2.474-3.03.493.493,0,0,1,.074-.455V759.552a1.728,1.728,0,0,1,0-1.656v-.784c-.135-.131-.1-.291-.078-.451a3.727,3.727,0,0,0-1.159-2.225q-2.955-2.952-5.906-5.906c-2.2-2.2-4.423-4.395-6.606-6.619a5.606,5.606,0,0,0-2.977-1.875H272.6a.5.5,0,0,1-.447.078,3.953,3.953,0,0,0-2.24,1.231q-3.794,3.805-7.6,7.6-3.477,3.477-6.95,6.96a.869.869,0,0,1-.685.28q-2.566-.017-5.135,0a3.9,3.9,0,0,0-3.959,3.264.5.5,0,0,1-.076.451V781.42c.129.044.089.169.116.259a3.913,3.913,0,0,0,3.011,2.878c.069.015.147.006.185.086h37.894A.209.209,0,0,1,286.872,784.6Zm-1.842-30.089c.08-.08.143-.07.217,0q.825.822,1.65,1.64c-1.178-.025-2.307.07-3.538.015C283.956,755.574,284.494,755.042,285.029,754.507Zm-5.378-2.01c.535-.533,1.073-1.062,1.6-1.6.139-.143.225-.169.377-.01.481.5.976.993,1.477,1.477.147.141.16.23.008.379q-1.653,1.639-3.294,3.291a.4.4,0,0,1-.3.152q-1.713,0-3.428,0l-.044-.1Q277.849,754.29,279.651,752.5Zm-13.539-3.658,5.664-5.664a1.33,1.33,0,0,1,2.118-.013q2.729,2.721,5.453,5.443c.192.19.223.291.011.5q-3.446,3.42-6.867,6.861a.632.632,0,0,1-.487.223q-6.483-.009-12.97-.006c-.053,0-.108-.012-.238-.025C261.272,753.679,263.691,751.258,266.112,748.839Zm19.833,33.19H249.706c-1.108,0-1.591-.481-1.591-1.585V760.365a1.365,1.365,0,0,1,1.57-1.568h36.237a1.364,1.364,0,0,1,1.57,1.566v20.124A1.353,1.353,0,0,1,285.945,782.029Z" transform="translate(0.003 0)"/><path class="d" d="M270.55,761.735l-.034.021H270.5A3.6,3.6,0,0,1,267.4,765l-.084,0-.164.046c1.06,0,2.12-.006,3.18.006.186,0,.225-.036.223-.223C270.544,763.8,270.55,762.766,270.55,761.735Z" transform="translate(19.558 19.597)"/><path class="d" d="M245.5,761.781c0,1,.006,2-.006,3.005,0,.186.036.225.225.223,1.03-.011,2.061-.006,3.093-.006A3.7,3.7,0,0,1,245.5,761.781Z" transform="translate(0 19.639)"/><path class="d" d="M268.987,751.077v-1.656A3.364,3.364,0,0,0,268.987,751.077Z" transform="translate(21.12 8.476)"/><path class="d" d="M259.539,740.079c.135-.008.276.042.405-.042h-.436C259.53,740.052,259.539,740.067,259.539,740.079Z" transform="translate(12.654 0)"/><path class="d" d="M259.545,740.059l-.025,0a.072.072,0,0,1-.017.034.052.052,0,0,0,.036-.021Z" transform="translate(12.648 0.02)"/><path class="d" d="M268.961,749.216v-.436c-.017.019-.03.029-.044.027C268.933,748.944,268.874,749.086,268.961,749.216Z" transform="translate(21.146 7.897)"/><path class="d" d="M268.931,748.814V748.8l0-.015-.032-.011C268.907,748.8,268.918,748.812,268.931,748.814Z" transform="translate(21.133 7.889)"/><path class="d" d="M245.546,750.272c-.013,0-.027-.008-.044-.027v.436C245.588,750.551,245.536,750.409,245.546,750.272Z" transform="translate(0.003 9.22)"/><path class="d" d="M245.527,750.248l0,.03c.013,0,.025-.015.032-.042l-.03.006Z" transform="translate(0.024 9.212)"/><path class="d" d="M268.92,761.917c.011,0,.025.006.042.025v-.436C268.878,761.635,268.927,761.78,268.92,761.917Z" transform="translate(21.146 19.391)"/><path class="d" d="M268.931,761.722c-.013,0-.025.015-.032.044l.029,0,0-.013Z" transform="translate(21.135 19.586)"/><path class="e" d="M254.82,751.731c-1.437-.013-2.872-.011-4.309,0a2.176,2.176,0,0,0-2.261,2.284c0,1.073,0,2.147,0,3.22a2.173,2.173,0,0,0,2.291,2.333c.7.011,1.393,0,2.09,0v0c.74,0,1.479.015,2.219,0a2.141,2.141,0,0,0,2.212-2.231q.014-1.676,0-3.351A2.157,2.157,0,0,0,254.82,751.731Zm-.649,5.226c-.508-.008-1.016,0-1.524,0s-1.016-.011-1.523,0c-.217.008-.27-.063-.266-.27q.02-1.045,0-2.09c0-.219.082-.263.28-.261q1.524.012,3.049,0c.215,0,.27.076.268.278-.009.7-.015,1.395,0,2.09C254.462,756.941,254.359,756.961,254.171,756.958Z" transform="translate(2.483 10.554)"/><path class="e" d="M253.955,758.65c-.887.013-1.772.006-2.657.006-.929,0-1.859.008-2.788-.008-.249,0-.316.07-.31.314.015.668.011,1.336,0,2,0,.207.029.31.278.308q2.763-.014,5.531,0c.23,0,.3-.07.293-.3-.013-.668-.021-1.336,0-2C254.317,758.682,254.2,758.646,253.955,758.65Z" transform="translate(2.439 16.809)"/><path class="e" d="M259.251,758.944c0-.227-.061-.3-.291-.3q-2.763.014-5.531,0c-.24,0-.287.082-.282.3.011.668.021,1.336,0,2-.011.3.112.325.356.324.885-.013,1.772-.006,2.657-.006.914,0,1.829-.008,2.742.006.251,0,.364-.038.354-.327C259.23,760.28,259.235,759.61,259.251,758.944Z" transform="translate(6.904 16.81)"/><path class="e" d="M264.194,758.966c.006-.242-.057-.322-.31-.318-.913.015-1.829.008-2.742.008s-1.8.013-2.7-.008c-.3-.008-.36.091-.352.365q.029.959,0,1.916c-.008.261.057.348.335.346q2.721-.02,5.443,0c.284,0,.335-.1.327-.35C264.178,760.274,264.178,759.619,264.194,758.966Z" transform="translate(11.37 16.809)"/><path class="e" d="M268.771,758.649c-.887.013-1.772.006-2.657.006H263.37c-.169,0-.344-.044-.337.244.017.71.011,1.422,0,2.133,0,.2.086.24.261.24q2.786-.009,5.574,0c.217,0,.268-.074.266-.278-.011-.668-.023-1.336,0-2C269.152,758.685,269.034,758.643,268.771,758.649Z" transform="translate(15.836 16.81)"/></g></g></svg>