<svg xmlns="http://www.w3.org/2000/svg" width="47.893" height="47.894" viewBox="0 0 47.893 47.894"><defs><style>.a{fill:none;stroke:#fff;stroke-miterlimit:10;stroke-width:1.43px;}.b{fill:#fff;fill-rule:evenodd;}</style></defs><g transform="translate(-147.531 -61.373)"><path class="a" d="M171.477,108.552h0A23.231,23.231,0,0,1,148.246,85.32h0a23.232,23.232,0,0,1,23.231-23.232h0A23.232,23.232,0,0,1,194.709,85.32h0A23.232,23.232,0,0,1,171.477,108.552Z"/><path class="b" d="M181.445,89.611c-.552-.27-3.23-1.583-3.73-1.76s-.865-.271-1.229.271-1.417,1.76-1.73,2.114-.635.407-1.187.136a14.735,14.735,0,0,1-4.387-2.688,16.223,16.223,0,0,1-3.032-3.74c-.312-.542-.031-.834.24-1.105.25-.249.542-.635.823-.948.073-.094.135-.177.2-.26a6.113,6.113,0,0,0,.344-.646.979.979,0,0,0-.041-.948c-.136-.271-1.23-2.938-1.689-4.022s-.906-.9-1.229-.9-.677-.052-1.042-.052a2.02,2.02,0,0,0-1.458.677,6.065,6.065,0,0,0-1.907,4.522,6.9,6.9,0,0,0,.281,1.844,12.28,12.28,0,0,0,1.949,3.751c.27.354,3.771,6,9.314,8.178,5.553,2.157,5.553,1.438,6.553,1.344s3.23-1.3,3.678-2.573a4.473,4.473,0,0,0,.323-2.574C182.351,90.018,181.986,89.882,181.445,89.611Z"/></g></svg>