<svg xmlns="http://www.w3.org/2000/svg" width="47.893" height="47.893" viewBox="0 0 47.893 47.893"><defs><style>.a{fill:none;stroke:#fff;stroke-miterlimit:10;stroke-width:1.43px;}.b{fill:#fff;fill-rule:evenodd;}</style></defs><g transform="translate(-304.576 -370.882)"><path class="a" d="M328.522,418.06h0a23.231,23.231,0,0,1-23.231-23.232h0A23.231,23.231,0,0,1,328.522,371.6h0a23.231,23.231,0,0,1,23.232,23.231h0A23.232,23.232,0,0,1,328.522,418.06Z"/><path class="b" d="M342.579,393.7a13.452,13.452,0,0,0-26.88-.246c-.006.2-.013.391-.013.586a13.252,13.252,0,0,0,1.927,6.895l-2.424,7.159,7.449-2.368a13.466,13.466,0,0,0,19.948-11.686C342.586,393.93,342.586,393.817,342.579,393.7Zm-13.443,11.56a11.266,11.266,0,0,1-6.221-1.857l-4.345,1.385,1.411-4.168a11.111,11.111,0,0,1-2.154-6.58,10.373,10.373,0,0,1,.057-1.09,11.313,11.313,0,0,1,22.523.214c.025.29.038.58.038.876A11.277,11.277,0,0,1,329.136,405.264Z"/><path class="b" d="M335.3,396.739c-.334-.164-1.952-.957-2.255-1.064s-.522-.164-.743.163-.856,1.064-1.045,1.278-.384.246-.718.082a8.943,8.943,0,0,1-2.651-1.624,9.768,9.768,0,0,1-1.832-2.261c-.189-.327-.019-.5.145-.667s.327-.384.5-.573l.12-.158a3.823,3.823,0,0,0,.208-.39.594.594,0,0,0-.025-.573c-.082-.164-.743-1.776-1.021-2.43s-.547-.542-.743-.542-.409-.031-.629-.031a1.216,1.216,0,0,0-.882.409,3.663,3.663,0,0,0-1.152,2.733,4.147,4.147,0,0,0,.17,1.114,7.463,7.463,0,0,0,1.177,2.267c.164.214,2.28,3.627,5.63,4.943s3.356.869,3.96.812a3.291,3.291,0,0,0,2.223-1.555,2.709,2.709,0,0,0,.2-1.556C335.848,396.984,335.628,396.9,335.3,396.739Z"/></g></svg>